%TF.GenerationSoftware,KiCad,Pcbnew,(5.1.10-1-10_14)*%
%TF.CreationDate,2021-07-07T01:14:00+09:00*%
%TF.ProjectId,StickPlate,53746963-6b50-46c6-9174-652e6b696361,rev?*%
%TF.SameCoordinates,Original*%
%TF.FileFunction,Copper,L2,Bot*%
%TF.FilePolarity,Positive*%
%FSLAX46Y46*%
G04 Gerber Fmt 4.6, Leading zero omitted, Abs format (unit mm)*
G04 Created by KiCad (PCBNEW (5.1.10-1-10_14)) date 2021-07-07 01:14:00*
%MOMM*%
%LPD*%
G01*
G04 APERTURE LIST*
%TA.AperFunction,NonConductor*%
%ADD10C,0.254000*%
%TD*%
%TA.AperFunction,NonConductor*%
%ADD11C,0.100000*%
%TD*%
G04 APERTURE END LIST*
D10*
X150065424Y-71419580D02*
X150128356Y-71438580D01*
X150186405Y-71469445D01*
X150237343Y-71510989D01*
X150279248Y-71561644D01*
X150310515Y-71619471D01*
X150329956Y-71682272D01*
X150340000Y-71777835D01*
X150340001Y-101217572D01*
X150340000Y-101217582D01*
X150340000Y-101532419D01*
X150343296Y-101565884D01*
X150343296Y-101585349D01*
X150344259Y-101594514D01*
X150373000Y-101850741D01*
X150373000Y-108633573D01*
X150372680Y-108635079D01*
X150371717Y-108644244D01*
X150343150Y-108935596D01*
X150343150Y-108935608D01*
X150340001Y-108967581D01*
X150340000Y-128717721D01*
X150330420Y-128815424D01*
X150311420Y-128878357D01*
X150280554Y-128936406D01*
X150239011Y-128987343D01*
X150188356Y-129029248D01*
X150130870Y-129060331D01*
X144267042Y-125584344D01*
X146545000Y-125584344D01*
X146545000Y-125955656D01*
X146617439Y-126319834D01*
X146759534Y-126662882D01*
X146965825Y-126971618D01*
X147228382Y-127234175D01*
X147537118Y-127440466D01*
X147880166Y-127582561D01*
X148244344Y-127655000D01*
X148615656Y-127655000D01*
X148979834Y-127582561D01*
X149322882Y-127440466D01*
X149631618Y-127234175D01*
X149894175Y-126971618D01*
X150100466Y-126662882D01*
X150242561Y-126319834D01*
X150315000Y-125955656D01*
X150315000Y-125584344D01*
X150242561Y-125220166D01*
X150100466Y-124877118D01*
X149894175Y-124568382D01*
X149631618Y-124305825D01*
X149322882Y-124099534D01*
X148979834Y-123957439D01*
X148615656Y-123885000D01*
X148244344Y-123885000D01*
X147880166Y-123957439D01*
X147537118Y-124099534D01*
X147228382Y-124305825D01*
X146965825Y-124568382D01*
X146759534Y-124877118D01*
X146617439Y-125220166D01*
X146545000Y-125584344D01*
X144267042Y-125584344D01*
X132229252Y-118448529D01*
X132220096Y-118437382D01*
X132189030Y-118379446D01*
X132169810Y-118316578D01*
X132160000Y-118219999D01*
X132160000Y-117661888D01*
X132187439Y-117799834D01*
X132329534Y-118142882D01*
X132535825Y-118451618D01*
X132798382Y-118714175D01*
X133107118Y-118920466D01*
X133450166Y-119062561D01*
X133814344Y-119135000D01*
X134185656Y-119135000D01*
X134549834Y-119062561D01*
X134892882Y-118920466D01*
X135201618Y-118714175D01*
X135464175Y-118451618D01*
X135670466Y-118142882D01*
X135812561Y-117799834D01*
X135885000Y-117435656D01*
X135885000Y-117064344D01*
X135812561Y-116700166D01*
X135670466Y-116357118D01*
X135464175Y-116048382D01*
X135201618Y-115785825D01*
X134892882Y-115579534D01*
X134549834Y-115437439D01*
X134185656Y-115365000D01*
X133814344Y-115365000D01*
X133450166Y-115437439D01*
X133107118Y-115579534D01*
X132798382Y-115785825D01*
X132535825Y-116048382D01*
X132329534Y-116357118D01*
X132187439Y-116700166D01*
X132160000Y-116838112D01*
X132160000Y-108967581D01*
X132156704Y-108934116D01*
X132156704Y-108914651D01*
X132155741Y-108905486D01*
X132127000Y-108649258D01*
X132127000Y-101866426D01*
X132127320Y-101864921D01*
X132128283Y-101855756D01*
X132156850Y-101564404D01*
X132156850Y-101564402D01*
X132160000Y-101532419D01*
X132160000Y-71782279D01*
X132169580Y-71684576D01*
X132188580Y-71621644D01*
X132219445Y-71563595D01*
X132260989Y-71512657D01*
X132311644Y-71470752D01*
X132369471Y-71439485D01*
X132432272Y-71420044D01*
X132527835Y-71410000D01*
X149967721Y-71410000D01*
X150065424Y-71419580D01*
%TA.AperFunction,NonConductor*%
D11*
G36*
X150065424Y-71419580D02*
G01*
X150128356Y-71438580D01*
X150186405Y-71469445D01*
X150237343Y-71510989D01*
X150279248Y-71561644D01*
X150310515Y-71619471D01*
X150329956Y-71682272D01*
X150340000Y-71777835D01*
X150340001Y-101217572D01*
X150340000Y-101217582D01*
X150340000Y-101532419D01*
X150343296Y-101565884D01*
X150343296Y-101585349D01*
X150344259Y-101594514D01*
X150373000Y-101850741D01*
X150373000Y-108633573D01*
X150372680Y-108635079D01*
X150371717Y-108644244D01*
X150343150Y-108935596D01*
X150343150Y-108935608D01*
X150340001Y-108967581D01*
X150340000Y-128717721D01*
X150330420Y-128815424D01*
X150311420Y-128878357D01*
X150280554Y-128936406D01*
X150239011Y-128987343D01*
X150188356Y-129029248D01*
X150130870Y-129060331D01*
X144267042Y-125584344D01*
X146545000Y-125584344D01*
X146545000Y-125955656D01*
X146617439Y-126319834D01*
X146759534Y-126662882D01*
X146965825Y-126971618D01*
X147228382Y-127234175D01*
X147537118Y-127440466D01*
X147880166Y-127582561D01*
X148244344Y-127655000D01*
X148615656Y-127655000D01*
X148979834Y-127582561D01*
X149322882Y-127440466D01*
X149631618Y-127234175D01*
X149894175Y-126971618D01*
X150100466Y-126662882D01*
X150242561Y-126319834D01*
X150315000Y-125955656D01*
X150315000Y-125584344D01*
X150242561Y-125220166D01*
X150100466Y-124877118D01*
X149894175Y-124568382D01*
X149631618Y-124305825D01*
X149322882Y-124099534D01*
X148979834Y-123957439D01*
X148615656Y-123885000D01*
X148244344Y-123885000D01*
X147880166Y-123957439D01*
X147537118Y-124099534D01*
X147228382Y-124305825D01*
X146965825Y-124568382D01*
X146759534Y-124877118D01*
X146617439Y-125220166D01*
X146545000Y-125584344D01*
X144267042Y-125584344D01*
X132229252Y-118448529D01*
X132220096Y-118437382D01*
X132189030Y-118379446D01*
X132169810Y-118316578D01*
X132160000Y-118219999D01*
X132160000Y-117661888D01*
X132187439Y-117799834D01*
X132329534Y-118142882D01*
X132535825Y-118451618D01*
X132798382Y-118714175D01*
X133107118Y-118920466D01*
X133450166Y-119062561D01*
X133814344Y-119135000D01*
X134185656Y-119135000D01*
X134549834Y-119062561D01*
X134892882Y-118920466D01*
X135201618Y-118714175D01*
X135464175Y-118451618D01*
X135670466Y-118142882D01*
X135812561Y-117799834D01*
X135885000Y-117435656D01*
X135885000Y-117064344D01*
X135812561Y-116700166D01*
X135670466Y-116357118D01*
X135464175Y-116048382D01*
X135201618Y-115785825D01*
X134892882Y-115579534D01*
X134549834Y-115437439D01*
X134185656Y-115365000D01*
X133814344Y-115365000D01*
X133450166Y-115437439D01*
X133107118Y-115579534D01*
X132798382Y-115785825D01*
X132535825Y-116048382D01*
X132329534Y-116357118D01*
X132187439Y-116700166D01*
X132160000Y-116838112D01*
X132160000Y-108967581D01*
X132156704Y-108934116D01*
X132156704Y-108914651D01*
X132155741Y-108905486D01*
X132127000Y-108649258D01*
X132127000Y-101866426D01*
X132127320Y-101864921D01*
X132128283Y-101855756D01*
X132156850Y-101564404D01*
X132156850Y-101564402D01*
X132160000Y-101532419D01*
X132160000Y-71782279D01*
X132169580Y-71684576D01*
X132188580Y-71621644D01*
X132219445Y-71563595D01*
X132260989Y-71512657D01*
X132311644Y-71470752D01*
X132369471Y-71439485D01*
X132432272Y-71420044D01*
X132527835Y-71410000D01*
X149967721Y-71410000D01*
X150065424Y-71419580D01*
G37*
%TD.AperFunction*%
D10*
X172565424Y-71419580D02*
X172628356Y-71438580D01*
X172686405Y-71469445D01*
X172737343Y-71510989D01*
X172779248Y-71561644D01*
X172810515Y-71619471D01*
X172829956Y-71682272D01*
X172840000Y-71777835D01*
X172840001Y-101532419D01*
X172843296Y-101565874D01*
X172843296Y-101585349D01*
X172844259Y-101594514D01*
X172873000Y-101850741D01*
X172873000Y-108633573D01*
X172872680Y-108635079D01*
X172871717Y-108644244D01*
X172843150Y-108935596D01*
X172843150Y-108935608D01*
X172840001Y-108967581D01*
X172840000Y-116838113D01*
X172812561Y-116700166D01*
X172670466Y-116357118D01*
X172464175Y-116048382D01*
X172201618Y-115785825D01*
X171892882Y-115579534D01*
X171549834Y-115437439D01*
X171185656Y-115365000D01*
X170814344Y-115365000D01*
X170450166Y-115437439D01*
X170107118Y-115579534D01*
X169798382Y-115785825D01*
X169535825Y-116048382D01*
X169329534Y-116357118D01*
X169187439Y-116700166D01*
X169115000Y-117064344D01*
X169115000Y-117435656D01*
X169187439Y-117799834D01*
X169329534Y-118142882D01*
X169535825Y-118451618D01*
X169798382Y-118714175D01*
X170107118Y-118920466D01*
X170450166Y-119062561D01*
X170814344Y-119135000D01*
X171185656Y-119135000D01*
X171549834Y-119062561D01*
X171892882Y-118920466D01*
X172201618Y-118714175D01*
X172464175Y-118451618D01*
X172670466Y-118142882D01*
X172812561Y-117799834D01*
X172840000Y-117661888D01*
X172840000Y-118217721D01*
X172830420Y-118315424D01*
X172811420Y-118378357D01*
X172780554Y-118436406D01*
X172770592Y-118448621D01*
X154869351Y-129060201D01*
X154813594Y-129030554D01*
X154762657Y-128989011D01*
X154720752Y-128938356D01*
X154689485Y-128880529D01*
X154670044Y-128817728D01*
X154660000Y-128722165D01*
X154660000Y-125584344D01*
X154685000Y-125584344D01*
X154685000Y-125955656D01*
X154757439Y-126319834D01*
X154899534Y-126662882D01*
X155105825Y-126971618D01*
X155368382Y-127234175D01*
X155677118Y-127440466D01*
X156020166Y-127582561D01*
X156384344Y-127655000D01*
X156755656Y-127655000D01*
X157119834Y-127582561D01*
X157462882Y-127440466D01*
X157771618Y-127234175D01*
X158034175Y-126971618D01*
X158240466Y-126662882D01*
X158382561Y-126319834D01*
X158455000Y-125955656D01*
X158455000Y-125584344D01*
X158382561Y-125220166D01*
X158240466Y-124877118D01*
X158034175Y-124568382D01*
X157771618Y-124305825D01*
X157462882Y-124099534D01*
X157119834Y-123957439D01*
X156755656Y-123885000D01*
X156384344Y-123885000D01*
X156020166Y-123957439D01*
X155677118Y-124099534D01*
X155368382Y-124305825D01*
X155105825Y-124568382D01*
X154899534Y-124877118D01*
X154757439Y-125220166D01*
X154685000Y-125584344D01*
X154660000Y-125584344D01*
X154660000Y-108967581D01*
X154656704Y-108934116D01*
X154656704Y-108914651D01*
X154655741Y-108905486D01*
X154627000Y-108649258D01*
X154627000Y-101866426D01*
X154627320Y-101864921D01*
X154628283Y-101855756D01*
X154656850Y-101564404D01*
X154656850Y-101564402D01*
X154660000Y-101532419D01*
X154660000Y-71782279D01*
X154669580Y-71684576D01*
X154688580Y-71621644D01*
X154719445Y-71563595D01*
X154760989Y-71512657D01*
X154811644Y-71470752D01*
X154869471Y-71439485D01*
X154932272Y-71420044D01*
X155027835Y-71410000D01*
X172467721Y-71410000D01*
X172565424Y-71419580D01*
%TA.AperFunction,NonConductor*%
D11*
G36*
X172565424Y-71419580D02*
G01*
X172628356Y-71438580D01*
X172686405Y-71469445D01*
X172737343Y-71510989D01*
X172779248Y-71561644D01*
X172810515Y-71619471D01*
X172829956Y-71682272D01*
X172840000Y-71777835D01*
X172840001Y-101532419D01*
X172843296Y-101565874D01*
X172843296Y-101585349D01*
X172844259Y-101594514D01*
X172873000Y-101850741D01*
X172873000Y-108633573D01*
X172872680Y-108635079D01*
X172871717Y-108644244D01*
X172843150Y-108935596D01*
X172843150Y-108935608D01*
X172840001Y-108967581D01*
X172840000Y-116838113D01*
X172812561Y-116700166D01*
X172670466Y-116357118D01*
X172464175Y-116048382D01*
X172201618Y-115785825D01*
X171892882Y-115579534D01*
X171549834Y-115437439D01*
X171185656Y-115365000D01*
X170814344Y-115365000D01*
X170450166Y-115437439D01*
X170107118Y-115579534D01*
X169798382Y-115785825D01*
X169535825Y-116048382D01*
X169329534Y-116357118D01*
X169187439Y-116700166D01*
X169115000Y-117064344D01*
X169115000Y-117435656D01*
X169187439Y-117799834D01*
X169329534Y-118142882D01*
X169535825Y-118451618D01*
X169798382Y-118714175D01*
X170107118Y-118920466D01*
X170450166Y-119062561D01*
X170814344Y-119135000D01*
X171185656Y-119135000D01*
X171549834Y-119062561D01*
X171892882Y-118920466D01*
X172201618Y-118714175D01*
X172464175Y-118451618D01*
X172670466Y-118142882D01*
X172812561Y-117799834D01*
X172840000Y-117661888D01*
X172840000Y-118217721D01*
X172830420Y-118315424D01*
X172811420Y-118378357D01*
X172780554Y-118436406D01*
X172770592Y-118448621D01*
X154869351Y-129060201D01*
X154813594Y-129030554D01*
X154762657Y-128989011D01*
X154720752Y-128938356D01*
X154689485Y-128880529D01*
X154670044Y-128817728D01*
X154660000Y-128722165D01*
X154660000Y-125584344D01*
X154685000Y-125584344D01*
X154685000Y-125955656D01*
X154757439Y-126319834D01*
X154899534Y-126662882D01*
X155105825Y-126971618D01*
X155368382Y-127234175D01*
X155677118Y-127440466D01*
X156020166Y-127582561D01*
X156384344Y-127655000D01*
X156755656Y-127655000D01*
X157119834Y-127582561D01*
X157462882Y-127440466D01*
X157771618Y-127234175D01*
X158034175Y-126971618D01*
X158240466Y-126662882D01*
X158382561Y-126319834D01*
X158455000Y-125955656D01*
X158455000Y-125584344D01*
X158382561Y-125220166D01*
X158240466Y-124877118D01*
X158034175Y-124568382D01*
X157771618Y-124305825D01*
X157462882Y-124099534D01*
X157119834Y-123957439D01*
X156755656Y-123885000D01*
X156384344Y-123885000D01*
X156020166Y-123957439D01*
X155677118Y-124099534D01*
X155368382Y-124305825D01*
X155105825Y-124568382D01*
X154899534Y-124877118D01*
X154757439Y-125220166D01*
X154685000Y-125584344D01*
X154660000Y-125584344D01*
X154660000Y-108967581D01*
X154656704Y-108934116D01*
X154656704Y-108914651D01*
X154655741Y-108905486D01*
X154627000Y-108649258D01*
X154627000Y-101866426D01*
X154627320Y-101864921D01*
X154628283Y-101855756D01*
X154656850Y-101564404D01*
X154656850Y-101564402D01*
X154660000Y-101532419D01*
X154660000Y-71782279D01*
X154669580Y-71684576D01*
X154688580Y-71621644D01*
X154719445Y-71563595D01*
X154760989Y-71512657D01*
X154811644Y-71470752D01*
X154869471Y-71439485D01*
X154932272Y-71420044D01*
X155027835Y-71410000D01*
X172467721Y-71410000D01*
X172565424Y-71419580D01*
G37*
%TD.AperFunction*%
D10*
X195065424Y-71419580D02*
X195128356Y-71438580D01*
X195186405Y-71469445D01*
X195237343Y-71510989D01*
X195279248Y-71561644D01*
X195310515Y-71619471D01*
X195329956Y-71682272D01*
X195340000Y-71777835D01*
X195340001Y-101532419D01*
X195343296Y-101565874D01*
X195343296Y-101585349D01*
X195344259Y-101594514D01*
X195373000Y-101850741D01*
X195373000Y-108633573D01*
X195372680Y-108635079D01*
X195371717Y-108644244D01*
X195343150Y-108935596D01*
X195343150Y-108935608D01*
X195340001Y-108967581D01*
X195340000Y-128717721D01*
X195330420Y-128815424D01*
X195311420Y-128878357D01*
X195280554Y-128936406D01*
X195239011Y-128987343D01*
X195188356Y-129029248D01*
X195130870Y-129060331D01*
X189267042Y-125584344D01*
X191545000Y-125584344D01*
X191545000Y-125955656D01*
X191617439Y-126319834D01*
X191759534Y-126662882D01*
X191965825Y-126971618D01*
X192228382Y-127234175D01*
X192537118Y-127440466D01*
X192880166Y-127582561D01*
X193244344Y-127655000D01*
X193615656Y-127655000D01*
X193979834Y-127582561D01*
X194322882Y-127440466D01*
X194631618Y-127234175D01*
X194894175Y-126971618D01*
X195100466Y-126662882D01*
X195242561Y-126319834D01*
X195315000Y-125955656D01*
X195315000Y-125584344D01*
X195242561Y-125220166D01*
X195100466Y-124877118D01*
X194894175Y-124568382D01*
X194631618Y-124305825D01*
X194322882Y-124099534D01*
X193979834Y-123957439D01*
X193615656Y-123885000D01*
X193244344Y-123885000D01*
X192880166Y-123957439D01*
X192537118Y-124099534D01*
X192228382Y-124305825D01*
X191965825Y-124568382D01*
X191759534Y-124877118D01*
X191617439Y-125220166D01*
X191545000Y-125584344D01*
X189267042Y-125584344D01*
X177229252Y-118448529D01*
X177220096Y-118437382D01*
X177189030Y-118379446D01*
X177169810Y-118316578D01*
X177160000Y-118219999D01*
X177160000Y-117661888D01*
X177187439Y-117799834D01*
X177329534Y-118142882D01*
X177535825Y-118451618D01*
X177798382Y-118714175D01*
X178107118Y-118920466D01*
X178450166Y-119062561D01*
X178814344Y-119135000D01*
X179185656Y-119135000D01*
X179549834Y-119062561D01*
X179892882Y-118920466D01*
X180201618Y-118714175D01*
X180464175Y-118451618D01*
X180670466Y-118142882D01*
X180812561Y-117799834D01*
X180885000Y-117435656D01*
X180885000Y-117064344D01*
X180812561Y-116700166D01*
X180670466Y-116357118D01*
X180464175Y-116048382D01*
X180201618Y-115785825D01*
X179892882Y-115579534D01*
X179549834Y-115437439D01*
X179185656Y-115365000D01*
X178814344Y-115365000D01*
X178450166Y-115437439D01*
X178107118Y-115579534D01*
X177798382Y-115785825D01*
X177535825Y-116048382D01*
X177329534Y-116357118D01*
X177187439Y-116700166D01*
X177160000Y-116838112D01*
X177160000Y-108967581D01*
X177156704Y-108934116D01*
X177156704Y-108914651D01*
X177155741Y-108905486D01*
X177127000Y-108649258D01*
X177127000Y-101866426D01*
X177127320Y-101864921D01*
X177128283Y-101855756D01*
X177156850Y-101564404D01*
X177156850Y-101564402D01*
X177160000Y-101532419D01*
X177160000Y-71782279D01*
X177169580Y-71684576D01*
X177188580Y-71621644D01*
X177219445Y-71563595D01*
X177260989Y-71512657D01*
X177311644Y-71470752D01*
X177369471Y-71439485D01*
X177432272Y-71420044D01*
X177527835Y-71410000D01*
X194967721Y-71410000D01*
X195065424Y-71419580D01*
%TA.AperFunction,NonConductor*%
D11*
G36*
X195065424Y-71419580D02*
G01*
X195128356Y-71438580D01*
X195186405Y-71469445D01*
X195237343Y-71510989D01*
X195279248Y-71561644D01*
X195310515Y-71619471D01*
X195329956Y-71682272D01*
X195340000Y-71777835D01*
X195340001Y-101532419D01*
X195343296Y-101565874D01*
X195343296Y-101585349D01*
X195344259Y-101594514D01*
X195373000Y-101850741D01*
X195373000Y-108633573D01*
X195372680Y-108635079D01*
X195371717Y-108644244D01*
X195343150Y-108935596D01*
X195343150Y-108935608D01*
X195340001Y-108967581D01*
X195340000Y-128717721D01*
X195330420Y-128815424D01*
X195311420Y-128878357D01*
X195280554Y-128936406D01*
X195239011Y-128987343D01*
X195188356Y-129029248D01*
X195130870Y-129060331D01*
X189267042Y-125584344D01*
X191545000Y-125584344D01*
X191545000Y-125955656D01*
X191617439Y-126319834D01*
X191759534Y-126662882D01*
X191965825Y-126971618D01*
X192228382Y-127234175D01*
X192537118Y-127440466D01*
X192880166Y-127582561D01*
X193244344Y-127655000D01*
X193615656Y-127655000D01*
X193979834Y-127582561D01*
X194322882Y-127440466D01*
X194631618Y-127234175D01*
X194894175Y-126971618D01*
X195100466Y-126662882D01*
X195242561Y-126319834D01*
X195315000Y-125955656D01*
X195315000Y-125584344D01*
X195242561Y-125220166D01*
X195100466Y-124877118D01*
X194894175Y-124568382D01*
X194631618Y-124305825D01*
X194322882Y-124099534D01*
X193979834Y-123957439D01*
X193615656Y-123885000D01*
X193244344Y-123885000D01*
X192880166Y-123957439D01*
X192537118Y-124099534D01*
X192228382Y-124305825D01*
X191965825Y-124568382D01*
X191759534Y-124877118D01*
X191617439Y-125220166D01*
X191545000Y-125584344D01*
X189267042Y-125584344D01*
X177229252Y-118448529D01*
X177220096Y-118437382D01*
X177189030Y-118379446D01*
X177169810Y-118316578D01*
X177160000Y-118219999D01*
X177160000Y-117661888D01*
X177187439Y-117799834D01*
X177329534Y-118142882D01*
X177535825Y-118451618D01*
X177798382Y-118714175D01*
X178107118Y-118920466D01*
X178450166Y-119062561D01*
X178814344Y-119135000D01*
X179185656Y-119135000D01*
X179549834Y-119062561D01*
X179892882Y-118920466D01*
X180201618Y-118714175D01*
X180464175Y-118451618D01*
X180670466Y-118142882D01*
X180812561Y-117799834D01*
X180885000Y-117435656D01*
X180885000Y-117064344D01*
X180812561Y-116700166D01*
X180670466Y-116357118D01*
X180464175Y-116048382D01*
X180201618Y-115785825D01*
X179892882Y-115579534D01*
X179549834Y-115437439D01*
X179185656Y-115365000D01*
X178814344Y-115365000D01*
X178450166Y-115437439D01*
X178107118Y-115579534D01*
X177798382Y-115785825D01*
X177535825Y-116048382D01*
X177329534Y-116357118D01*
X177187439Y-116700166D01*
X177160000Y-116838112D01*
X177160000Y-108967581D01*
X177156704Y-108934116D01*
X177156704Y-108914651D01*
X177155741Y-108905486D01*
X177127000Y-108649258D01*
X177127000Y-101866426D01*
X177127320Y-101864921D01*
X177128283Y-101855756D01*
X177156850Y-101564404D01*
X177156850Y-101564402D01*
X177160000Y-101532419D01*
X177160000Y-71782279D01*
X177169580Y-71684576D01*
X177188580Y-71621644D01*
X177219445Y-71563595D01*
X177260989Y-71512657D01*
X177311644Y-71470752D01*
X177369471Y-71439485D01*
X177432272Y-71420044D01*
X177527835Y-71410000D01*
X194967721Y-71410000D01*
X195065424Y-71419580D01*
G37*
%TD.AperFunction*%
D10*
X217565424Y-71419580D02*
X217628356Y-71438580D01*
X217686405Y-71469445D01*
X217737343Y-71510989D01*
X217779248Y-71561644D01*
X217810515Y-71619471D01*
X217829956Y-71682272D01*
X217840000Y-71777835D01*
X217840001Y-101532419D01*
X217843296Y-101565874D01*
X217843296Y-101585349D01*
X217844259Y-101594514D01*
X217873000Y-101850741D01*
X217873000Y-108633573D01*
X217872680Y-108635079D01*
X217871717Y-108644244D01*
X217843150Y-108935596D01*
X217843150Y-108935608D01*
X217840001Y-108967581D01*
X217840000Y-116838113D01*
X217812561Y-116700166D01*
X217670466Y-116357118D01*
X217464175Y-116048382D01*
X217201618Y-115785825D01*
X216892882Y-115579534D01*
X216549834Y-115437439D01*
X216185656Y-115365000D01*
X215814344Y-115365000D01*
X215450166Y-115437439D01*
X215107118Y-115579534D01*
X214798382Y-115785825D01*
X214535825Y-116048382D01*
X214329534Y-116357118D01*
X214187439Y-116700166D01*
X214115000Y-117064344D01*
X214115000Y-117435656D01*
X214187439Y-117799834D01*
X214329534Y-118142882D01*
X214535825Y-118451618D01*
X214798382Y-118714175D01*
X215107118Y-118920466D01*
X215450166Y-119062561D01*
X215814344Y-119135000D01*
X216185656Y-119135000D01*
X216549834Y-119062561D01*
X216892882Y-118920466D01*
X217201618Y-118714175D01*
X217464175Y-118451618D01*
X217670466Y-118142882D01*
X217812561Y-117799834D01*
X217840000Y-117661888D01*
X217840000Y-118217721D01*
X217830420Y-118315424D01*
X217811420Y-118378357D01*
X217780554Y-118436406D01*
X217770592Y-118448621D01*
X199869351Y-129060201D01*
X199813594Y-129030554D01*
X199762657Y-128989011D01*
X199720752Y-128938356D01*
X199689485Y-128880529D01*
X199670044Y-128817728D01*
X199660000Y-128722165D01*
X199660000Y-125584344D01*
X199685000Y-125584344D01*
X199685000Y-125955656D01*
X199757439Y-126319834D01*
X199899534Y-126662882D01*
X200105825Y-126971618D01*
X200368382Y-127234175D01*
X200677118Y-127440466D01*
X201020166Y-127582561D01*
X201384344Y-127655000D01*
X201755656Y-127655000D01*
X202119834Y-127582561D01*
X202462882Y-127440466D01*
X202771618Y-127234175D01*
X203034175Y-126971618D01*
X203240466Y-126662882D01*
X203382561Y-126319834D01*
X203455000Y-125955656D01*
X203455000Y-125584344D01*
X203382561Y-125220166D01*
X203240466Y-124877118D01*
X203034175Y-124568382D01*
X202771618Y-124305825D01*
X202462882Y-124099534D01*
X202119834Y-123957439D01*
X201755656Y-123885000D01*
X201384344Y-123885000D01*
X201020166Y-123957439D01*
X200677118Y-124099534D01*
X200368382Y-124305825D01*
X200105825Y-124568382D01*
X199899534Y-124877118D01*
X199757439Y-125220166D01*
X199685000Y-125584344D01*
X199660000Y-125584344D01*
X199660000Y-108967581D01*
X199656704Y-108934116D01*
X199656704Y-108914651D01*
X199655741Y-108905486D01*
X199627000Y-108649258D01*
X199627000Y-101866426D01*
X199627320Y-101864921D01*
X199628283Y-101855756D01*
X199656850Y-101564404D01*
X199656850Y-101564402D01*
X199660000Y-101532419D01*
X199660000Y-71782279D01*
X199669580Y-71684576D01*
X199688580Y-71621644D01*
X199719445Y-71563595D01*
X199760989Y-71512657D01*
X199811644Y-71470752D01*
X199869471Y-71439485D01*
X199932272Y-71420044D01*
X200027835Y-71410000D01*
X217467721Y-71410000D01*
X217565424Y-71419580D01*
%TA.AperFunction,NonConductor*%
D11*
G36*
X217565424Y-71419580D02*
G01*
X217628356Y-71438580D01*
X217686405Y-71469445D01*
X217737343Y-71510989D01*
X217779248Y-71561644D01*
X217810515Y-71619471D01*
X217829956Y-71682272D01*
X217840000Y-71777835D01*
X217840001Y-101532419D01*
X217843296Y-101565874D01*
X217843296Y-101585349D01*
X217844259Y-101594514D01*
X217873000Y-101850741D01*
X217873000Y-108633573D01*
X217872680Y-108635079D01*
X217871717Y-108644244D01*
X217843150Y-108935596D01*
X217843150Y-108935608D01*
X217840001Y-108967581D01*
X217840000Y-116838113D01*
X217812561Y-116700166D01*
X217670466Y-116357118D01*
X217464175Y-116048382D01*
X217201618Y-115785825D01*
X216892882Y-115579534D01*
X216549834Y-115437439D01*
X216185656Y-115365000D01*
X215814344Y-115365000D01*
X215450166Y-115437439D01*
X215107118Y-115579534D01*
X214798382Y-115785825D01*
X214535825Y-116048382D01*
X214329534Y-116357118D01*
X214187439Y-116700166D01*
X214115000Y-117064344D01*
X214115000Y-117435656D01*
X214187439Y-117799834D01*
X214329534Y-118142882D01*
X214535825Y-118451618D01*
X214798382Y-118714175D01*
X215107118Y-118920466D01*
X215450166Y-119062561D01*
X215814344Y-119135000D01*
X216185656Y-119135000D01*
X216549834Y-119062561D01*
X216892882Y-118920466D01*
X217201618Y-118714175D01*
X217464175Y-118451618D01*
X217670466Y-118142882D01*
X217812561Y-117799834D01*
X217840000Y-117661888D01*
X217840000Y-118217721D01*
X217830420Y-118315424D01*
X217811420Y-118378357D01*
X217780554Y-118436406D01*
X217770592Y-118448621D01*
X199869351Y-129060201D01*
X199813594Y-129030554D01*
X199762657Y-128989011D01*
X199720752Y-128938356D01*
X199689485Y-128880529D01*
X199670044Y-128817728D01*
X199660000Y-128722165D01*
X199660000Y-125584344D01*
X199685000Y-125584344D01*
X199685000Y-125955656D01*
X199757439Y-126319834D01*
X199899534Y-126662882D01*
X200105825Y-126971618D01*
X200368382Y-127234175D01*
X200677118Y-127440466D01*
X201020166Y-127582561D01*
X201384344Y-127655000D01*
X201755656Y-127655000D01*
X202119834Y-127582561D01*
X202462882Y-127440466D01*
X202771618Y-127234175D01*
X203034175Y-126971618D01*
X203240466Y-126662882D01*
X203382561Y-126319834D01*
X203455000Y-125955656D01*
X203455000Y-125584344D01*
X203382561Y-125220166D01*
X203240466Y-124877118D01*
X203034175Y-124568382D01*
X202771618Y-124305825D01*
X202462882Y-124099534D01*
X202119834Y-123957439D01*
X201755656Y-123885000D01*
X201384344Y-123885000D01*
X201020166Y-123957439D01*
X200677118Y-124099534D01*
X200368382Y-124305825D01*
X200105825Y-124568382D01*
X199899534Y-124877118D01*
X199757439Y-125220166D01*
X199685000Y-125584344D01*
X199660000Y-125584344D01*
X199660000Y-108967581D01*
X199656704Y-108934116D01*
X199656704Y-108914651D01*
X199655741Y-108905486D01*
X199627000Y-108649258D01*
X199627000Y-101866426D01*
X199627320Y-101864921D01*
X199628283Y-101855756D01*
X199656850Y-101564404D01*
X199656850Y-101564402D01*
X199660000Y-101532419D01*
X199660000Y-71782279D01*
X199669580Y-71684576D01*
X199688580Y-71621644D01*
X199719445Y-71563595D01*
X199760989Y-71512657D01*
X199811644Y-71470752D01*
X199869471Y-71439485D01*
X199932272Y-71420044D01*
X200027835Y-71410000D01*
X217467721Y-71410000D01*
X217565424Y-71419580D01*
G37*
%TD.AperFunction*%
M02*
