M48
; DRILL file {KiCad (5.1.10-1-10_14)} date Wednesday, July 07, 2021 at 01:07:13 AM
; FORMAT={-:-/ absolute / inch / decimal}
; #@! TF.CreationDate,2021-07-07T01:07:13+09:00
; #@! TF.GenerationSoftware,Kicad,Pcbnew,(5.1.10-1-10_14)
; #@! TF.FileFunction,NonPlated,1,2,NPTH
FMAT,2
INCH
T1C0.0118
T2C0.0984
%
G90
G05
T1
X5.1693Y-4.0502
X5.1693Y-4.0736
X5.1693Y-4.0969
X5.1693Y-4.1203
X5.1693Y-4.1437
X5.1693Y-4.1671
X5.1693Y-4.1905
X5.1693Y-4.2138
X5.1693Y-4.2372
X5.9528Y-4.0502
X5.9528Y-4.0736
X5.9528Y-4.0969
X5.9528Y-4.1203
X5.9528Y-4.1437
X5.9528Y-4.1671
X5.9528Y-4.1905
X5.9528Y-4.2138
X5.9528Y-4.2372
X6.0551Y-4.0502
X6.0551Y-4.0736
X6.0551Y-4.0969
X6.0551Y-4.1203
X6.0551Y-4.1437
X6.0551Y-4.1671
X6.0551Y-4.1905
X6.0551Y-4.2138
X6.0551Y-4.2372
X6.8386Y-4.0502
X6.8386Y-4.0736
X6.8386Y-4.0969
X6.8386Y-4.1203
X6.8386Y-4.1437
X6.8386Y-4.1671
X6.8386Y-4.1905
X6.8386Y-4.2138
X6.8386Y-4.2372
X6.9409Y-4.0502
X6.9409Y-4.0736
X6.9409Y-4.0969
X6.9409Y-4.1203
X6.9409Y-4.1437
X6.9409Y-4.1671
X6.9409Y-4.1905
X6.9409Y-4.2138
X6.9409Y-4.2372
X7.7244Y-4.0502
X7.7244Y-4.0736
X7.7244Y-4.0969
X7.7244Y-4.1203
X7.7244Y-4.1437
X7.7244Y-4.1671
X7.7244Y-4.1905
X7.7244Y-4.2138
X7.7244Y-4.2372
X7.8268Y-4.0502
X7.8268Y-4.0736
X7.8268Y-4.0969
X7.8268Y-4.1203
X7.8268Y-4.1437
X7.8268Y-4.1671
X7.8268Y-4.1905
X7.8268Y-4.2138
X7.8268Y-4.2372
X8.6122Y-4.0502
X8.6122Y-4.0736
X8.6122Y-4.0969
X8.6122Y-4.1203
X8.6122Y-4.1437
X8.6122Y-4.1671
X8.6122Y-4.1905
X8.6122Y-4.2138
X8.6122Y-4.2372
T2
X5.2756Y-4.6161
X5.8437Y-4.9516
X6.1642Y-4.9516
X6.7323Y-4.6161
X7.0472Y-4.6161
X7.6154Y-4.9516
X7.9358Y-4.9516
X8.5039Y-4.6161
T0
M30
