%TF.GenerationSoftware,KiCad,Pcbnew,(5.1.10-1-10_14)*%
%TF.CreationDate,2021-07-07T01:14:00+09:00*%
%TF.ProjectId,StickPlate,53746963-6b50-46c6-9174-652e6b696361,rev?*%
%TF.SameCoordinates,Original*%
%TF.FileFunction,Copper,L1,Top*%
%TF.FilePolarity,Positive*%
%FSLAX46Y46*%
G04 Gerber Fmt 4.6, Leading zero omitted, Abs format (unit mm)*
G04 Created by KiCad (PCBNEW (5.1.10-1-10_14)) date 2021-07-07 01:14:00*
%MOMM*%
%LPD*%
G01*
G04 APERTURE LIST*
%TA.AperFunction,SMDPad,CuDef*%
%ADD10R,1.524000X2.286000*%
%TD*%
%TA.AperFunction,SMDPad,CuDef*%
%ADD11O,1.524000X2.286000*%
%TD*%
%TA.AperFunction,SMDPad,CuDef*%
%ADD12R,2.200000X1.800000*%
%TD*%
%TA.AperFunction,SMDPad,CuDef*%
%ADD13R,1.300000X0.300000*%
%TD*%
%TA.AperFunction,Conductor*%
%ADD14C,0.250000*%
%TD*%
%TA.AperFunction,NonConductor*%
%ADD15C,0.254000*%
%TD*%
%TA.AperFunction,NonConductor*%
%ADD16C,0.100000*%
%TD*%
G04 APERTURE END LIST*
D10*
%TO.P,J1,1*%
%TO.N,N/C*%
X182190000Y-74250000D03*
D11*
%TO.P,J1,2*%
X184730000Y-74250000D03*
%TO.P,J1,3*%
X187270000Y-74250000D03*
%TO.P,J1,4*%
X189810000Y-74250000D03*
%TD*%
D12*
%TO.P,J2,MP*%
%TO.N,N/C*%
X209400000Y-90100000D03*
X209400000Y-96400000D03*
D13*
%TO.P,J2,1*%
X206650000Y-94250000D03*
%TO.P,J2,2*%
X206650000Y-93750000D03*
%TO.P,J2,3*%
X206650000Y-93250000D03*
%TO.P,J2,4*%
X206650000Y-92750000D03*
%TO.P,J2,5*%
X206650000Y-92250000D03*
%TD*%
%TO.P,J2,5*%
%TO.N,N/C*%
X184150000Y-92250000D03*
%TO.P,J2,4*%
X184150000Y-92750000D03*
%TO.P,J2,3*%
X184150000Y-93250000D03*
%TO.P,J2,2*%
X184150000Y-93750000D03*
%TO.P,J2,1*%
X184150000Y-94250000D03*
D12*
%TO.P,J2,MP*%
X186900000Y-96400000D03*
X186900000Y-90100000D03*
%TD*%
D11*
%TO.P,J1,4*%
%TO.N,N/C*%
X212310000Y-74250000D03*
%TO.P,J1,3*%
X209770000Y-74250000D03*
%TO.P,J1,2*%
X207230000Y-74250000D03*
D10*
%TO.P,J1,1*%
X204690000Y-74250000D03*
%TD*%
D13*
%TO.P,J2,5*%
%TO.N,N/C*%
X161650000Y-92250000D03*
%TO.P,J2,4*%
X161650000Y-92750000D03*
%TO.P,J2,3*%
X161650000Y-93250000D03*
%TO.P,J2,2*%
X161650000Y-93750000D03*
%TO.P,J2,1*%
X161650000Y-94250000D03*
D12*
%TO.P,J2,MP*%
X164400000Y-96400000D03*
X164400000Y-90100000D03*
%TD*%
D10*
%TO.P,J1,1*%
%TO.N,N/C*%
X159690000Y-74250000D03*
D11*
%TO.P,J1,2*%
X162230000Y-74250000D03*
%TO.P,J1,3*%
X164770000Y-74250000D03*
%TO.P,J1,4*%
X167310000Y-74250000D03*
%TD*%
D12*
%TO.P,J2,MP*%
%TO.N,N/C*%
X141900000Y-90100000D03*
X141900000Y-96400000D03*
D13*
%TO.P,J2,1*%
%TO.N,Net-(J1-Pad3)*%
X139150000Y-94250000D03*
%TO.P,J2,2*%
%TO.N,Net-(J1-Pad1)*%
X139150000Y-93750000D03*
%TO.P,J2,3*%
%TO.N,Net-(J2-Pad3)*%
X139150000Y-93250000D03*
%TO.P,J2,4*%
%TO.N,Net-(J1-Pad2)*%
X139150000Y-92750000D03*
%TO.P,J2,5*%
%TO.N,Net-(J1-Pad4)*%
X139150000Y-92250000D03*
%TD*%
D11*
%TO.P,J1,4*%
%TO.N,Net-(J1-Pad4)*%
X144810000Y-74250000D03*
%TO.P,J1,3*%
%TO.N,Net-(J1-Pad3)*%
X142270000Y-74250000D03*
%TO.P,J1,2*%
%TO.N,Net-(J1-Pad2)*%
X139730000Y-74250000D03*
D10*
%TO.P,J1,1*%
%TO.N,Net-(J1-Pad1)*%
X137190000Y-74250000D03*
%TD*%
D14*
%TO.N,*%
X161650000Y-92750000D02*
X160000000Y-92750000D01*
X157500000Y-82250000D02*
X157500000Y-73250000D01*
X159000000Y-90750000D02*
X159000000Y-85250000D01*
X157500000Y-73250000D02*
X158500000Y-72250000D01*
X160500000Y-92250000D02*
X161650000Y-92250000D01*
X161650000Y-94250000D02*
X159500000Y-94250000D01*
X164770000Y-73520000D02*
X164770000Y-74250000D01*
X167310000Y-76940000D02*
X167310000Y-74250000D01*
X159500000Y-94250000D02*
X156000000Y-90750000D01*
X162230000Y-80520000D02*
X162230000Y-74250000D01*
X158000000Y-84750000D02*
X162230000Y-80520000D01*
X156000000Y-83750000D02*
X157500000Y-82250000D01*
X159000000Y-85250000D02*
X167310000Y-76940000D01*
X167310000Y-74250000D02*
X167250000Y-74250000D01*
X160000000Y-92750000D02*
X158000000Y-90750000D01*
X159000000Y-90750000D02*
X160500000Y-92250000D01*
X156000000Y-83750000D02*
X156000000Y-90750000D01*
X158000000Y-84750000D02*
X158000000Y-90750000D01*
X158500000Y-72250000D02*
X163500000Y-72250000D01*
X163500000Y-72250000D02*
X164770000Y-73520000D01*
X161650000Y-93750000D02*
X160000000Y-93750000D01*
X160000000Y-93750000D02*
X157000000Y-90750000D01*
X157000000Y-90750000D02*
X157000000Y-84250000D01*
X157000000Y-84250000D02*
X159690000Y-81560000D01*
X159690000Y-81560000D02*
X159690000Y-74250000D01*
X206650000Y-92750000D02*
X205000000Y-92750000D01*
X202500000Y-82250000D02*
X202500000Y-73250000D01*
X204000000Y-90750000D02*
X204000000Y-85250000D01*
X202500000Y-73250000D02*
X203500000Y-72250000D01*
X205500000Y-92250000D02*
X206650000Y-92250000D01*
X206650000Y-94250000D02*
X204500000Y-94250000D01*
X209770000Y-73520000D02*
X209770000Y-74250000D01*
X212310000Y-76940000D02*
X212310000Y-74250000D01*
X204500000Y-94250000D02*
X201000000Y-90750000D01*
X207230000Y-80520000D02*
X207230000Y-74250000D01*
X203000000Y-84750000D02*
X207230000Y-80520000D01*
X201000000Y-83750000D02*
X202500000Y-82250000D01*
X204000000Y-85250000D02*
X212310000Y-76940000D01*
X212310000Y-74250000D02*
X212250000Y-74250000D01*
X205000000Y-92750000D02*
X203000000Y-90750000D01*
X204000000Y-90750000D02*
X205500000Y-92250000D01*
X201000000Y-83750000D02*
X201000000Y-90750000D01*
X203000000Y-84750000D02*
X203000000Y-90750000D01*
X203500000Y-72250000D02*
X208500000Y-72250000D01*
X208500000Y-72250000D02*
X209770000Y-73520000D01*
X206650000Y-93750000D02*
X205000000Y-93750000D01*
X205000000Y-93750000D02*
X202000000Y-90750000D01*
X202000000Y-90750000D02*
X202000000Y-84250000D01*
X202000000Y-84250000D02*
X204690000Y-81560000D01*
X204690000Y-81560000D02*
X204690000Y-74250000D01*
X179500000Y-90750000D02*
X179500000Y-84250000D01*
X184150000Y-93750000D02*
X182500000Y-93750000D01*
X182190000Y-81560000D02*
X182190000Y-74250000D01*
X179500000Y-84250000D02*
X182190000Y-81560000D01*
X182500000Y-93750000D02*
X179500000Y-90750000D01*
X184730000Y-80520000D02*
X184730000Y-74250000D01*
X180500000Y-84750000D02*
X184730000Y-80520000D01*
X182500000Y-92750000D02*
X180500000Y-90750000D01*
X184150000Y-92750000D02*
X182500000Y-92750000D01*
X180500000Y-84750000D02*
X180500000Y-90750000D01*
X186000000Y-72250000D02*
X187270000Y-73520000D01*
X180000000Y-73250000D02*
X181000000Y-72250000D01*
X180000000Y-82250000D02*
X180000000Y-73250000D01*
X187270000Y-73520000D02*
X187270000Y-74250000D01*
X181000000Y-72250000D02*
X186000000Y-72250000D01*
X184150000Y-94250000D02*
X182000000Y-94250000D01*
X182000000Y-94250000D02*
X178500000Y-90750000D01*
X178500000Y-83750000D02*
X180000000Y-82250000D01*
X178500000Y-83750000D02*
X178500000Y-90750000D01*
X189810000Y-74250000D02*
X189750000Y-74250000D01*
X189810000Y-76940000D02*
X189810000Y-74250000D01*
X181500000Y-85250000D02*
X189810000Y-76940000D01*
X183000000Y-92250000D02*
X184150000Y-92250000D01*
X181500000Y-90750000D02*
X183000000Y-92250000D01*
X181500000Y-90750000D02*
X181500000Y-85250000D01*
%TO.N,Net-(J1-Pad1)*%
X137500000Y-93750000D02*
X139150000Y-93750000D01*
X134500000Y-90750000D02*
X137500000Y-93750000D01*
X137190000Y-81560000D02*
X134500000Y-84250000D01*
X134500000Y-84250000D02*
X134500000Y-90750000D01*
X137190000Y-74250000D02*
X137190000Y-81560000D01*
%TO.N,Net-(J1-Pad2)*%
X139730000Y-80520000D02*
X139730000Y-74250000D01*
X135500000Y-84750000D02*
X139730000Y-80520000D01*
X137500000Y-92750000D02*
X135500000Y-90750000D01*
X139150000Y-92750000D02*
X137500000Y-92750000D01*
X135500000Y-84750000D02*
X135500000Y-90750000D01*
%TO.N,Net-(J1-Pad3)*%
X141000000Y-72250000D02*
X142270000Y-73520000D01*
X135000000Y-73250000D02*
X136000000Y-72250000D01*
X135000000Y-82250000D02*
X135000000Y-73250000D01*
X142270000Y-73520000D02*
X142270000Y-74250000D01*
X136000000Y-72250000D02*
X141000000Y-72250000D01*
X139150000Y-94250000D02*
X137000000Y-94250000D01*
X137000000Y-94250000D02*
X133500000Y-90750000D01*
X133500000Y-83750000D02*
X135000000Y-82250000D01*
X133500000Y-83750000D02*
X133500000Y-90750000D01*
%TO.N,Net-(J1-Pad4)*%
X144810000Y-74250000D02*
X144750000Y-74250000D01*
X136500000Y-90750000D02*
X138000000Y-92250000D01*
X138000000Y-92250000D02*
X139150000Y-92250000D01*
X136500000Y-90750000D02*
X136500000Y-85250000D01*
X136500000Y-85250000D02*
X144810000Y-76940000D01*
X144810000Y-76940000D02*
X144810000Y-74250000D01*
%TD*%
D15*
X150065424Y-71419580D02*
X150128356Y-71438580D01*
X150186405Y-71469445D01*
X150237343Y-71510989D01*
X150279248Y-71561644D01*
X150310515Y-71619471D01*
X150329956Y-71682272D01*
X150340000Y-71777835D01*
X150340001Y-101217572D01*
X150340000Y-101217582D01*
X150340000Y-101532419D01*
X150343296Y-101565884D01*
X150343296Y-101585349D01*
X150344259Y-101594514D01*
X150373000Y-101850741D01*
X150373000Y-108633573D01*
X150372680Y-108635079D01*
X150371717Y-108644244D01*
X150343150Y-108935596D01*
X150343150Y-108935608D01*
X150340001Y-108967581D01*
X150340000Y-128717721D01*
X150330420Y-128815424D01*
X150311420Y-128878357D01*
X150280554Y-128936406D01*
X150239011Y-128987343D01*
X150188356Y-129029248D01*
X150130870Y-129060331D01*
X144267042Y-125584344D01*
X146545000Y-125584344D01*
X146545000Y-125955656D01*
X146617439Y-126319834D01*
X146759534Y-126662882D01*
X146965825Y-126971618D01*
X147228382Y-127234175D01*
X147537118Y-127440466D01*
X147880166Y-127582561D01*
X148244344Y-127655000D01*
X148615656Y-127655000D01*
X148979834Y-127582561D01*
X149322882Y-127440466D01*
X149631618Y-127234175D01*
X149894175Y-126971618D01*
X150100466Y-126662882D01*
X150242561Y-126319834D01*
X150315000Y-125955656D01*
X150315000Y-125584344D01*
X150242561Y-125220166D01*
X150100466Y-124877118D01*
X149894175Y-124568382D01*
X149631618Y-124305825D01*
X149322882Y-124099534D01*
X148979834Y-123957439D01*
X148615656Y-123885000D01*
X148244344Y-123885000D01*
X147880166Y-123957439D01*
X147537118Y-124099534D01*
X147228382Y-124305825D01*
X146965825Y-124568382D01*
X146759534Y-124877118D01*
X146617439Y-125220166D01*
X146545000Y-125584344D01*
X144267042Y-125584344D01*
X132229252Y-118448529D01*
X132220096Y-118437382D01*
X132189030Y-118379446D01*
X132169810Y-118316578D01*
X132160000Y-118219999D01*
X132160000Y-117661888D01*
X132187439Y-117799834D01*
X132329534Y-118142882D01*
X132535825Y-118451618D01*
X132798382Y-118714175D01*
X133107118Y-118920466D01*
X133450166Y-119062561D01*
X133814344Y-119135000D01*
X134185656Y-119135000D01*
X134549834Y-119062561D01*
X134892882Y-118920466D01*
X135201618Y-118714175D01*
X135464175Y-118451618D01*
X135670466Y-118142882D01*
X135812561Y-117799834D01*
X135885000Y-117435656D01*
X135885000Y-117064344D01*
X135812561Y-116700166D01*
X135670466Y-116357118D01*
X135464175Y-116048382D01*
X135201618Y-115785825D01*
X134892882Y-115579534D01*
X134549834Y-115437439D01*
X134185656Y-115365000D01*
X133814344Y-115365000D01*
X133450166Y-115437439D01*
X133107118Y-115579534D01*
X132798382Y-115785825D01*
X132535825Y-116048382D01*
X132329534Y-116357118D01*
X132187439Y-116700166D01*
X132160000Y-116838112D01*
X132160000Y-108967581D01*
X132156704Y-108934116D01*
X132156704Y-108914651D01*
X132155741Y-108905486D01*
X132127000Y-108649258D01*
X132127000Y-101866426D01*
X132127320Y-101864921D01*
X132128283Y-101855756D01*
X132156850Y-101564404D01*
X132156850Y-101564402D01*
X132160000Y-101532419D01*
X132160000Y-95500000D01*
X140161928Y-95500000D01*
X140161928Y-97300000D01*
X140174188Y-97424482D01*
X140210498Y-97544180D01*
X140269463Y-97654494D01*
X140348815Y-97751185D01*
X140445506Y-97830537D01*
X140555820Y-97889502D01*
X140675518Y-97925812D01*
X140800000Y-97938072D01*
X143000000Y-97938072D01*
X143124482Y-97925812D01*
X143244180Y-97889502D01*
X143354494Y-97830537D01*
X143451185Y-97751185D01*
X143530537Y-97654494D01*
X143589502Y-97544180D01*
X143625812Y-97424482D01*
X143638072Y-97300000D01*
X143638072Y-95500000D01*
X143625812Y-95375518D01*
X143589502Y-95255820D01*
X143530537Y-95145506D01*
X143451185Y-95048815D01*
X143354494Y-94969463D01*
X143244180Y-94910498D01*
X143124482Y-94874188D01*
X143000000Y-94861928D01*
X140800000Y-94861928D01*
X140675518Y-94874188D01*
X140555820Y-94910498D01*
X140445506Y-94969463D01*
X140348815Y-95048815D01*
X140269463Y-95145506D01*
X140210498Y-95255820D01*
X140174188Y-95375518D01*
X140161928Y-95500000D01*
X132160000Y-95500000D01*
X132160000Y-83750000D01*
X132736324Y-83750000D01*
X132740000Y-83787323D01*
X132740001Y-90712668D01*
X132736324Y-90750000D01*
X132750998Y-90898985D01*
X132794454Y-91042246D01*
X132865026Y-91174276D01*
X132936201Y-91261002D01*
X132960000Y-91290001D01*
X132988998Y-91313799D01*
X136436205Y-94761008D01*
X136459999Y-94790001D01*
X136488992Y-94813795D01*
X136488996Y-94813799D01*
X136534552Y-94851185D01*
X136575724Y-94884974D01*
X136707753Y-94955546D01*
X136851014Y-94999003D01*
X136962667Y-95010000D01*
X136962676Y-95010000D01*
X136999999Y-95013676D01*
X137037322Y-95010000D01*
X138323393Y-95010000D01*
X138375518Y-95025812D01*
X138500000Y-95038072D01*
X139800000Y-95038072D01*
X139924482Y-95025812D01*
X140044180Y-94989502D01*
X140154494Y-94930537D01*
X140251185Y-94851185D01*
X140330537Y-94754494D01*
X140389502Y-94644180D01*
X140425812Y-94524482D01*
X140438072Y-94400000D01*
X140438072Y-94100000D01*
X140428223Y-94000000D01*
X140438072Y-93900000D01*
X140438072Y-93600000D01*
X140428223Y-93500000D01*
X140438072Y-93400000D01*
X140438072Y-93100000D01*
X140428223Y-93000000D01*
X140438072Y-92900000D01*
X140438072Y-92600000D01*
X140428223Y-92500000D01*
X140438072Y-92400000D01*
X140438072Y-92100000D01*
X140425812Y-91975518D01*
X140389502Y-91855820D01*
X140330537Y-91745506D01*
X140251185Y-91648815D01*
X140154494Y-91569463D01*
X140044180Y-91510498D01*
X139924482Y-91474188D01*
X139800000Y-91461928D01*
X138500000Y-91461928D01*
X138375518Y-91474188D01*
X138323393Y-91490000D01*
X138314802Y-91490000D01*
X137260000Y-90435199D01*
X137260000Y-89200000D01*
X140161928Y-89200000D01*
X140161928Y-91000000D01*
X140174188Y-91124482D01*
X140210498Y-91244180D01*
X140269463Y-91354494D01*
X140348815Y-91451185D01*
X140445506Y-91530537D01*
X140555820Y-91589502D01*
X140675518Y-91625812D01*
X140800000Y-91638072D01*
X143000000Y-91638072D01*
X143124482Y-91625812D01*
X143244180Y-91589502D01*
X143354494Y-91530537D01*
X143451185Y-91451185D01*
X143530537Y-91354494D01*
X143589502Y-91244180D01*
X143625812Y-91124482D01*
X143638072Y-91000000D01*
X143638072Y-89200000D01*
X143625812Y-89075518D01*
X143589502Y-88955820D01*
X143530537Y-88845506D01*
X143451185Y-88748815D01*
X143354494Y-88669463D01*
X143244180Y-88610498D01*
X143124482Y-88574188D01*
X143000000Y-88561928D01*
X140800000Y-88561928D01*
X140675518Y-88574188D01*
X140555820Y-88610498D01*
X140445506Y-88669463D01*
X140348815Y-88748815D01*
X140269463Y-88845506D01*
X140210498Y-88955820D01*
X140174188Y-89075518D01*
X140161928Y-89200000D01*
X137260000Y-89200000D01*
X137260000Y-85564801D01*
X145321004Y-77503798D01*
X145350001Y-77480001D01*
X145444974Y-77364276D01*
X145515546Y-77232247D01*
X145559003Y-77088986D01*
X145570000Y-76977333D01*
X145570000Y-76977325D01*
X145573676Y-76940000D01*
X145570000Y-76902675D01*
X145570000Y-75808813D01*
X145589887Y-75798183D01*
X145802608Y-75623608D01*
X145977183Y-75410887D01*
X146106904Y-75168195D01*
X146186786Y-74904859D01*
X146207000Y-74699624D01*
X146207000Y-73800375D01*
X146186786Y-73595140D01*
X146106904Y-73331805D01*
X145977183Y-73089113D01*
X145802607Y-72876392D01*
X145589886Y-72701817D01*
X145347194Y-72572096D01*
X145083859Y-72492214D01*
X144810000Y-72465241D01*
X144536140Y-72492214D01*
X144272805Y-72572096D01*
X144030113Y-72701817D01*
X143817392Y-72876393D01*
X143642817Y-73089114D01*
X143540000Y-73281471D01*
X143437183Y-73089113D01*
X143262607Y-72876392D01*
X143049886Y-72701817D01*
X142807194Y-72572096D01*
X142543859Y-72492214D01*
X142292232Y-72467431D01*
X141563804Y-71739003D01*
X141540001Y-71709999D01*
X141424276Y-71615026D01*
X141292247Y-71544454D01*
X141148986Y-71500997D01*
X141037333Y-71490000D01*
X141037322Y-71490000D01*
X141000000Y-71486324D01*
X140962678Y-71490000D01*
X136037333Y-71490000D01*
X136000000Y-71486323D01*
X135962667Y-71490000D01*
X135851014Y-71500997D01*
X135707753Y-71544454D01*
X135575724Y-71615026D01*
X135459999Y-71709999D01*
X135436201Y-71738997D01*
X134488998Y-72686201D01*
X134460000Y-72709999D01*
X134436202Y-72738997D01*
X134436201Y-72738998D01*
X134365026Y-72825724D01*
X134294454Y-72957754D01*
X134278606Y-73010000D01*
X134250998Y-73101014D01*
X134240001Y-73212667D01*
X134236324Y-73250000D01*
X134240001Y-73287332D01*
X134240000Y-81935198D01*
X132989003Y-83186196D01*
X132959999Y-83209999D01*
X132904871Y-83277174D01*
X132865026Y-83325724D01*
X132794455Y-83457753D01*
X132794454Y-83457754D01*
X132750997Y-83601015D01*
X132740000Y-83712668D01*
X132740000Y-83712678D01*
X132736324Y-83750000D01*
X132160000Y-83750000D01*
X132160000Y-71782279D01*
X132169580Y-71684576D01*
X132188580Y-71621644D01*
X132219445Y-71563595D01*
X132260989Y-71512657D01*
X132311644Y-71470752D01*
X132369471Y-71439485D01*
X132432272Y-71420044D01*
X132527835Y-71410000D01*
X149967721Y-71410000D01*
X150065424Y-71419580D01*
%TA.AperFunction,NonConductor*%
D16*
G36*
X150065424Y-71419580D02*
G01*
X150128356Y-71438580D01*
X150186405Y-71469445D01*
X150237343Y-71510989D01*
X150279248Y-71561644D01*
X150310515Y-71619471D01*
X150329956Y-71682272D01*
X150340000Y-71777835D01*
X150340001Y-101217572D01*
X150340000Y-101217582D01*
X150340000Y-101532419D01*
X150343296Y-101565884D01*
X150343296Y-101585349D01*
X150344259Y-101594514D01*
X150373000Y-101850741D01*
X150373000Y-108633573D01*
X150372680Y-108635079D01*
X150371717Y-108644244D01*
X150343150Y-108935596D01*
X150343150Y-108935608D01*
X150340001Y-108967581D01*
X150340000Y-128717721D01*
X150330420Y-128815424D01*
X150311420Y-128878357D01*
X150280554Y-128936406D01*
X150239011Y-128987343D01*
X150188356Y-129029248D01*
X150130870Y-129060331D01*
X144267042Y-125584344D01*
X146545000Y-125584344D01*
X146545000Y-125955656D01*
X146617439Y-126319834D01*
X146759534Y-126662882D01*
X146965825Y-126971618D01*
X147228382Y-127234175D01*
X147537118Y-127440466D01*
X147880166Y-127582561D01*
X148244344Y-127655000D01*
X148615656Y-127655000D01*
X148979834Y-127582561D01*
X149322882Y-127440466D01*
X149631618Y-127234175D01*
X149894175Y-126971618D01*
X150100466Y-126662882D01*
X150242561Y-126319834D01*
X150315000Y-125955656D01*
X150315000Y-125584344D01*
X150242561Y-125220166D01*
X150100466Y-124877118D01*
X149894175Y-124568382D01*
X149631618Y-124305825D01*
X149322882Y-124099534D01*
X148979834Y-123957439D01*
X148615656Y-123885000D01*
X148244344Y-123885000D01*
X147880166Y-123957439D01*
X147537118Y-124099534D01*
X147228382Y-124305825D01*
X146965825Y-124568382D01*
X146759534Y-124877118D01*
X146617439Y-125220166D01*
X146545000Y-125584344D01*
X144267042Y-125584344D01*
X132229252Y-118448529D01*
X132220096Y-118437382D01*
X132189030Y-118379446D01*
X132169810Y-118316578D01*
X132160000Y-118219999D01*
X132160000Y-117661888D01*
X132187439Y-117799834D01*
X132329534Y-118142882D01*
X132535825Y-118451618D01*
X132798382Y-118714175D01*
X133107118Y-118920466D01*
X133450166Y-119062561D01*
X133814344Y-119135000D01*
X134185656Y-119135000D01*
X134549834Y-119062561D01*
X134892882Y-118920466D01*
X135201618Y-118714175D01*
X135464175Y-118451618D01*
X135670466Y-118142882D01*
X135812561Y-117799834D01*
X135885000Y-117435656D01*
X135885000Y-117064344D01*
X135812561Y-116700166D01*
X135670466Y-116357118D01*
X135464175Y-116048382D01*
X135201618Y-115785825D01*
X134892882Y-115579534D01*
X134549834Y-115437439D01*
X134185656Y-115365000D01*
X133814344Y-115365000D01*
X133450166Y-115437439D01*
X133107118Y-115579534D01*
X132798382Y-115785825D01*
X132535825Y-116048382D01*
X132329534Y-116357118D01*
X132187439Y-116700166D01*
X132160000Y-116838112D01*
X132160000Y-108967581D01*
X132156704Y-108934116D01*
X132156704Y-108914651D01*
X132155741Y-108905486D01*
X132127000Y-108649258D01*
X132127000Y-101866426D01*
X132127320Y-101864921D01*
X132128283Y-101855756D01*
X132156850Y-101564404D01*
X132156850Y-101564402D01*
X132160000Y-101532419D01*
X132160000Y-95500000D01*
X140161928Y-95500000D01*
X140161928Y-97300000D01*
X140174188Y-97424482D01*
X140210498Y-97544180D01*
X140269463Y-97654494D01*
X140348815Y-97751185D01*
X140445506Y-97830537D01*
X140555820Y-97889502D01*
X140675518Y-97925812D01*
X140800000Y-97938072D01*
X143000000Y-97938072D01*
X143124482Y-97925812D01*
X143244180Y-97889502D01*
X143354494Y-97830537D01*
X143451185Y-97751185D01*
X143530537Y-97654494D01*
X143589502Y-97544180D01*
X143625812Y-97424482D01*
X143638072Y-97300000D01*
X143638072Y-95500000D01*
X143625812Y-95375518D01*
X143589502Y-95255820D01*
X143530537Y-95145506D01*
X143451185Y-95048815D01*
X143354494Y-94969463D01*
X143244180Y-94910498D01*
X143124482Y-94874188D01*
X143000000Y-94861928D01*
X140800000Y-94861928D01*
X140675518Y-94874188D01*
X140555820Y-94910498D01*
X140445506Y-94969463D01*
X140348815Y-95048815D01*
X140269463Y-95145506D01*
X140210498Y-95255820D01*
X140174188Y-95375518D01*
X140161928Y-95500000D01*
X132160000Y-95500000D01*
X132160000Y-83750000D01*
X132736324Y-83750000D01*
X132740000Y-83787323D01*
X132740001Y-90712668D01*
X132736324Y-90750000D01*
X132750998Y-90898985D01*
X132794454Y-91042246D01*
X132865026Y-91174276D01*
X132936201Y-91261002D01*
X132960000Y-91290001D01*
X132988998Y-91313799D01*
X136436205Y-94761008D01*
X136459999Y-94790001D01*
X136488992Y-94813795D01*
X136488996Y-94813799D01*
X136534552Y-94851185D01*
X136575724Y-94884974D01*
X136707753Y-94955546D01*
X136851014Y-94999003D01*
X136962667Y-95010000D01*
X136962676Y-95010000D01*
X136999999Y-95013676D01*
X137037322Y-95010000D01*
X138323393Y-95010000D01*
X138375518Y-95025812D01*
X138500000Y-95038072D01*
X139800000Y-95038072D01*
X139924482Y-95025812D01*
X140044180Y-94989502D01*
X140154494Y-94930537D01*
X140251185Y-94851185D01*
X140330537Y-94754494D01*
X140389502Y-94644180D01*
X140425812Y-94524482D01*
X140438072Y-94400000D01*
X140438072Y-94100000D01*
X140428223Y-94000000D01*
X140438072Y-93900000D01*
X140438072Y-93600000D01*
X140428223Y-93500000D01*
X140438072Y-93400000D01*
X140438072Y-93100000D01*
X140428223Y-93000000D01*
X140438072Y-92900000D01*
X140438072Y-92600000D01*
X140428223Y-92500000D01*
X140438072Y-92400000D01*
X140438072Y-92100000D01*
X140425812Y-91975518D01*
X140389502Y-91855820D01*
X140330537Y-91745506D01*
X140251185Y-91648815D01*
X140154494Y-91569463D01*
X140044180Y-91510498D01*
X139924482Y-91474188D01*
X139800000Y-91461928D01*
X138500000Y-91461928D01*
X138375518Y-91474188D01*
X138323393Y-91490000D01*
X138314802Y-91490000D01*
X137260000Y-90435199D01*
X137260000Y-89200000D01*
X140161928Y-89200000D01*
X140161928Y-91000000D01*
X140174188Y-91124482D01*
X140210498Y-91244180D01*
X140269463Y-91354494D01*
X140348815Y-91451185D01*
X140445506Y-91530537D01*
X140555820Y-91589502D01*
X140675518Y-91625812D01*
X140800000Y-91638072D01*
X143000000Y-91638072D01*
X143124482Y-91625812D01*
X143244180Y-91589502D01*
X143354494Y-91530537D01*
X143451185Y-91451185D01*
X143530537Y-91354494D01*
X143589502Y-91244180D01*
X143625812Y-91124482D01*
X143638072Y-91000000D01*
X143638072Y-89200000D01*
X143625812Y-89075518D01*
X143589502Y-88955820D01*
X143530537Y-88845506D01*
X143451185Y-88748815D01*
X143354494Y-88669463D01*
X143244180Y-88610498D01*
X143124482Y-88574188D01*
X143000000Y-88561928D01*
X140800000Y-88561928D01*
X140675518Y-88574188D01*
X140555820Y-88610498D01*
X140445506Y-88669463D01*
X140348815Y-88748815D01*
X140269463Y-88845506D01*
X140210498Y-88955820D01*
X140174188Y-89075518D01*
X140161928Y-89200000D01*
X137260000Y-89200000D01*
X137260000Y-85564801D01*
X145321004Y-77503798D01*
X145350001Y-77480001D01*
X145444974Y-77364276D01*
X145515546Y-77232247D01*
X145559003Y-77088986D01*
X145570000Y-76977333D01*
X145570000Y-76977325D01*
X145573676Y-76940000D01*
X145570000Y-76902675D01*
X145570000Y-75808813D01*
X145589887Y-75798183D01*
X145802608Y-75623608D01*
X145977183Y-75410887D01*
X146106904Y-75168195D01*
X146186786Y-74904859D01*
X146207000Y-74699624D01*
X146207000Y-73800375D01*
X146186786Y-73595140D01*
X146106904Y-73331805D01*
X145977183Y-73089113D01*
X145802607Y-72876392D01*
X145589886Y-72701817D01*
X145347194Y-72572096D01*
X145083859Y-72492214D01*
X144810000Y-72465241D01*
X144536140Y-72492214D01*
X144272805Y-72572096D01*
X144030113Y-72701817D01*
X143817392Y-72876393D01*
X143642817Y-73089114D01*
X143540000Y-73281471D01*
X143437183Y-73089113D01*
X143262607Y-72876392D01*
X143049886Y-72701817D01*
X142807194Y-72572096D01*
X142543859Y-72492214D01*
X142292232Y-72467431D01*
X141563804Y-71739003D01*
X141540001Y-71709999D01*
X141424276Y-71615026D01*
X141292247Y-71544454D01*
X141148986Y-71500997D01*
X141037333Y-71490000D01*
X141037322Y-71490000D01*
X141000000Y-71486324D01*
X140962678Y-71490000D01*
X136037333Y-71490000D01*
X136000000Y-71486323D01*
X135962667Y-71490000D01*
X135851014Y-71500997D01*
X135707753Y-71544454D01*
X135575724Y-71615026D01*
X135459999Y-71709999D01*
X135436201Y-71738997D01*
X134488998Y-72686201D01*
X134460000Y-72709999D01*
X134436202Y-72738997D01*
X134436201Y-72738998D01*
X134365026Y-72825724D01*
X134294454Y-72957754D01*
X134278606Y-73010000D01*
X134250998Y-73101014D01*
X134240001Y-73212667D01*
X134236324Y-73250000D01*
X134240001Y-73287332D01*
X134240000Y-81935198D01*
X132989003Y-83186196D01*
X132959999Y-83209999D01*
X132904871Y-83277174D01*
X132865026Y-83325724D01*
X132794455Y-83457753D01*
X132794454Y-83457754D01*
X132750997Y-83601015D01*
X132740000Y-83712668D01*
X132740000Y-83712678D01*
X132736324Y-83750000D01*
X132160000Y-83750000D01*
X132160000Y-71782279D01*
X132169580Y-71684576D01*
X132188580Y-71621644D01*
X132219445Y-71563595D01*
X132260989Y-71512657D01*
X132311644Y-71470752D01*
X132369471Y-71439485D01*
X132432272Y-71420044D01*
X132527835Y-71410000D01*
X149967721Y-71410000D01*
X150065424Y-71419580D01*
G37*
%TD.AperFunction*%
D15*
X135789928Y-75393000D02*
X135802188Y-75517482D01*
X135838498Y-75637180D01*
X135897463Y-75747494D01*
X135976815Y-75844185D01*
X136073506Y-75923537D01*
X136183820Y-75982502D01*
X136303518Y-76018812D01*
X136428000Y-76031072D01*
X136430000Y-76031072D01*
X136430001Y-81245196D01*
X135760000Y-81915198D01*
X135760000Y-73564801D01*
X135789928Y-73534873D01*
X135789928Y-75393000D01*
%TA.AperFunction,NonConductor*%
D16*
G36*
X135789928Y-75393000D02*
G01*
X135802188Y-75517482D01*
X135838498Y-75637180D01*
X135897463Y-75747494D01*
X135976815Y-75844185D01*
X136073506Y-75923537D01*
X136183820Y-75982502D01*
X136303518Y-76018812D01*
X136428000Y-76031072D01*
X136430000Y-76031072D01*
X136430001Y-81245196D01*
X135760000Y-81915198D01*
X135760000Y-73564801D01*
X135789928Y-73534873D01*
X135789928Y-75393000D01*
G37*
%TD.AperFunction*%
D15*
X138737393Y-75623608D02*
X138950114Y-75798183D01*
X138970001Y-75808813D01*
X138970000Y-80205198D01*
X137950000Y-81225198D01*
X137950000Y-76031072D01*
X137952000Y-76031072D01*
X138076482Y-76018812D01*
X138196180Y-75982502D01*
X138306494Y-75923537D01*
X138403185Y-75844185D01*
X138482537Y-75747494D01*
X138541502Y-75637180D01*
X138577812Y-75517482D01*
X138585579Y-75438622D01*
X138737393Y-75623608D01*
%TA.AperFunction,NonConductor*%
D16*
G36*
X138737393Y-75623608D02*
G01*
X138950114Y-75798183D01*
X138970001Y-75808813D01*
X138970000Y-80205198D01*
X137950000Y-81225198D01*
X137950000Y-76031072D01*
X137952000Y-76031072D01*
X138076482Y-76018812D01*
X138196180Y-75982502D01*
X138306494Y-75923537D01*
X138403185Y-75844185D01*
X138482537Y-75747494D01*
X138541502Y-75637180D01*
X138577812Y-75517482D01*
X138585579Y-75438622D01*
X138737393Y-75623608D01*
G37*
%TD.AperFunction*%
D15*
X143642817Y-75410887D02*
X143817393Y-75623608D01*
X144030114Y-75798183D01*
X144050000Y-75808812D01*
X144050000Y-76625198D01*
X140490000Y-80185198D01*
X140490000Y-75808813D01*
X140509887Y-75798183D01*
X140722608Y-75623608D01*
X140897183Y-75410887D01*
X141000000Y-75218529D01*
X141102817Y-75410887D01*
X141277393Y-75623608D01*
X141490114Y-75798183D01*
X141732806Y-75927904D01*
X141996141Y-76007786D01*
X142270000Y-76034759D01*
X142543860Y-76007786D01*
X142807195Y-75927904D01*
X143049887Y-75798183D01*
X143262608Y-75623608D01*
X143437183Y-75410887D01*
X143540000Y-75218529D01*
X143642817Y-75410887D01*
%TA.AperFunction,NonConductor*%
D16*
G36*
X143642817Y-75410887D02*
G01*
X143817393Y-75623608D01*
X144030114Y-75798183D01*
X144050000Y-75808812D01*
X144050000Y-76625198D01*
X140490000Y-80185198D01*
X140490000Y-75808813D01*
X140509887Y-75798183D01*
X140722608Y-75623608D01*
X140897183Y-75410887D01*
X141000000Y-75218529D01*
X141102817Y-75410887D01*
X141277393Y-75623608D01*
X141490114Y-75798183D01*
X141732806Y-75927904D01*
X141996141Y-76007786D01*
X142270000Y-76034759D01*
X142543860Y-76007786D01*
X142807195Y-75927904D01*
X143049887Y-75798183D01*
X143262608Y-75623608D01*
X143437183Y-75410887D01*
X143540000Y-75218529D01*
X143642817Y-75410887D01*
G37*
%TD.AperFunction*%
D15*
X138585579Y-73061379D02*
X138580519Y-73010000D01*
X138627744Y-73010000D01*
X138585579Y-73061379D01*
%TA.AperFunction,NonConductor*%
D16*
G36*
X138585579Y-73061379D02*
G01*
X138580519Y-73010000D01*
X138627744Y-73010000D01*
X138585579Y-73061379D01*
G37*
%TD.AperFunction*%
D15*
X172565424Y-71419580D02*
X172628356Y-71438580D01*
X172686405Y-71469445D01*
X172737343Y-71510989D01*
X172779248Y-71561644D01*
X172810515Y-71619471D01*
X172829956Y-71682272D01*
X172840000Y-71777835D01*
X172840001Y-101532419D01*
X172843296Y-101565874D01*
X172843296Y-101585349D01*
X172844259Y-101594514D01*
X172873000Y-101850741D01*
X172873000Y-108633573D01*
X172872680Y-108635079D01*
X172871717Y-108644244D01*
X172843150Y-108935596D01*
X172843150Y-108935608D01*
X172840001Y-108967581D01*
X172840000Y-116838113D01*
X172812561Y-116700166D01*
X172670466Y-116357118D01*
X172464175Y-116048382D01*
X172201618Y-115785825D01*
X171892882Y-115579534D01*
X171549834Y-115437439D01*
X171185656Y-115365000D01*
X170814344Y-115365000D01*
X170450166Y-115437439D01*
X170107118Y-115579534D01*
X169798382Y-115785825D01*
X169535825Y-116048382D01*
X169329534Y-116357118D01*
X169187439Y-116700166D01*
X169115000Y-117064344D01*
X169115000Y-117435656D01*
X169187439Y-117799834D01*
X169329534Y-118142882D01*
X169535825Y-118451618D01*
X169798382Y-118714175D01*
X170107118Y-118920466D01*
X170450166Y-119062561D01*
X170814344Y-119135000D01*
X171185656Y-119135000D01*
X171549834Y-119062561D01*
X171892882Y-118920466D01*
X172201618Y-118714175D01*
X172464175Y-118451618D01*
X172670466Y-118142882D01*
X172812561Y-117799834D01*
X172840000Y-117661888D01*
X172840000Y-118217721D01*
X172830420Y-118315424D01*
X172811420Y-118378357D01*
X172780554Y-118436406D01*
X172770592Y-118448621D01*
X154869351Y-129060201D01*
X154813594Y-129030554D01*
X154762657Y-128989011D01*
X154720752Y-128938356D01*
X154689485Y-128880529D01*
X154670044Y-128817728D01*
X154660000Y-128722165D01*
X154660000Y-125584344D01*
X154685000Y-125584344D01*
X154685000Y-125955656D01*
X154757439Y-126319834D01*
X154899534Y-126662882D01*
X155105825Y-126971618D01*
X155368382Y-127234175D01*
X155677118Y-127440466D01*
X156020166Y-127582561D01*
X156384344Y-127655000D01*
X156755656Y-127655000D01*
X157119834Y-127582561D01*
X157462882Y-127440466D01*
X157771618Y-127234175D01*
X158034175Y-126971618D01*
X158240466Y-126662882D01*
X158382561Y-126319834D01*
X158455000Y-125955656D01*
X158455000Y-125584344D01*
X158382561Y-125220166D01*
X158240466Y-124877118D01*
X158034175Y-124568382D01*
X157771618Y-124305825D01*
X157462882Y-124099534D01*
X157119834Y-123957439D01*
X156755656Y-123885000D01*
X156384344Y-123885000D01*
X156020166Y-123957439D01*
X155677118Y-124099534D01*
X155368382Y-124305825D01*
X155105825Y-124568382D01*
X154899534Y-124877118D01*
X154757439Y-125220166D01*
X154685000Y-125584344D01*
X154660000Y-125584344D01*
X154660000Y-108967581D01*
X154656704Y-108934116D01*
X154656704Y-108914651D01*
X154655741Y-108905486D01*
X154627000Y-108649258D01*
X154627000Y-101866426D01*
X154627320Y-101864921D01*
X154628283Y-101855756D01*
X154656850Y-101564404D01*
X154656850Y-101564402D01*
X154660000Y-101532419D01*
X154660000Y-95500000D01*
X162661928Y-95500000D01*
X162661928Y-97300000D01*
X162674188Y-97424482D01*
X162710498Y-97544180D01*
X162769463Y-97654494D01*
X162848815Y-97751185D01*
X162945506Y-97830537D01*
X163055820Y-97889502D01*
X163175518Y-97925812D01*
X163300000Y-97938072D01*
X165500000Y-97938072D01*
X165624482Y-97925812D01*
X165744180Y-97889502D01*
X165854494Y-97830537D01*
X165951185Y-97751185D01*
X166030537Y-97654494D01*
X166089502Y-97544180D01*
X166125812Y-97424482D01*
X166138072Y-97300000D01*
X166138072Y-95500000D01*
X166125812Y-95375518D01*
X166089502Y-95255820D01*
X166030537Y-95145506D01*
X165951185Y-95048815D01*
X165854494Y-94969463D01*
X165744180Y-94910498D01*
X165624482Y-94874188D01*
X165500000Y-94861928D01*
X163300000Y-94861928D01*
X163175518Y-94874188D01*
X163055820Y-94910498D01*
X162945506Y-94969463D01*
X162848815Y-95048815D01*
X162769463Y-95145506D01*
X162710498Y-95255820D01*
X162674188Y-95375518D01*
X162661928Y-95500000D01*
X154660000Y-95500000D01*
X154660000Y-83750000D01*
X155236324Y-83750000D01*
X155240000Y-83787323D01*
X155240001Y-90712668D01*
X155236324Y-90750000D01*
X155250998Y-90898985D01*
X155294454Y-91042246D01*
X155365026Y-91174276D01*
X155436201Y-91261002D01*
X155460000Y-91290001D01*
X155488998Y-91313799D01*
X158936205Y-94761008D01*
X158959999Y-94790001D01*
X158988992Y-94813795D01*
X158988996Y-94813799D01*
X159034552Y-94851185D01*
X159075724Y-94884974D01*
X159207753Y-94955546D01*
X159351014Y-94999003D01*
X159462667Y-95010000D01*
X159462676Y-95010000D01*
X159499999Y-95013676D01*
X159537322Y-95010000D01*
X160823393Y-95010000D01*
X160875518Y-95025812D01*
X161000000Y-95038072D01*
X162300000Y-95038072D01*
X162424482Y-95025812D01*
X162544180Y-94989502D01*
X162654494Y-94930537D01*
X162751185Y-94851185D01*
X162830537Y-94754494D01*
X162889502Y-94644180D01*
X162925812Y-94524482D01*
X162938072Y-94400000D01*
X162938072Y-94100000D01*
X162928223Y-94000000D01*
X162938072Y-93900000D01*
X162938072Y-93600000D01*
X162928223Y-93500000D01*
X162938072Y-93400000D01*
X162938072Y-93100000D01*
X162928223Y-93000000D01*
X162938072Y-92900000D01*
X162938072Y-92600000D01*
X162928223Y-92500000D01*
X162938072Y-92400000D01*
X162938072Y-92100000D01*
X162925812Y-91975518D01*
X162889502Y-91855820D01*
X162830537Y-91745506D01*
X162751185Y-91648815D01*
X162654494Y-91569463D01*
X162544180Y-91510498D01*
X162424482Y-91474188D01*
X162300000Y-91461928D01*
X161000000Y-91461928D01*
X160875518Y-91474188D01*
X160823393Y-91490000D01*
X160814802Y-91490000D01*
X159760000Y-90435199D01*
X159760000Y-89200000D01*
X162661928Y-89200000D01*
X162661928Y-91000000D01*
X162674188Y-91124482D01*
X162710498Y-91244180D01*
X162769463Y-91354494D01*
X162848815Y-91451185D01*
X162945506Y-91530537D01*
X163055820Y-91589502D01*
X163175518Y-91625812D01*
X163300000Y-91638072D01*
X165500000Y-91638072D01*
X165624482Y-91625812D01*
X165744180Y-91589502D01*
X165854494Y-91530537D01*
X165951185Y-91451185D01*
X166030537Y-91354494D01*
X166089502Y-91244180D01*
X166125812Y-91124482D01*
X166138072Y-91000000D01*
X166138072Y-89200000D01*
X166125812Y-89075518D01*
X166089502Y-88955820D01*
X166030537Y-88845506D01*
X165951185Y-88748815D01*
X165854494Y-88669463D01*
X165744180Y-88610498D01*
X165624482Y-88574188D01*
X165500000Y-88561928D01*
X163300000Y-88561928D01*
X163175518Y-88574188D01*
X163055820Y-88610498D01*
X162945506Y-88669463D01*
X162848815Y-88748815D01*
X162769463Y-88845506D01*
X162710498Y-88955820D01*
X162674188Y-89075518D01*
X162661928Y-89200000D01*
X159760000Y-89200000D01*
X159760000Y-85564801D01*
X167821004Y-77503798D01*
X167850001Y-77480001D01*
X167944974Y-77364276D01*
X168015546Y-77232247D01*
X168059003Y-77088986D01*
X168070000Y-76977333D01*
X168070000Y-76977325D01*
X168073676Y-76940000D01*
X168070000Y-76902675D01*
X168070000Y-75808813D01*
X168089887Y-75798183D01*
X168302608Y-75623608D01*
X168477183Y-75410887D01*
X168606904Y-75168195D01*
X168686786Y-74904859D01*
X168707000Y-74699624D01*
X168707000Y-73800375D01*
X168686786Y-73595140D01*
X168606904Y-73331805D01*
X168477183Y-73089113D01*
X168302607Y-72876392D01*
X168089886Y-72701817D01*
X167847194Y-72572096D01*
X167583859Y-72492214D01*
X167310000Y-72465241D01*
X167036140Y-72492214D01*
X166772805Y-72572096D01*
X166530113Y-72701817D01*
X166317392Y-72876393D01*
X166142817Y-73089114D01*
X166040000Y-73281471D01*
X165937183Y-73089113D01*
X165762607Y-72876392D01*
X165549886Y-72701817D01*
X165307194Y-72572096D01*
X165043859Y-72492214D01*
X164792232Y-72467431D01*
X164063804Y-71739003D01*
X164040001Y-71709999D01*
X163924276Y-71615026D01*
X163792247Y-71544454D01*
X163648986Y-71500997D01*
X163537333Y-71490000D01*
X163537322Y-71490000D01*
X163500000Y-71486324D01*
X163462678Y-71490000D01*
X158537333Y-71490000D01*
X158500000Y-71486323D01*
X158462667Y-71490000D01*
X158351014Y-71500997D01*
X158207753Y-71544454D01*
X158075724Y-71615026D01*
X157959999Y-71709999D01*
X157936201Y-71738997D01*
X156988998Y-72686201D01*
X156960000Y-72709999D01*
X156936202Y-72738997D01*
X156936201Y-72738998D01*
X156865026Y-72825724D01*
X156794454Y-72957754D01*
X156778606Y-73010000D01*
X156750998Y-73101014D01*
X156740001Y-73212667D01*
X156736324Y-73250000D01*
X156740001Y-73287332D01*
X156740000Y-81935198D01*
X155489003Y-83186196D01*
X155459999Y-83209999D01*
X155404871Y-83277174D01*
X155365026Y-83325724D01*
X155294455Y-83457753D01*
X155294454Y-83457754D01*
X155250997Y-83601015D01*
X155240000Y-83712668D01*
X155240000Y-83712678D01*
X155236324Y-83750000D01*
X154660000Y-83750000D01*
X154660000Y-71782279D01*
X154669580Y-71684576D01*
X154688580Y-71621644D01*
X154719445Y-71563595D01*
X154760989Y-71512657D01*
X154811644Y-71470752D01*
X154869471Y-71439485D01*
X154932272Y-71420044D01*
X155027835Y-71410000D01*
X172467721Y-71410000D01*
X172565424Y-71419580D01*
%TA.AperFunction,NonConductor*%
D16*
G36*
X172565424Y-71419580D02*
G01*
X172628356Y-71438580D01*
X172686405Y-71469445D01*
X172737343Y-71510989D01*
X172779248Y-71561644D01*
X172810515Y-71619471D01*
X172829956Y-71682272D01*
X172840000Y-71777835D01*
X172840001Y-101532419D01*
X172843296Y-101565874D01*
X172843296Y-101585349D01*
X172844259Y-101594514D01*
X172873000Y-101850741D01*
X172873000Y-108633573D01*
X172872680Y-108635079D01*
X172871717Y-108644244D01*
X172843150Y-108935596D01*
X172843150Y-108935608D01*
X172840001Y-108967581D01*
X172840000Y-116838113D01*
X172812561Y-116700166D01*
X172670466Y-116357118D01*
X172464175Y-116048382D01*
X172201618Y-115785825D01*
X171892882Y-115579534D01*
X171549834Y-115437439D01*
X171185656Y-115365000D01*
X170814344Y-115365000D01*
X170450166Y-115437439D01*
X170107118Y-115579534D01*
X169798382Y-115785825D01*
X169535825Y-116048382D01*
X169329534Y-116357118D01*
X169187439Y-116700166D01*
X169115000Y-117064344D01*
X169115000Y-117435656D01*
X169187439Y-117799834D01*
X169329534Y-118142882D01*
X169535825Y-118451618D01*
X169798382Y-118714175D01*
X170107118Y-118920466D01*
X170450166Y-119062561D01*
X170814344Y-119135000D01*
X171185656Y-119135000D01*
X171549834Y-119062561D01*
X171892882Y-118920466D01*
X172201618Y-118714175D01*
X172464175Y-118451618D01*
X172670466Y-118142882D01*
X172812561Y-117799834D01*
X172840000Y-117661888D01*
X172840000Y-118217721D01*
X172830420Y-118315424D01*
X172811420Y-118378357D01*
X172780554Y-118436406D01*
X172770592Y-118448621D01*
X154869351Y-129060201D01*
X154813594Y-129030554D01*
X154762657Y-128989011D01*
X154720752Y-128938356D01*
X154689485Y-128880529D01*
X154670044Y-128817728D01*
X154660000Y-128722165D01*
X154660000Y-125584344D01*
X154685000Y-125584344D01*
X154685000Y-125955656D01*
X154757439Y-126319834D01*
X154899534Y-126662882D01*
X155105825Y-126971618D01*
X155368382Y-127234175D01*
X155677118Y-127440466D01*
X156020166Y-127582561D01*
X156384344Y-127655000D01*
X156755656Y-127655000D01*
X157119834Y-127582561D01*
X157462882Y-127440466D01*
X157771618Y-127234175D01*
X158034175Y-126971618D01*
X158240466Y-126662882D01*
X158382561Y-126319834D01*
X158455000Y-125955656D01*
X158455000Y-125584344D01*
X158382561Y-125220166D01*
X158240466Y-124877118D01*
X158034175Y-124568382D01*
X157771618Y-124305825D01*
X157462882Y-124099534D01*
X157119834Y-123957439D01*
X156755656Y-123885000D01*
X156384344Y-123885000D01*
X156020166Y-123957439D01*
X155677118Y-124099534D01*
X155368382Y-124305825D01*
X155105825Y-124568382D01*
X154899534Y-124877118D01*
X154757439Y-125220166D01*
X154685000Y-125584344D01*
X154660000Y-125584344D01*
X154660000Y-108967581D01*
X154656704Y-108934116D01*
X154656704Y-108914651D01*
X154655741Y-108905486D01*
X154627000Y-108649258D01*
X154627000Y-101866426D01*
X154627320Y-101864921D01*
X154628283Y-101855756D01*
X154656850Y-101564404D01*
X154656850Y-101564402D01*
X154660000Y-101532419D01*
X154660000Y-95500000D01*
X162661928Y-95500000D01*
X162661928Y-97300000D01*
X162674188Y-97424482D01*
X162710498Y-97544180D01*
X162769463Y-97654494D01*
X162848815Y-97751185D01*
X162945506Y-97830537D01*
X163055820Y-97889502D01*
X163175518Y-97925812D01*
X163300000Y-97938072D01*
X165500000Y-97938072D01*
X165624482Y-97925812D01*
X165744180Y-97889502D01*
X165854494Y-97830537D01*
X165951185Y-97751185D01*
X166030537Y-97654494D01*
X166089502Y-97544180D01*
X166125812Y-97424482D01*
X166138072Y-97300000D01*
X166138072Y-95500000D01*
X166125812Y-95375518D01*
X166089502Y-95255820D01*
X166030537Y-95145506D01*
X165951185Y-95048815D01*
X165854494Y-94969463D01*
X165744180Y-94910498D01*
X165624482Y-94874188D01*
X165500000Y-94861928D01*
X163300000Y-94861928D01*
X163175518Y-94874188D01*
X163055820Y-94910498D01*
X162945506Y-94969463D01*
X162848815Y-95048815D01*
X162769463Y-95145506D01*
X162710498Y-95255820D01*
X162674188Y-95375518D01*
X162661928Y-95500000D01*
X154660000Y-95500000D01*
X154660000Y-83750000D01*
X155236324Y-83750000D01*
X155240000Y-83787323D01*
X155240001Y-90712668D01*
X155236324Y-90750000D01*
X155250998Y-90898985D01*
X155294454Y-91042246D01*
X155365026Y-91174276D01*
X155436201Y-91261002D01*
X155460000Y-91290001D01*
X155488998Y-91313799D01*
X158936205Y-94761008D01*
X158959999Y-94790001D01*
X158988992Y-94813795D01*
X158988996Y-94813799D01*
X159034552Y-94851185D01*
X159075724Y-94884974D01*
X159207753Y-94955546D01*
X159351014Y-94999003D01*
X159462667Y-95010000D01*
X159462676Y-95010000D01*
X159499999Y-95013676D01*
X159537322Y-95010000D01*
X160823393Y-95010000D01*
X160875518Y-95025812D01*
X161000000Y-95038072D01*
X162300000Y-95038072D01*
X162424482Y-95025812D01*
X162544180Y-94989502D01*
X162654494Y-94930537D01*
X162751185Y-94851185D01*
X162830537Y-94754494D01*
X162889502Y-94644180D01*
X162925812Y-94524482D01*
X162938072Y-94400000D01*
X162938072Y-94100000D01*
X162928223Y-94000000D01*
X162938072Y-93900000D01*
X162938072Y-93600000D01*
X162928223Y-93500000D01*
X162938072Y-93400000D01*
X162938072Y-93100000D01*
X162928223Y-93000000D01*
X162938072Y-92900000D01*
X162938072Y-92600000D01*
X162928223Y-92500000D01*
X162938072Y-92400000D01*
X162938072Y-92100000D01*
X162925812Y-91975518D01*
X162889502Y-91855820D01*
X162830537Y-91745506D01*
X162751185Y-91648815D01*
X162654494Y-91569463D01*
X162544180Y-91510498D01*
X162424482Y-91474188D01*
X162300000Y-91461928D01*
X161000000Y-91461928D01*
X160875518Y-91474188D01*
X160823393Y-91490000D01*
X160814802Y-91490000D01*
X159760000Y-90435199D01*
X159760000Y-89200000D01*
X162661928Y-89200000D01*
X162661928Y-91000000D01*
X162674188Y-91124482D01*
X162710498Y-91244180D01*
X162769463Y-91354494D01*
X162848815Y-91451185D01*
X162945506Y-91530537D01*
X163055820Y-91589502D01*
X163175518Y-91625812D01*
X163300000Y-91638072D01*
X165500000Y-91638072D01*
X165624482Y-91625812D01*
X165744180Y-91589502D01*
X165854494Y-91530537D01*
X165951185Y-91451185D01*
X166030537Y-91354494D01*
X166089502Y-91244180D01*
X166125812Y-91124482D01*
X166138072Y-91000000D01*
X166138072Y-89200000D01*
X166125812Y-89075518D01*
X166089502Y-88955820D01*
X166030537Y-88845506D01*
X165951185Y-88748815D01*
X165854494Y-88669463D01*
X165744180Y-88610498D01*
X165624482Y-88574188D01*
X165500000Y-88561928D01*
X163300000Y-88561928D01*
X163175518Y-88574188D01*
X163055820Y-88610498D01*
X162945506Y-88669463D01*
X162848815Y-88748815D01*
X162769463Y-88845506D01*
X162710498Y-88955820D01*
X162674188Y-89075518D01*
X162661928Y-89200000D01*
X159760000Y-89200000D01*
X159760000Y-85564801D01*
X167821004Y-77503798D01*
X167850001Y-77480001D01*
X167944974Y-77364276D01*
X168015546Y-77232247D01*
X168059003Y-77088986D01*
X168070000Y-76977333D01*
X168070000Y-76977325D01*
X168073676Y-76940000D01*
X168070000Y-76902675D01*
X168070000Y-75808813D01*
X168089887Y-75798183D01*
X168302608Y-75623608D01*
X168477183Y-75410887D01*
X168606904Y-75168195D01*
X168686786Y-74904859D01*
X168707000Y-74699624D01*
X168707000Y-73800375D01*
X168686786Y-73595140D01*
X168606904Y-73331805D01*
X168477183Y-73089113D01*
X168302607Y-72876392D01*
X168089886Y-72701817D01*
X167847194Y-72572096D01*
X167583859Y-72492214D01*
X167310000Y-72465241D01*
X167036140Y-72492214D01*
X166772805Y-72572096D01*
X166530113Y-72701817D01*
X166317392Y-72876393D01*
X166142817Y-73089114D01*
X166040000Y-73281471D01*
X165937183Y-73089113D01*
X165762607Y-72876392D01*
X165549886Y-72701817D01*
X165307194Y-72572096D01*
X165043859Y-72492214D01*
X164792232Y-72467431D01*
X164063804Y-71739003D01*
X164040001Y-71709999D01*
X163924276Y-71615026D01*
X163792247Y-71544454D01*
X163648986Y-71500997D01*
X163537333Y-71490000D01*
X163537322Y-71490000D01*
X163500000Y-71486324D01*
X163462678Y-71490000D01*
X158537333Y-71490000D01*
X158500000Y-71486323D01*
X158462667Y-71490000D01*
X158351014Y-71500997D01*
X158207753Y-71544454D01*
X158075724Y-71615026D01*
X157959999Y-71709999D01*
X157936201Y-71738997D01*
X156988998Y-72686201D01*
X156960000Y-72709999D01*
X156936202Y-72738997D01*
X156936201Y-72738998D01*
X156865026Y-72825724D01*
X156794454Y-72957754D01*
X156778606Y-73010000D01*
X156750998Y-73101014D01*
X156740001Y-73212667D01*
X156736324Y-73250000D01*
X156740001Y-73287332D01*
X156740000Y-81935198D01*
X155489003Y-83186196D01*
X155459999Y-83209999D01*
X155404871Y-83277174D01*
X155365026Y-83325724D01*
X155294455Y-83457753D01*
X155294454Y-83457754D01*
X155250997Y-83601015D01*
X155240000Y-83712668D01*
X155240000Y-83712678D01*
X155236324Y-83750000D01*
X154660000Y-83750000D01*
X154660000Y-71782279D01*
X154669580Y-71684576D01*
X154688580Y-71621644D01*
X154719445Y-71563595D01*
X154760989Y-71512657D01*
X154811644Y-71470752D01*
X154869471Y-71439485D01*
X154932272Y-71420044D01*
X155027835Y-71410000D01*
X172467721Y-71410000D01*
X172565424Y-71419580D01*
G37*
%TD.AperFunction*%
D15*
X158289928Y-75393000D02*
X158302188Y-75517482D01*
X158338498Y-75637180D01*
X158397463Y-75747494D01*
X158476815Y-75844185D01*
X158573506Y-75923537D01*
X158683820Y-75982502D01*
X158803518Y-76018812D01*
X158928000Y-76031072D01*
X158930001Y-76031072D01*
X158930000Y-81245197D01*
X158260000Y-81915198D01*
X158260000Y-73564801D01*
X158289928Y-73534873D01*
X158289928Y-75393000D01*
%TA.AperFunction,NonConductor*%
D16*
G36*
X158289928Y-75393000D02*
G01*
X158302188Y-75517482D01*
X158338498Y-75637180D01*
X158397463Y-75747494D01*
X158476815Y-75844185D01*
X158573506Y-75923537D01*
X158683820Y-75982502D01*
X158803518Y-76018812D01*
X158928000Y-76031072D01*
X158930001Y-76031072D01*
X158930000Y-81245197D01*
X158260000Y-81915198D01*
X158260000Y-73564801D01*
X158289928Y-73534873D01*
X158289928Y-75393000D01*
G37*
%TD.AperFunction*%
D15*
X161237393Y-75623608D02*
X161450114Y-75798183D01*
X161470001Y-75808813D01*
X161470000Y-80205198D01*
X160450000Y-81225198D01*
X160450000Y-76031072D01*
X160452000Y-76031072D01*
X160576482Y-76018812D01*
X160696180Y-75982502D01*
X160806494Y-75923537D01*
X160903185Y-75844185D01*
X160982537Y-75747494D01*
X161041502Y-75637180D01*
X161077812Y-75517482D01*
X161085579Y-75438622D01*
X161237393Y-75623608D01*
%TA.AperFunction,NonConductor*%
D16*
G36*
X161237393Y-75623608D02*
G01*
X161450114Y-75798183D01*
X161470001Y-75808813D01*
X161470000Y-80205198D01*
X160450000Y-81225198D01*
X160450000Y-76031072D01*
X160452000Y-76031072D01*
X160576482Y-76018812D01*
X160696180Y-75982502D01*
X160806494Y-75923537D01*
X160903185Y-75844185D01*
X160982537Y-75747494D01*
X161041502Y-75637180D01*
X161077812Y-75517482D01*
X161085579Y-75438622D01*
X161237393Y-75623608D01*
G37*
%TD.AperFunction*%
D15*
X166142817Y-75410887D02*
X166317393Y-75623608D01*
X166530114Y-75798183D01*
X166550000Y-75808812D01*
X166550000Y-76625198D01*
X162990000Y-80185198D01*
X162990000Y-75808813D01*
X163009887Y-75798183D01*
X163222608Y-75623608D01*
X163397183Y-75410887D01*
X163500000Y-75218529D01*
X163602817Y-75410887D01*
X163777393Y-75623608D01*
X163990114Y-75798183D01*
X164232806Y-75927904D01*
X164496141Y-76007786D01*
X164770000Y-76034759D01*
X165043860Y-76007786D01*
X165307195Y-75927904D01*
X165549887Y-75798183D01*
X165762608Y-75623608D01*
X165937183Y-75410887D01*
X166040000Y-75218529D01*
X166142817Y-75410887D01*
%TA.AperFunction,NonConductor*%
D16*
G36*
X166142817Y-75410887D02*
G01*
X166317393Y-75623608D01*
X166530114Y-75798183D01*
X166550000Y-75808812D01*
X166550000Y-76625198D01*
X162990000Y-80185198D01*
X162990000Y-75808813D01*
X163009887Y-75798183D01*
X163222608Y-75623608D01*
X163397183Y-75410887D01*
X163500000Y-75218529D01*
X163602817Y-75410887D01*
X163777393Y-75623608D01*
X163990114Y-75798183D01*
X164232806Y-75927904D01*
X164496141Y-76007786D01*
X164770000Y-76034759D01*
X165043860Y-76007786D01*
X165307195Y-75927904D01*
X165549887Y-75798183D01*
X165762608Y-75623608D01*
X165937183Y-75410887D01*
X166040000Y-75218529D01*
X166142817Y-75410887D01*
G37*
%TD.AperFunction*%
D15*
X161085579Y-73061379D02*
X161080519Y-73010000D01*
X161127744Y-73010000D01*
X161085579Y-73061379D01*
%TA.AperFunction,NonConductor*%
D16*
G36*
X161085579Y-73061379D02*
G01*
X161080519Y-73010000D01*
X161127744Y-73010000D01*
X161085579Y-73061379D01*
G37*
%TD.AperFunction*%
D15*
X195065424Y-71419580D02*
X195128356Y-71438580D01*
X195186405Y-71469445D01*
X195237343Y-71510989D01*
X195279248Y-71561644D01*
X195310515Y-71619471D01*
X195329956Y-71682272D01*
X195340000Y-71777835D01*
X195340001Y-101532419D01*
X195343296Y-101565874D01*
X195343296Y-101585349D01*
X195344259Y-101594514D01*
X195373000Y-101850741D01*
X195373000Y-108633573D01*
X195372680Y-108635079D01*
X195371717Y-108644244D01*
X195343150Y-108935596D01*
X195343150Y-108935608D01*
X195340001Y-108967581D01*
X195340000Y-128717721D01*
X195330420Y-128815424D01*
X195311420Y-128878357D01*
X195280554Y-128936406D01*
X195239011Y-128987343D01*
X195188356Y-129029248D01*
X195130870Y-129060331D01*
X189267042Y-125584344D01*
X191545000Y-125584344D01*
X191545000Y-125955656D01*
X191617439Y-126319834D01*
X191759534Y-126662882D01*
X191965825Y-126971618D01*
X192228382Y-127234175D01*
X192537118Y-127440466D01*
X192880166Y-127582561D01*
X193244344Y-127655000D01*
X193615656Y-127655000D01*
X193979834Y-127582561D01*
X194322882Y-127440466D01*
X194631618Y-127234175D01*
X194894175Y-126971618D01*
X195100466Y-126662882D01*
X195242561Y-126319834D01*
X195315000Y-125955656D01*
X195315000Y-125584344D01*
X195242561Y-125220166D01*
X195100466Y-124877118D01*
X194894175Y-124568382D01*
X194631618Y-124305825D01*
X194322882Y-124099534D01*
X193979834Y-123957439D01*
X193615656Y-123885000D01*
X193244344Y-123885000D01*
X192880166Y-123957439D01*
X192537118Y-124099534D01*
X192228382Y-124305825D01*
X191965825Y-124568382D01*
X191759534Y-124877118D01*
X191617439Y-125220166D01*
X191545000Y-125584344D01*
X189267042Y-125584344D01*
X177229252Y-118448529D01*
X177220096Y-118437382D01*
X177189030Y-118379446D01*
X177169810Y-118316578D01*
X177160000Y-118219999D01*
X177160000Y-117661888D01*
X177187439Y-117799834D01*
X177329534Y-118142882D01*
X177535825Y-118451618D01*
X177798382Y-118714175D01*
X178107118Y-118920466D01*
X178450166Y-119062561D01*
X178814344Y-119135000D01*
X179185656Y-119135000D01*
X179549834Y-119062561D01*
X179892882Y-118920466D01*
X180201618Y-118714175D01*
X180464175Y-118451618D01*
X180670466Y-118142882D01*
X180812561Y-117799834D01*
X180885000Y-117435656D01*
X180885000Y-117064344D01*
X180812561Y-116700166D01*
X180670466Y-116357118D01*
X180464175Y-116048382D01*
X180201618Y-115785825D01*
X179892882Y-115579534D01*
X179549834Y-115437439D01*
X179185656Y-115365000D01*
X178814344Y-115365000D01*
X178450166Y-115437439D01*
X178107118Y-115579534D01*
X177798382Y-115785825D01*
X177535825Y-116048382D01*
X177329534Y-116357118D01*
X177187439Y-116700166D01*
X177160000Y-116838112D01*
X177160000Y-108967581D01*
X177156704Y-108934116D01*
X177156704Y-108914651D01*
X177155741Y-108905486D01*
X177127000Y-108649258D01*
X177127000Y-101866426D01*
X177127320Y-101864921D01*
X177128283Y-101855756D01*
X177156850Y-101564404D01*
X177156850Y-101564402D01*
X177160000Y-101532419D01*
X177160000Y-95500000D01*
X185161928Y-95500000D01*
X185161928Y-97300000D01*
X185174188Y-97424482D01*
X185210498Y-97544180D01*
X185269463Y-97654494D01*
X185348815Y-97751185D01*
X185445506Y-97830537D01*
X185555820Y-97889502D01*
X185675518Y-97925812D01*
X185800000Y-97938072D01*
X188000000Y-97938072D01*
X188124482Y-97925812D01*
X188244180Y-97889502D01*
X188354494Y-97830537D01*
X188451185Y-97751185D01*
X188530537Y-97654494D01*
X188589502Y-97544180D01*
X188625812Y-97424482D01*
X188638072Y-97300000D01*
X188638072Y-95500000D01*
X188625812Y-95375518D01*
X188589502Y-95255820D01*
X188530537Y-95145506D01*
X188451185Y-95048815D01*
X188354494Y-94969463D01*
X188244180Y-94910498D01*
X188124482Y-94874188D01*
X188000000Y-94861928D01*
X185800000Y-94861928D01*
X185675518Y-94874188D01*
X185555820Y-94910498D01*
X185445506Y-94969463D01*
X185348815Y-95048815D01*
X185269463Y-95145506D01*
X185210498Y-95255820D01*
X185174188Y-95375518D01*
X185161928Y-95500000D01*
X177160000Y-95500000D01*
X177160000Y-83750000D01*
X177736324Y-83750000D01*
X177740000Y-83787323D01*
X177740001Y-90712668D01*
X177736324Y-90750000D01*
X177750998Y-90898985D01*
X177794454Y-91042246D01*
X177865026Y-91174276D01*
X177936201Y-91261002D01*
X177960000Y-91290001D01*
X177988998Y-91313799D01*
X181436205Y-94761008D01*
X181459999Y-94790001D01*
X181488992Y-94813795D01*
X181488996Y-94813799D01*
X181534552Y-94851185D01*
X181575724Y-94884974D01*
X181707753Y-94955546D01*
X181851014Y-94999003D01*
X181962667Y-95010000D01*
X181962676Y-95010000D01*
X181999999Y-95013676D01*
X182037322Y-95010000D01*
X183323393Y-95010000D01*
X183375518Y-95025812D01*
X183500000Y-95038072D01*
X184800000Y-95038072D01*
X184924482Y-95025812D01*
X185044180Y-94989502D01*
X185154494Y-94930537D01*
X185251185Y-94851185D01*
X185330537Y-94754494D01*
X185389502Y-94644180D01*
X185425812Y-94524482D01*
X185438072Y-94400000D01*
X185438072Y-94100000D01*
X185428223Y-94000000D01*
X185438072Y-93900000D01*
X185438072Y-93600000D01*
X185428223Y-93500000D01*
X185438072Y-93400000D01*
X185438072Y-93100000D01*
X185428223Y-93000000D01*
X185438072Y-92900000D01*
X185438072Y-92600000D01*
X185428223Y-92500000D01*
X185438072Y-92400000D01*
X185438072Y-92100000D01*
X185425812Y-91975518D01*
X185389502Y-91855820D01*
X185330537Y-91745506D01*
X185251185Y-91648815D01*
X185154494Y-91569463D01*
X185044180Y-91510498D01*
X184924482Y-91474188D01*
X184800000Y-91461928D01*
X183500000Y-91461928D01*
X183375518Y-91474188D01*
X183323393Y-91490000D01*
X183314802Y-91490000D01*
X182260000Y-90435199D01*
X182260000Y-89200000D01*
X185161928Y-89200000D01*
X185161928Y-91000000D01*
X185174188Y-91124482D01*
X185210498Y-91244180D01*
X185269463Y-91354494D01*
X185348815Y-91451185D01*
X185445506Y-91530537D01*
X185555820Y-91589502D01*
X185675518Y-91625812D01*
X185800000Y-91638072D01*
X188000000Y-91638072D01*
X188124482Y-91625812D01*
X188244180Y-91589502D01*
X188354494Y-91530537D01*
X188451185Y-91451185D01*
X188530537Y-91354494D01*
X188589502Y-91244180D01*
X188625812Y-91124482D01*
X188638072Y-91000000D01*
X188638072Y-89200000D01*
X188625812Y-89075518D01*
X188589502Y-88955820D01*
X188530537Y-88845506D01*
X188451185Y-88748815D01*
X188354494Y-88669463D01*
X188244180Y-88610498D01*
X188124482Y-88574188D01*
X188000000Y-88561928D01*
X185800000Y-88561928D01*
X185675518Y-88574188D01*
X185555820Y-88610498D01*
X185445506Y-88669463D01*
X185348815Y-88748815D01*
X185269463Y-88845506D01*
X185210498Y-88955820D01*
X185174188Y-89075518D01*
X185161928Y-89200000D01*
X182260000Y-89200000D01*
X182260000Y-85564801D01*
X190321004Y-77503798D01*
X190350001Y-77480001D01*
X190444974Y-77364276D01*
X190515546Y-77232247D01*
X190559003Y-77088986D01*
X190570000Y-76977333D01*
X190570000Y-76977325D01*
X190573676Y-76940000D01*
X190570000Y-76902675D01*
X190570000Y-75808813D01*
X190589887Y-75798183D01*
X190802608Y-75623608D01*
X190977183Y-75410887D01*
X191106904Y-75168195D01*
X191186786Y-74904859D01*
X191207000Y-74699624D01*
X191207000Y-73800375D01*
X191186786Y-73595140D01*
X191106904Y-73331805D01*
X190977183Y-73089113D01*
X190802607Y-72876392D01*
X190589886Y-72701817D01*
X190347194Y-72572096D01*
X190083859Y-72492214D01*
X189810000Y-72465241D01*
X189536140Y-72492214D01*
X189272805Y-72572096D01*
X189030113Y-72701817D01*
X188817392Y-72876393D01*
X188642817Y-73089114D01*
X188540000Y-73281471D01*
X188437183Y-73089113D01*
X188262607Y-72876392D01*
X188049886Y-72701817D01*
X187807194Y-72572096D01*
X187543859Y-72492214D01*
X187292232Y-72467431D01*
X186563804Y-71739003D01*
X186540001Y-71709999D01*
X186424276Y-71615026D01*
X186292247Y-71544454D01*
X186148986Y-71500997D01*
X186037333Y-71490000D01*
X186037322Y-71490000D01*
X186000000Y-71486324D01*
X185962678Y-71490000D01*
X181037333Y-71490000D01*
X181000000Y-71486323D01*
X180962667Y-71490000D01*
X180851014Y-71500997D01*
X180707753Y-71544454D01*
X180575724Y-71615026D01*
X180459999Y-71709999D01*
X180436201Y-71738997D01*
X179488998Y-72686201D01*
X179460000Y-72709999D01*
X179436202Y-72738997D01*
X179436201Y-72738998D01*
X179365026Y-72825724D01*
X179294454Y-72957754D01*
X179278606Y-73010000D01*
X179250998Y-73101014D01*
X179240001Y-73212667D01*
X179236324Y-73250000D01*
X179240001Y-73287332D01*
X179240000Y-81935198D01*
X177989003Y-83186196D01*
X177959999Y-83209999D01*
X177904871Y-83277174D01*
X177865026Y-83325724D01*
X177794455Y-83457753D01*
X177794454Y-83457754D01*
X177750997Y-83601015D01*
X177740000Y-83712668D01*
X177740000Y-83712678D01*
X177736324Y-83750000D01*
X177160000Y-83750000D01*
X177160000Y-71782279D01*
X177169580Y-71684576D01*
X177188580Y-71621644D01*
X177219445Y-71563595D01*
X177260989Y-71512657D01*
X177311644Y-71470752D01*
X177369471Y-71439485D01*
X177432272Y-71420044D01*
X177527835Y-71410000D01*
X194967721Y-71410000D01*
X195065424Y-71419580D01*
%TA.AperFunction,NonConductor*%
D16*
G36*
X195065424Y-71419580D02*
G01*
X195128356Y-71438580D01*
X195186405Y-71469445D01*
X195237343Y-71510989D01*
X195279248Y-71561644D01*
X195310515Y-71619471D01*
X195329956Y-71682272D01*
X195340000Y-71777835D01*
X195340001Y-101532419D01*
X195343296Y-101565874D01*
X195343296Y-101585349D01*
X195344259Y-101594514D01*
X195373000Y-101850741D01*
X195373000Y-108633573D01*
X195372680Y-108635079D01*
X195371717Y-108644244D01*
X195343150Y-108935596D01*
X195343150Y-108935608D01*
X195340001Y-108967581D01*
X195340000Y-128717721D01*
X195330420Y-128815424D01*
X195311420Y-128878357D01*
X195280554Y-128936406D01*
X195239011Y-128987343D01*
X195188356Y-129029248D01*
X195130870Y-129060331D01*
X189267042Y-125584344D01*
X191545000Y-125584344D01*
X191545000Y-125955656D01*
X191617439Y-126319834D01*
X191759534Y-126662882D01*
X191965825Y-126971618D01*
X192228382Y-127234175D01*
X192537118Y-127440466D01*
X192880166Y-127582561D01*
X193244344Y-127655000D01*
X193615656Y-127655000D01*
X193979834Y-127582561D01*
X194322882Y-127440466D01*
X194631618Y-127234175D01*
X194894175Y-126971618D01*
X195100466Y-126662882D01*
X195242561Y-126319834D01*
X195315000Y-125955656D01*
X195315000Y-125584344D01*
X195242561Y-125220166D01*
X195100466Y-124877118D01*
X194894175Y-124568382D01*
X194631618Y-124305825D01*
X194322882Y-124099534D01*
X193979834Y-123957439D01*
X193615656Y-123885000D01*
X193244344Y-123885000D01*
X192880166Y-123957439D01*
X192537118Y-124099534D01*
X192228382Y-124305825D01*
X191965825Y-124568382D01*
X191759534Y-124877118D01*
X191617439Y-125220166D01*
X191545000Y-125584344D01*
X189267042Y-125584344D01*
X177229252Y-118448529D01*
X177220096Y-118437382D01*
X177189030Y-118379446D01*
X177169810Y-118316578D01*
X177160000Y-118219999D01*
X177160000Y-117661888D01*
X177187439Y-117799834D01*
X177329534Y-118142882D01*
X177535825Y-118451618D01*
X177798382Y-118714175D01*
X178107118Y-118920466D01*
X178450166Y-119062561D01*
X178814344Y-119135000D01*
X179185656Y-119135000D01*
X179549834Y-119062561D01*
X179892882Y-118920466D01*
X180201618Y-118714175D01*
X180464175Y-118451618D01*
X180670466Y-118142882D01*
X180812561Y-117799834D01*
X180885000Y-117435656D01*
X180885000Y-117064344D01*
X180812561Y-116700166D01*
X180670466Y-116357118D01*
X180464175Y-116048382D01*
X180201618Y-115785825D01*
X179892882Y-115579534D01*
X179549834Y-115437439D01*
X179185656Y-115365000D01*
X178814344Y-115365000D01*
X178450166Y-115437439D01*
X178107118Y-115579534D01*
X177798382Y-115785825D01*
X177535825Y-116048382D01*
X177329534Y-116357118D01*
X177187439Y-116700166D01*
X177160000Y-116838112D01*
X177160000Y-108967581D01*
X177156704Y-108934116D01*
X177156704Y-108914651D01*
X177155741Y-108905486D01*
X177127000Y-108649258D01*
X177127000Y-101866426D01*
X177127320Y-101864921D01*
X177128283Y-101855756D01*
X177156850Y-101564404D01*
X177156850Y-101564402D01*
X177160000Y-101532419D01*
X177160000Y-95500000D01*
X185161928Y-95500000D01*
X185161928Y-97300000D01*
X185174188Y-97424482D01*
X185210498Y-97544180D01*
X185269463Y-97654494D01*
X185348815Y-97751185D01*
X185445506Y-97830537D01*
X185555820Y-97889502D01*
X185675518Y-97925812D01*
X185800000Y-97938072D01*
X188000000Y-97938072D01*
X188124482Y-97925812D01*
X188244180Y-97889502D01*
X188354494Y-97830537D01*
X188451185Y-97751185D01*
X188530537Y-97654494D01*
X188589502Y-97544180D01*
X188625812Y-97424482D01*
X188638072Y-97300000D01*
X188638072Y-95500000D01*
X188625812Y-95375518D01*
X188589502Y-95255820D01*
X188530537Y-95145506D01*
X188451185Y-95048815D01*
X188354494Y-94969463D01*
X188244180Y-94910498D01*
X188124482Y-94874188D01*
X188000000Y-94861928D01*
X185800000Y-94861928D01*
X185675518Y-94874188D01*
X185555820Y-94910498D01*
X185445506Y-94969463D01*
X185348815Y-95048815D01*
X185269463Y-95145506D01*
X185210498Y-95255820D01*
X185174188Y-95375518D01*
X185161928Y-95500000D01*
X177160000Y-95500000D01*
X177160000Y-83750000D01*
X177736324Y-83750000D01*
X177740000Y-83787323D01*
X177740001Y-90712668D01*
X177736324Y-90750000D01*
X177750998Y-90898985D01*
X177794454Y-91042246D01*
X177865026Y-91174276D01*
X177936201Y-91261002D01*
X177960000Y-91290001D01*
X177988998Y-91313799D01*
X181436205Y-94761008D01*
X181459999Y-94790001D01*
X181488992Y-94813795D01*
X181488996Y-94813799D01*
X181534552Y-94851185D01*
X181575724Y-94884974D01*
X181707753Y-94955546D01*
X181851014Y-94999003D01*
X181962667Y-95010000D01*
X181962676Y-95010000D01*
X181999999Y-95013676D01*
X182037322Y-95010000D01*
X183323393Y-95010000D01*
X183375518Y-95025812D01*
X183500000Y-95038072D01*
X184800000Y-95038072D01*
X184924482Y-95025812D01*
X185044180Y-94989502D01*
X185154494Y-94930537D01*
X185251185Y-94851185D01*
X185330537Y-94754494D01*
X185389502Y-94644180D01*
X185425812Y-94524482D01*
X185438072Y-94400000D01*
X185438072Y-94100000D01*
X185428223Y-94000000D01*
X185438072Y-93900000D01*
X185438072Y-93600000D01*
X185428223Y-93500000D01*
X185438072Y-93400000D01*
X185438072Y-93100000D01*
X185428223Y-93000000D01*
X185438072Y-92900000D01*
X185438072Y-92600000D01*
X185428223Y-92500000D01*
X185438072Y-92400000D01*
X185438072Y-92100000D01*
X185425812Y-91975518D01*
X185389502Y-91855820D01*
X185330537Y-91745506D01*
X185251185Y-91648815D01*
X185154494Y-91569463D01*
X185044180Y-91510498D01*
X184924482Y-91474188D01*
X184800000Y-91461928D01*
X183500000Y-91461928D01*
X183375518Y-91474188D01*
X183323393Y-91490000D01*
X183314802Y-91490000D01*
X182260000Y-90435199D01*
X182260000Y-89200000D01*
X185161928Y-89200000D01*
X185161928Y-91000000D01*
X185174188Y-91124482D01*
X185210498Y-91244180D01*
X185269463Y-91354494D01*
X185348815Y-91451185D01*
X185445506Y-91530537D01*
X185555820Y-91589502D01*
X185675518Y-91625812D01*
X185800000Y-91638072D01*
X188000000Y-91638072D01*
X188124482Y-91625812D01*
X188244180Y-91589502D01*
X188354494Y-91530537D01*
X188451185Y-91451185D01*
X188530537Y-91354494D01*
X188589502Y-91244180D01*
X188625812Y-91124482D01*
X188638072Y-91000000D01*
X188638072Y-89200000D01*
X188625812Y-89075518D01*
X188589502Y-88955820D01*
X188530537Y-88845506D01*
X188451185Y-88748815D01*
X188354494Y-88669463D01*
X188244180Y-88610498D01*
X188124482Y-88574188D01*
X188000000Y-88561928D01*
X185800000Y-88561928D01*
X185675518Y-88574188D01*
X185555820Y-88610498D01*
X185445506Y-88669463D01*
X185348815Y-88748815D01*
X185269463Y-88845506D01*
X185210498Y-88955820D01*
X185174188Y-89075518D01*
X185161928Y-89200000D01*
X182260000Y-89200000D01*
X182260000Y-85564801D01*
X190321004Y-77503798D01*
X190350001Y-77480001D01*
X190444974Y-77364276D01*
X190515546Y-77232247D01*
X190559003Y-77088986D01*
X190570000Y-76977333D01*
X190570000Y-76977325D01*
X190573676Y-76940000D01*
X190570000Y-76902675D01*
X190570000Y-75808813D01*
X190589887Y-75798183D01*
X190802608Y-75623608D01*
X190977183Y-75410887D01*
X191106904Y-75168195D01*
X191186786Y-74904859D01*
X191207000Y-74699624D01*
X191207000Y-73800375D01*
X191186786Y-73595140D01*
X191106904Y-73331805D01*
X190977183Y-73089113D01*
X190802607Y-72876392D01*
X190589886Y-72701817D01*
X190347194Y-72572096D01*
X190083859Y-72492214D01*
X189810000Y-72465241D01*
X189536140Y-72492214D01*
X189272805Y-72572096D01*
X189030113Y-72701817D01*
X188817392Y-72876393D01*
X188642817Y-73089114D01*
X188540000Y-73281471D01*
X188437183Y-73089113D01*
X188262607Y-72876392D01*
X188049886Y-72701817D01*
X187807194Y-72572096D01*
X187543859Y-72492214D01*
X187292232Y-72467431D01*
X186563804Y-71739003D01*
X186540001Y-71709999D01*
X186424276Y-71615026D01*
X186292247Y-71544454D01*
X186148986Y-71500997D01*
X186037333Y-71490000D01*
X186037322Y-71490000D01*
X186000000Y-71486324D01*
X185962678Y-71490000D01*
X181037333Y-71490000D01*
X181000000Y-71486323D01*
X180962667Y-71490000D01*
X180851014Y-71500997D01*
X180707753Y-71544454D01*
X180575724Y-71615026D01*
X180459999Y-71709999D01*
X180436201Y-71738997D01*
X179488998Y-72686201D01*
X179460000Y-72709999D01*
X179436202Y-72738997D01*
X179436201Y-72738998D01*
X179365026Y-72825724D01*
X179294454Y-72957754D01*
X179278606Y-73010000D01*
X179250998Y-73101014D01*
X179240001Y-73212667D01*
X179236324Y-73250000D01*
X179240001Y-73287332D01*
X179240000Y-81935198D01*
X177989003Y-83186196D01*
X177959999Y-83209999D01*
X177904871Y-83277174D01*
X177865026Y-83325724D01*
X177794455Y-83457753D01*
X177794454Y-83457754D01*
X177750997Y-83601015D01*
X177740000Y-83712668D01*
X177740000Y-83712678D01*
X177736324Y-83750000D01*
X177160000Y-83750000D01*
X177160000Y-71782279D01*
X177169580Y-71684576D01*
X177188580Y-71621644D01*
X177219445Y-71563595D01*
X177260989Y-71512657D01*
X177311644Y-71470752D01*
X177369471Y-71439485D01*
X177432272Y-71420044D01*
X177527835Y-71410000D01*
X194967721Y-71410000D01*
X195065424Y-71419580D01*
G37*
%TD.AperFunction*%
D15*
X180789928Y-75393000D02*
X180802188Y-75517482D01*
X180838498Y-75637180D01*
X180897463Y-75747494D01*
X180976815Y-75844185D01*
X181073506Y-75923537D01*
X181183820Y-75982502D01*
X181303518Y-76018812D01*
X181428000Y-76031072D01*
X181430001Y-76031072D01*
X181430000Y-81245197D01*
X180760000Y-81915198D01*
X180760000Y-73564801D01*
X180789928Y-73534873D01*
X180789928Y-75393000D01*
%TA.AperFunction,NonConductor*%
D16*
G36*
X180789928Y-75393000D02*
G01*
X180802188Y-75517482D01*
X180838498Y-75637180D01*
X180897463Y-75747494D01*
X180976815Y-75844185D01*
X181073506Y-75923537D01*
X181183820Y-75982502D01*
X181303518Y-76018812D01*
X181428000Y-76031072D01*
X181430001Y-76031072D01*
X181430000Y-81245197D01*
X180760000Y-81915198D01*
X180760000Y-73564801D01*
X180789928Y-73534873D01*
X180789928Y-75393000D01*
G37*
%TD.AperFunction*%
D15*
X183737393Y-75623608D02*
X183950114Y-75798183D01*
X183970001Y-75808813D01*
X183970000Y-80205198D01*
X182950000Y-81225198D01*
X182950000Y-76031072D01*
X182952000Y-76031072D01*
X183076482Y-76018812D01*
X183196180Y-75982502D01*
X183306494Y-75923537D01*
X183403185Y-75844185D01*
X183482537Y-75747494D01*
X183541502Y-75637180D01*
X183577812Y-75517482D01*
X183585579Y-75438622D01*
X183737393Y-75623608D01*
%TA.AperFunction,NonConductor*%
D16*
G36*
X183737393Y-75623608D02*
G01*
X183950114Y-75798183D01*
X183970001Y-75808813D01*
X183970000Y-80205198D01*
X182950000Y-81225198D01*
X182950000Y-76031072D01*
X182952000Y-76031072D01*
X183076482Y-76018812D01*
X183196180Y-75982502D01*
X183306494Y-75923537D01*
X183403185Y-75844185D01*
X183482537Y-75747494D01*
X183541502Y-75637180D01*
X183577812Y-75517482D01*
X183585579Y-75438622D01*
X183737393Y-75623608D01*
G37*
%TD.AperFunction*%
D15*
X188642817Y-75410887D02*
X188817393Y-75623608D01*
X189030114Y-75798183D01*
X189050000Y-75808812D01*
X189050000Y-76625198D01*
X185490000Y-80185198D01*
X185490000Y-75808813D01*
X185509887Y-75798183D01*
X185722608Y-75623608D01*
X185897183Y-75410887D01*
X186000000Y-75218529D01*
X186102817Y-75410887D01*
X186277393Y-75623608D01*
X186490114Y-75798183D01*
X186732806Y-75927904D01*
X186996141Y-76007786D01*
X187270000Y-76034759D01*
X187543860Y-76007786D01*
X187807195Y-75927904D01*
X188049887Y-75798183D01*
X188262608Y-75623608D01*
X188437183Y-75410887D01*
X188540000Y-75218529D01*
X188642817Y-75410887D01*
%TA.AperFunction,NonConductor*%
D16*
G36*
X188642817Y-75410887D02*
G01*
X188817393Y-75623608D01*
X189030114Y-75798183D01*
X189050000Y-75808812D01*
X189050000Y-76625198D01*
X185490000Y-80185198D01*
X185490000Y-75808813D01*
X185509887Y-75798183D01*
X185722608Y-75623608D01*
X185897183Y-75410887D01*
X186000000Y-75218529D01*
X186102817Y-75410887D01*
X186277393Y-75623608D01*
X186490114Y-75798183D01*
X186732806Y-75927904D01*
X186996141Y-76007786D01*
X187270000Y-76034759D01*
X187543860Y-76007786D01*
X187807195Y-75927904D01*
X188049887Y-75798183D01*
X188262608Y-75623608D01*
X188437183Y-75410887D01*
X188540000Y-75218529D01*
X188642817Y-75410887D01*
G37*
%TD.AperFunction*%
D15*
X183585579Y-73061379D02*
X183580519Y-73010000D01*
X183627744Y-73010000D01*
X183585579Y-73061379D01*
%TA.AperFunction,NonConductor*%
D16*
G36*
X183585579Y-73061379D02*
G01*
X183580519Y-73010000D01*
X183627744Y-73010000D01*
X183585579Y-73061379D01*
G37*
%TD.AperFunction*%
D15*
X217565424Y-71419580D02*
X217628356Y-71438580D01*
X217686405Y-71469445D01*
X217737343Y-71510989D01*
X217779248Y-71561644D01*
X217810515Y-71619471D01*
X217829956Y-71682272D01*
X217840000Y-71777835D01*
X217840001Y-101532419D01*
X217843296Y-101565874D01*
X217843296Y-101585349D01*
X217844259Y-101594514D01*
X217873000Y-101850741D01*
X217873000Y-108633573D01*
X217872680Y-108635079D01*
X217871717Y-108644244D01*
X217843150Y-108935596D01*
X217843150Y-108935608D01*
X217840001Y-108967581D01*
X217840000Y-116838113D01*
X217812561Y-116700166D01*
X217670466Y-116357118D01*
X217464175Y-116048382D01*
X217201618Y-115785825D01*
X216892882Y-115579534D01*
X216549834Y-115437439D01*
X216185656Y-115365000D01*
X215814344Y-115365000D01*
X215450166Y-115437439D01*
X215107118Y-115579534D01*
X214798382Y-115785825D01*
X214535825Y-116048382D01*
X214329534Y-116357118D01*
X214187439Y-116700166D01*
X214115000Y-117064344D01*
X214115000Y-117435656D01*
X214187439Y-117799834D01*
X214329534Y-118142882D01*
X214535825Y-118451618D01*
X214798382Y-118714175D01*
X215107118Y-118920466D01*
X215450166Y-119062561D01*
X215814344Y-119135000D01*
X216185656Y-119135000D01*
X216549834Y-119062561D01*
X216892882Y-118920466D01*
X217201618Y-118714175D01*
X217464175Y-118451618D01*
X217670466Y-118142882D01*
X217812561Y-117799834D01*
X217840000Y-117661888D01*
X217840000Y-118217721D01*
X217830420Y-118315424D01*
X217811420Y-118378357D01*
X217780554Y-118436406D01*
X217770592Y-118448621D01*
X199869351Y-129060201D01*
X199813594Y-129030554D01*
X199762657Y-128989011D01*
X199720752Y-128938356D01*
X199689485Y-128880529D01*
X199670044Y-128817728D01*
X199660000Y-128722165D01*
X199660000Y-125584344D01*
X199685000Y-125584344D01*
X199685000Y-125955656D01*
X199757439Y-126319834D01*
X199899534Y-126662882D01*
X200105825Y-126971618D01*
X200368382Y-127234175D01*
X200677118Y-127440466D01*
X201020166Y-127582561D01*
X201384344Y-127655000D01*
X201755656Y-127655000D01*
X202119834Y-127582561D01*
X202462882Y-127440466D01*
X202771618Y-127234175D01*
X203034175Y-126971618D01*
X203240466Y-126662882D01*
X203382561Y-126319834D01*
X203455000Y-125955656D01*
X203455000Y-125584344D01*
X203382561Y-125220166D01*
X203240466Y-124877118D01*
X203034175Y-124568382D01*
X202771618Y-124305825D01*
X202462882Y-124099534D01*
X202119834Y-123957439D01*
X201755656Y-123885000D01*
X201384344Y-123885000D01*
X201020166Y-123957439D01*
X200677118Y-124099534D01*
X200368382Y-124305825D01*
X200105825Y-124568382D01*
X199899534Y-124877118D01*
X199757439Y-125220166D01*
X199685000Y-125584344D01*
X199660000Y-125584344D01*
X199660000Y-108967581D01*
X199656704Y-108934116D01*
X199656704Y-108914651D01*
X199655741Y-108905486D01*
X199627000Y-108649258D01*
X199627000Y-101866426D01*
X199627320Y-101864921D01*
X199628283Y-101855756D01*
X199656850Y-101564404D01*
X199656850Y-101564402D01*
X199660000Y-101532419D01*
X199660000Y-95500000D01*
X207661928Y-95500000D01*
X207661928Y-97300000D01*
X207674188Y-97424482D01*
X207710498Y-97544180D01*
X207769463Y-97654494D01*
X207848815Y-97751185D01*
X207945506Y-97830537D01*
X208055820Y-97889502D01*
X208175518Y-97925812D01*
X208300000Y-97938072D01*
X210500000Y-97938072D01*
X210624482Y-97925812D01*
X210744180Y-97889502D01*
X210854494Y-97830537D01*
X210951185Y-97751185D01*
X211030537Y-97654494D01*
X211089502Y-97544180D01*
X211125812Y-97424482D01*
X211138072Y-97300000D01*
X211138072Y-95500000D01*
X211125812Y-95375518D01*
X211089502Y-95255820D01*
X211030537Y-95145506D01*
X210951185Y-95048815D01*
X210854494Y-94969463D01*
X210744180Y-94910498D01*
X210624482Y-94874188D01*
X210500000Y-94861928D01*
X208300000Y-94861928D01*
X208175518Y-94874188D01*
X208055820Y-94910498D01*
X207945506Y-94969463D01*
X207848815Y-95048815D01*
X207769463Y-95145506D01*
X207710498Y-95255820D01*
X207674188Y-95375518D01*
X207661928Y-95500000D01*
X199660000Y-95500000D01*
X199660000Y-83750000D01*
X200236324Y-83750000D01*
X200240000Y-83787323D01*
X200240001Y-90712668D01*
X200236324Y-90750000D01*
X200250998Y-90898985D01*
X200294454Y-91042246D01*
X200365026Y-91174276D01*
X200436201Y-91261002D01*
X200460000Y-91290001D01*
X200488998Y-91313799D01*
X203936205Y-94761008D01*
X203959999Y-94790001D01*
X203988992Y-94813795D01*
X203988996Y-94813799D01*
X204034552Y-94851185D01*
X204075724Y-94884974D01*
X204207753Y-94955546D01*
X204351014Y-94999003D01*
X204462667Y-95010000D01*
X204462676Y-95010000D01*
X204499999Y-95013676D01*
X204537322Y-95010000D01*
X205823393Y-95010000D01*
X205875518Y-95025812D01*
X206000000Y-95038072D01*
X207300000Y-95038072D01*
X207424482Y-95025812D01*
X207544180Y-94989502D01*
X207654494Y-94930537D01*
X207751185Y-94851185D01*
X207830537Y-94754494D01*
X207889502Y-94644180D01*
X207925812Y-94524482D01*
X207938072Y-94400000D01*
X207938072Y-94100000D01*
X207928223Y-94000000D01*
X207938072Y-93900000D01*
X207938072Y-93600000D01*
X207928223Y-93500000D01*
X207938072Y-93400000D01*
X207938072Y-93100000D01*
X207928223Y-93000000D01*
X207938072Y-92900000D01*
X207938072Y-92600000D01*
X207928223Y-92500000D01*
X207938072Y-92400000D01*
X207938072Y-92100000D01*
X207925812Y-91975518D01*
X207889502Y-91855820D01*
X207830537Y-91745506D01*
X207751185Y-91648815D01*
X207654494Y-91569463D01*
X207544180Y-91510498D01*
X207424482Y-91474188D01*
X207300000Y-91461928D01*
X206000000Y-91461928D01*
X205875518Y-91474188D01*
X205823393Y-91490000D01*
X205814802Y-91490000D01*
X204760000Y-90435199D01*
X204760000Y-89200000D01*
X207661928Y-89200000D01*
X207661928Y-91000000D01*
X207674188Y-91124482D01*
X207710498Y-91244180D01*
X207769463Y-91354494D01*
X207848815Y-91451185D01*
X207945506Y-91530537D01*
X208055820Y-91589502D01*
X208175518Y-91625812D01*
X208300000Y-91638072D01*
X210500000Y-91638072D01*
X210624482Y-91625812D01*
X210744180Y-91589502D01*
X210854494Y-91530537D01*
X210951185Y-91451185D01*
X211030537Y-91354494D01*
X211089502Y-91244180D01*
X211125812Y-91124482D01*
X211138072Y-91000000D01*
X211138072Y-89200000D01*
X211125812Y-89075518D01*
X211089502Y-88955820D01*
X211030537Y-88845506D01*
X210951185Y-88748815D01*
X210854494Y-88669463D01*
X210744180Y-88610498D01*
X210624482Y-88574188D01*
X210500000Y-88561928D01*
X208300000Y-88561928D01*
X208175518Y-88574188D01*
X208055820Y-88610498D01*
X207945506Y-88669463D01*
X207848815Y-88748815D01*
X207769463Y-88845506D01*
X207710498Y-88955820D01*
X207674188Y-89075518D01*
X207661928Y-89200000D01*
X204760000Y-89200000D01*
X204760000Y-85564801D01*
X212821004Y-77503798D01*
X212850001Y-77480001D01*
X212944974Y-77364276D01*
X213015546Y-77232247D01*
X213059003Y-77088986D01*
X213070000Y-76977333D01*
X213070000Y-76977325D01*
X213073676Y-76940000D01*
X213070000Y-76902675D01*
X213070000Y-75808813D01*
X213089887Y-75798183D01*
X213302608Y-75623608D01*
X213477183Y-75410887D01*
X213606904Y-75168195D01*
X213686786Y-74904859D01*
X213707000Y-74699624D01*
X213707000Y-73800375D01*
X213686786Y-73595140D01*
X213606904Y-73331805D01*
X213477183Y-73089113D01*
X213302607Y-72876392D01*
X213089886Y-72701817D01*
X212847194Y-72572096D01*
X212583859Y-72492214D01*
X212310000Y-72465241D01*
X212036140Y-72492214D01*
X211772805Y-72572096D01*
X211530113Y-72701817D01*
X211317392Y-72876393D01*
X211142817Y-73089114D01*
X211040000Y-73281471D01*
X210937183Y-73089113D01*
X210762607Y-72876392D01*
X210549886Y-72701817D01*
X210307194Y-72572096D01*
X210043859Y-72492214D01*
X209792232Y-72467431D01*
X209063804Y-71739003D01*
X209040001Y-71709999D01*
X208924276Y-71615026D01*
X208792247Y-71544454D01*
X208648986Y-71500997D01*
X208537333Y-71490000D01*
X208537322Y-71490000D01*
X208500000Y-71486324D01*
X208462678Y-71490000D01*
X203537333Y-71490000D01*
X203500000Y-71486323D01*
X203462667Y-71490000D01*
X203351014Y-71500997D01*
X203207753Y-71544454D01*
X203075724Y-71615026D01*
X202959999Y-71709999D01*
X202936201Y-71738997D01*
X201988998Y-72686201D01*
X201960000Y-72709999D01*
X201936202Y-72738997D01*
X201936201Y-72738998D01*
X201865026Y-72825724D01*
X201794454Y-72957754D01*
X201778606Y-73010000D01*
X201750998Y-73101014D01*
X201740001Y-73212667D01*
X201736324Y-73250000D01*
X201740001Y-73287332D01*
X201740000Y-81935198D01*
X200489003Y-83186196D01*
X200459999Y-83209999D01*
X200404871Y-83277174D01*
X200365026Y-83325724D01*
X200294455Y-83457753D01*
X200294454Y-83457754D01*
X200250997Y-83601015D01*
X200240000Y-83712668D01*
X200240000Y-83712678D01*
X200236324Y-83750000D01*
X199660000Y-83750000D01*
X199660000Y-71782279D01*
X199669580Y-71684576D01*
X199688580Y-71621644D01*
X199719445Y-71563595D01*
X199760989Y-71512657D01*
X199811644Y-71470752D01*
X199869471Y-71439485D01*
X199932272Y-71420044D01*
X200027835Y-71410000D01*
X217467721Y-71410000D01*
X217565424Y-71419580D01*
%TA.AperFunction,NonConductor*%
D16*
G36*
X217565424Y-71419580D02*
G01*
X217628356Y-71438580D01*
X217686405Y-71469445D01*
X217737343Y-71510989D01*
X217779248Y-71561644D01*
X217810515Y-71619471D01*
X217829956Y-71682272D01*
X217840000Y-71777835D01*
X217840001Y-101532419D01*
X217843296Y-101565874D01*
X217843296Y-101585349D01*
X217844259Y-101594514D01*
X217873000Y-101850741D01*
X217873000Y-108633573D01*
X217872680Y-108635079D01*
X217871717Y-108644244D01*
X217843150Y-108935596D01*
X217843150Y-108935608D01*
X217840001Y-108967581D01*
X217840000Y-116838113D01*
X217812561Y-116700166D01*
X217670466Y-116357118D01*
X217464175Y-116048382D01*
X217201618Y-115785825D01*
X216892882Y-115579534D01*
X216549834Y-115437439D01*
X216185656Y-115365000D01*
X215814344Y-115365000D01*
X215450166Y-115437439D01*
X215107118Y-115579534D01*
X214798382Y-115785825D01*
X214535825Y-116048382D01*
X214329534Y-116357118D01*
X214187439Y-116700166D01*
X214115000Y-117064344D01*
X214115000Y-117435656D01*
X214187439Y-117799834D01*
X214329534Y-118142882D01*
X214535825Y-118451618D01*
X214798382Y-118714175D01*
X215107118Y-118920466D01*
X215450166Y-119062561D01*
X215814344Y-119135000D01*
X216185656Y-119135000D01*
X216549834Y-119062561D01*
X216892882Y-118920466D01*
X217201618Y-118714175D01*
X217464175Y-118451618D01*
X217670466Y-118142882D01*
X217812561Y-117799834D01*
X217840000Y-117661888D01*
X217840000Y-118217721D01*
X217830420Y-118315424D01*
X217811420Y-118378357D01*
X217780554Y-118436406D01*
X217770592Y-118448621D01*
X199869351Y-129060201D01*
X199813594Y-129030554D01*
X199762657Y-128989011D01*
X199720752Y-128938356D01*
X199689485Y-128880529D01*
X199670044Y-128817728D01*
X199660000Y-128722165D01*
X199660000Y-125584344D01*
X199685000Y-125584344D01*
X199685000Y-125955656D01*
X199757439Y-126319834D01*
X199899534Y-126662882D01*
X200105825Y-126971618D01*
X200368382Y-127234175D01*
X200677118Y-127440466D01*
X201020166Y-127582561D01*
X201384344Y-127655000D01*
X201755656Y-127655000D01*
X202119834Y-127582561D01*
X202462882Y-127440466D01*
X202771618Y-127234175D01*
X203034175Y-126971618D01*
X203240466Y-126662882D01*
X203382561Y-126319834D01*
X203455000Y-125955656D01*
X203455000Y-125584344D01*
X203382561Y-125220166D01*
X203240466Y-124877118D01*
X203034175Y-124568382D01*
X202771618Y-124305825D01*
X202462882Y-124099534D01*
X202119834Y-123957439D01*
X201755656Y-123885000D01*
X201384344Y-123885000D01*
X201020166Y-123957439D01*
X200677118Y-124099534D01*
X200368382Y-124305825D01*
X200105825Y-124568382D01*
X199899534Y-124877118D01*
X199757439Y-125220166D01*
X199685000Y-125584344D01*
X199660000Y-125584344D01*
X199660000Y-108967581D01*
X199656704Y-108934116D01*
X199656704Y-108914651D01*
X199655741Y-108905486D01*
X199627000Y-108649258D01*
X199627000Y-101866426D01*
X199627320Y-101864921D01*
X199628283Y-101855756D01*
X199656850Y-101564404D01*
X199656850Y-101564402D01*
X199660000Y-101532419D01*
X199660000Y-95500000D01*
X207661928Y-95500000D01*
X207661928Y-97300000D01*
X207674188Y-97424482D01*
X207710498Y-97544180D01*
X207769463Y-97654494D01*
X207848815Y-97751185D01*
X207945506Y-97830537D01*
X208055820Y-97889502D01*
X208175518Y-97925812D01*
X208300000Y-97938072D01*
X210500000Y-97938072D01*
X210624482Y-97925812D01*
X210744180Y-97889502D01*
X210854494Y-97830537D01*
X210951185Y-97751185D01*
X211030537Y-97654494D01*
X211089502Y-97544180D01*
X211125812Y-97424482D01*
X211138072Y-97300000D01*
X211138072Y-95500000D01*
X211125812Y-95375518D01*
X211089502Y-95255820D01*
X211030537Y-95145506D01*
X210951185Y-95048815D01*
X210854494Y-94969463D01*
X210744180Y-94910498D01*
X210624482Y-94874188D01*
X210500000Y-94861928D01*
X208300000Y-94861928D01*
X208175518Y-94874188D01*
X208055820Y-94910498D01*
X207945506Y-94969463D01*
X207848815Y-95048815D01*
X207769463Y-95145506D01*
X207710498Y-95255820D01*
X207674188Y-95375518D01*
X207661928Y-95500000D01*
X199660000Y-95500000D01*
X199660000Y-83750000D01*
X200236324Y-83750000D01*
X200240000Y-83787323D01*
X200240001Y-90712668D01*
X200236324Y-90750000D01*
X200250998Y-90898985D01*
X200294454Y-91042246D01*
X200365026Y-91174276D01*
X200436201Y-91261002D01*
X200460000Y-91290001D01*
X200488998Y-91313799D01*
X203936205Y-94761008D01*
X203959999Y-94790001D01*
X203988992Y-94813795D01*
X203988996Y-94813799D01*
X204034552Y-94851185D01*
X204075724Y-94884974D01*
X204207753Y-94955546D01*
X204351014Y-94999003D01*
X204462667Y-95010000D01*
X204462676Y-95010000D01*
X204499999Y-95013676D01*
X204537322Y-95010000D01*
X205823393Y-95010000D01*
X205875518Y-95025812D01*
X206000000Y-95038072D01*
X207300000Y-95038072D01*
X207424482Y-95025812D01*
X207544180Y-94989502D01*
X207654494Y-94930537D01*
X207751185Y-94851185D01*
X207830537Y-94754494D01*
X207889502Y-94644180D01*
X207925812Y-94524482D01*
X207938072Y-94400000D01*
X207938072Y-94100000D01*
X207928223Y-94000000D01*
X207938072Y-93900000D01*
X207938072Y-93600000D01*
X207928223Y-93500000D01*
X207938072Y-93400000D01*
X207938072Y-93100000D01*
X207928223Y-93000000D01*
X207938072Y-92900000D01*
X207938072Y-92600000D01*
X207928223Y-92500000D01*
X207938072Y-92400000D01*
X207938072Y-92100000D01*
X207925812Y-91975518D01*
X207889502Y-91855820D01*
X207830537Y-91745506D01*
X207751185Y-91648815D01*
X207654494Y-91569463D01*
X207544180Y-91510498D01*
X207424482Y-91474188D01*
X207300000Y-91461928D01*
X206000000Y-91461928D01*
X205875518Y-91474188D01*
X205823393Y-91490000D01*
X205814802Y-91490000D01*
X204760000Y-90435199D01*
X204760000Y-89200000D01*
X207661928Y-89200000D01*
X207661928Y-91000000D01*
X207674188Y-91124482D01*
X207710498Y-91244180D01*
X207769463Y-91354494D01*
X207848815Y-91451185D01*
X207945506Y-91530537D01*
X208055820Y-91589502D01*
X208175518Y-91625812D01*
X208300000Y-91638072D01*
X210500000Y-91638072D01*
X210624482Y-91625812D01*
X210744180Y-91589502D01*
X210854494Y-91530537D01*
X210951185Y-91451185D01*
X211030537Y-91354494D01*
X211089502Y-91244180D01*
X211125812Y-91124482D01*
X211138072Y-91000000D01*
X211138072Y-89200000D01*
X211125812Y-89075518D01*
X211089502Y-88955820D01*
X211030537Y-88845506D01*
X210951185Y-88748815D01*
X210854494Y-88669463D01*
X210744180Y-88610498D01*
X210624482Y-88574188D01*
X210500000Y-88561928D01*
X208300000Y-88561928D01*
X208175518Y-88574188D01*
X208055820Y-88610498D01*
X207945506Y-88669463D01*
X207848815Y-88748815D01*
X207769463Y-88845506D01*
X207710498Y-88955820D01*
X207674188Y-89075518D01*
X207661928Y-89200000D01*
X204760000Y-89200000D01*
X204760000Y-85564801D01*
X212821004Y-77503798D01*
X212850001Y-77480001D01*
X212944974Y-77364276D01*
X213015546Y-77232247D01*
X213059003Y-77088986D01*
X213070000Y-76977333D01*
X213070000Y-76977325D01*
X213073676Y-76940000D01*
X213070000Y-76902675D01*
X213070000Y-75808813D01*
X213089887Y-75798183D01*
X213302608Y-75623608D01*
X213477183Y-75410887D01*
X213606904Y-75168195D01*
X213686786Y-74904859D01*
X213707000Y-74699624D01*
X213707000Y-73800375D01*
X213686786Y-73595140D01*
X213606904Y-73331805D01*
X213477183Y-73089113D01*
X213302607Y-72876392D01*
X213089886Y-72701817D01*
X212847194Y-72572096D01*
X212583859Y-72492214D01*
X212310000Y-72465241D01*
X212036140Y-72492214D01*
X211772805Y-72572096D01*
X211530113Y-72701817D01*
X211317392Y-72876393D01*
X211142817Y-73089114D01*
X211040000Y-73281471D01*
X210937183Y-73089113D01*
X210762607Y-72876392D01*
X210549886Y-72701817D01*
X210307194Y-72572096D01*
X210043859Y-72492214D01*
X209792232Y-72467431D01*
X209063804Y-71739003D01*
X209040001Y-71709999D01*
X208924276Y-71615026D01*
X208792247Y-71544454D01*
X208648986Y-71500997D01*
X208537333Y-71490000D01*
X208537322Y-71490000D01*
X208500000Y-71486324D01*
X208462678Y-71490000D01*
X203537333Y-71490000D01*
X203500000Y-71486323D01*
X203462667Y-71490000D01*
X203351014Y-71500997D01*
X203207753Y-71544454D01*
X203075724Y-71615026D01*
X202959999Y-71709999D01*
X202936201Y-71738997D01*
X201988998Y-72686201D01*
X201960000Y-72709999D01*
X201936202Y-72738997D01*
X201936201Y-72738998D01*
X201865026Y-72825724D01*
X201794454Y-72957754D01*
X201778606Y-73010000D01*
X201750998Y-73101014D01*
X201740001Y-73212667D01*
X201736324Y-73250000D01*
X201740001Y-73287332D01*
X201740000Y-81935198D01*
X200489003Y-83186196D01*
X200459999Y-83209999D01*
X200404871Y-83277174D01*
X200365026Y-83325724D01*
X200294455Y-83457753D01*
X200294454Y-83457754D01*
X200250997Y-83601015D01*
X200240000Y-83712668D01*
X200240000Y-83712678D01*
X200236324Y-83750000D01*
X199660000Y-83750000D01*
X199660000Y-71782279D01*
X199669580Y-71684576D01*
X199688580Y-71621644D01*
X199719445Y-71563595D01*
X199760989Y-71512657D01*
X199811644Y-71470752D01*
X199869471Y-71439485D01*
X199932272Y-71420044D01*
X200027835Y-71410000D01*
X217467721Y-71410000D01*
X217565424Y-71419580D01*
G37*
%TD.AperFunction*%
D15*
X203289928Y-75393000D02*
X203302188Y-75517482D01*
X203338498Y-75637180D01*
X203397463Y-75747494D01*
X203476815Y-75844185D01*
X203573506Y-75923537D01*
X203683820Y-75982502D01*
X203803518Y-76018812D01*
X203928000Y-76031072D01*
X203930001Y-76031072D01*
X203930000Y-81245197D01*
X203260000Y-81915198D01*
X203260000Y-73564801D01*
X203289928Y-73534873D01*
X203289928Y-75393000D01*
%TA.AperFunction,NonConductor*%
D16*
G36*
X203289928Y-75393000D02*
G01*
X203302188Y-75517482D01*
X203338498Y-75637180D01*
X203397463Y-75747494D01*
X203476815Y-75844185D01*
X203573506Y-75923537D01*
X203683820Y-75982502D01*
X203803518Y-76018812D01*
X203928000Y-76031072D01*
X203930001Y-76031072D01*
X203930000Y-81245197D01*
X203260000Y-81915198D01*
X203260000Y-73564801D01*
X203289928Y-73534873D01*
X203289928Y-75393000D01*
G37*
%TD.AperFunction*%
D15*
X206237393Y-75623608D02*
X206450114Y-75798183D01*
X206470001Y-75808813D01*
X206470000Y-80205198D01*
X205450000Y-81225198D01*
X205450000Y-76031072D01*
X205452000Y-76031072D01*
X205576482Y-76018812D01*
X205696180Y-75982502D01*
X205806494Y-75923537D01*
X205903185Y-75844185D01*
X205982537Y-75747494D01*
X206041502Y-75637180D01*
X206077812Y-75517482D01*
X206085579Y-75438622D01*
X206237393Y-75623608D01*
%TA.AperFunction,NonConductor*%
D16*
G36*
X206237393Y-75623608D02*
G01*
X206450114Y-75798183D01*
X206470001Y-75808813D01*
X206470000Y-80205198D01*
X205450000Y-81225198D01*
X205450000Y-76031072D01*
X205452000Y-76031072D01*
X205576482Y-76018812D01*
X205696180Y-75982502D01*
X205806494Y-75923537D01*
X205903185Y-75844185D01*
X205982537Y-75747494D01*
X206041502Y-75637180D01*
X206077812Y-75517482D01*
X206085579Y-75438622D01*
X206237393Y-75623608D01*
G37*
%TD.AperFunction*%
D15*
X211142817Y-75410887D02*
X211317393Y-75623608D01*
X211530114Y-75798183D01*
X211550000Y-75808812D01*
X211550000Y-76625198D01*
X207990000Y-80185198D01*
X207990000Y-75808813D01*
X208009887Y-75798183D01*
X208222608Y-75623608D01*
X208397183Y-75410887D01*
X208500000Y-75218529D01*
X208602817Y-75410887D01*
X208777393Y-75623608D01*
X208990114Y-75798183D01*
X209232806Y-75927904D01*
X209496141Y-76007786D01*
X209770000Y-76034759D01*
X210043860Y-76007786D01*
X210307195Y-75927904D01*
X210549887Y-75798183D01*
X210762608Y-75623608D01*
X210937183Y-75410887D01*
X211040000Y-75218529D01*
X211142817Y-75410887D01*
%TA.AperFunction,NonConductor*%
D16*
G36*
X211142817Y-75410887D02*
G01*
X211317393Y-75623608D01*
X211530114Y-75798183D01*
X211550000Y-75808812D01*
X211550000Y-76625198D01*
X207990000Y-80185198D01*
X207990000Y-75808813D01*
X208009887Y-75798183D01*
X208222608Y-75623608D01*
X208397183Y-75410887D01*
X208500000Y-75218529D01*
X208602817Y-75410887D01*
X208777393Y-75623608D01*
X208990114Y-75798183D01*
X209232806Y-75927904D01*
X209496141Y-76007786D01*
X209770000Y-76034759D01*
X210043860Y-76007786D01*
X210307195Y-75927904D01*
X210549887Y-75798183D01*
X210762608Y-75623608D01*
X210937183Y-75410887D01*
X211040000Y-75218529D01*
X211142817Y-75410887D01*
G37*
%TD.AperFunction*%
D15*
X206085579Y-73061379D02*
X206080519Y-73010000D01*
X206127744Y-73010000D01*
X206085579Y-73061379D01*
%TA.AperFunction,NonConductor*%
D16*
G36*
X206085579Y-73061379D02*
G01*
X206080519Y-73010000D01*
X206127744Y-73010000D01*
X206085579Y-73061379D01*
G37*
%TD.AperFunction*%
M02*
