%TF.GenerationSoftware,KiCad,Pcbnew,(5.1.10-1-10_14)*%
%TF.CreationDate,2021-07-07T01:14:00+09:00*%
%TF.ProjectId,StickPlate,53746963-6b50-46c6-9174-652e6b696361,rev?*%
%TF.SameCoordinates,Original*%
%TF.FileFunction,Legend,Top*%
%TF.FilePolarity,Positive*%
%FSLAX46Y46*%
G04 Gerber Fmt 4.6, Leading zero omitted, Abs format (unit mm)*
G04 Created by KiCad (PCBNEW (5.1.10-1-10_14)) date 2021-07-07 01:14:00*
%MOMM*%
%LPD*%
G01*
G04 APERTURE LIST*
%ADD10C,0.150000*%
%ADD11C,0.120000*%
G04 APERTURE END LIST*
D10*
X178809523Y-74702380D02*
X178476190Y-74226190D01*
X178238095Y-74702380D02*
X178238095Y-73702380D01*
X178619047Y-73702380D01*
X178714285Y-73750000D01*
X178761904Y-73797619D01*
X178809523Y-73892857D01*
X178809523Y-74035714D01*
X178761904Y-74130952D01*
X178714285Y-74178571D01*
X178619047Y-74226190D01*
X178238095Y-74226190D01*
X185297619Y-76166666D02*
X184297619Y-76833333D01*
X185297619Y-76833333D02*
X184297619Y-76166666D01*
X209773809Y-76500000D02*
X209297619Y-76500000D01*
X210297619Y-76166666D02*
X209773809Y-76500000D01*
X210297619Y-76833333D01*
X192047619Y-72916666D02*
X191047619Y-73250000D01*
X192047619Y-73583333D01*
X191142857Y-74488095D02*
X191095238Y-74440476D01*
X191047619Y-74297619D01*
X191047619Y-74202380D01*
X191095238Y-74059523D01*
X191190476Y-73964285D01*
X191285714Y-73916666D01*
X191476190Y-73869047D01*
X191619047Y-73869047D01*
X191809523Y-73916666D01*
X191904761Y-73964285D01*
X192000000Y-74059523D01*
X192047619Y-74202380D01*
X192047619Y-74297619D01*
X192000000Y-74440476D01*
X191952380Y-74488095D01*
X191142857Y-75488095D02*
X191095238Y-75440476D01*
X191047619Y-75297619D01*
X191047619Y-75202380D01*
X191095238Y-75059523D01*
X191190476Y-74964285D01*
X191285714Y-74916666D01*
X191476190Y-74869047D01*
X191619047Y-74869047D01*
X191809523Y-74916666D01*
X191904761Y-74964285D01*
X192000000Y-75059523D01*
X192047619Y-75202380D01*
X192047619Y-75297619D01*
X192000000Y-75440476D01*
X191952380Y-75488095D01*
X207797619Y-76166666D02*
X206797619Y-76833333D01*
X207797619Y-76833333D02*
X206797619Y-76166666D01*
X187273809Y-76500000D02*
X186797619Y-76500000D01*
X187797619Y-76166666D02*
X187273809Y-76500000D01*
X187797619Y-76833333D01*
X214547619Y-72916666D02*
X213547619Y-73250000D01*
X214547619Y-73583333D01*
X213642857Y-74488095D02*
X213595238Y-74440476D01*
X213547619Y-74297619D01*
X213547619Y-74202380D01*
X213595238Y-74059523D01*
X213690476Y-73964285D01*
X213785714Y-73916666D01*
X213976190Y-73869047D01*
X214119047Y-73869047D01*
X214309523Y-73916666D01*
X214404761Y-73964285D01*
X214500000Y-74059523D01*
X214547619Y-74202380D01*
X214547619Y-74297619D01*
X214500000Y-74440476D01*
X214452380Y-74488095D01*
X213642857Y-75488095D02*
X213595238Y-75440476D01*
X213547619Y-75297619D01*
X213547619Y-75202380D01*
X213595238Y-75059523D01*
X213690476Y-74964285D01*
X213785714Y-74916666D01*
X213976190Y-74869047D01*
X214119047Y-74869047D01*
X214309523Y-74916666D01*
X214404761Y-74964285D01*
X214500000Y-75059523D01*
X214547619Y-75202380D01*
X214547619Y-75297619D01*
X214500000Y-75440476D01*
X214452380Y-75488095D01*
X180750000Y-73488095D02*
X180797619Y-73392857D01*
X180797619Y-73250000D01*
X180750000Y-73107142D01*
X180654761Y-73011904D01*
X180559523Y-72964285D01*
X180369047Y-72916666D01*
X180226190Y-72916666D01*
X180035714Y-72964285D01*
X179940476Y-73011904D01*
X179845238Y-73107142D01*
X179797619Y-73250000D01*
X179797619Y-73345238D01*
X179845238Y-73488095D01*
X179892857Y-73535714D01*
X180226190Y-73535714D01*
X180226190Y-73345238D01*
X179797619Y-73964285D02*
X180797619Y-73964285D01*
X179797619Y-74535714D01*
X180797619Y-74535714D01*
X179797619Y-75011904D02*
X180797619Y-75011904D01*
X180797619Y-75250000D01*
X180750000Y-75392857D01*
X180654761Y-75488095D01*
X180559523Y-75535714D01*
X180369047Y-75583333D01*
X180226190Y-75583333D01*
X180035714Y-75535714D01*
X179940476Y-75488095D01*
X179845238Y-75392857D01*
X179797619Y-75250000D01*
X179797619Y-75011904D01*
X203250000Y-73488095D02*
X203297619Y-73392857D01*
X203297619Y-73250000D01*
X203250000Y-73107142D01*
X203154761Y-73011904D01*
X203059523Y-72964285D01*
X202869047Y-72916666D01*
X202726190Y-72916666D01*
X202535714Y-72964285D01*
X202440476Y-73011904D01*
X202345238Y-73107142D01*
X202297619Y-73250000D01*
X202297619Y-73345238D01*
X202345238Y-73488095D01*
X202392857Y-73535714D01*
X202726190Y-73535714D01*
X202726190Y-73345238D01*
X202297619Y-73964285D02*
X203297619Y-73964285D01*
X202297619Y-74535714D01*
X203297619Y-74535714D01*
X202297619Y-75011904D02*
X203297619Y-75011904D01*
X203297619Y-75250000D01*
X203250000Y-75392857D01*
X203154761Y-75488095D01*
X203059523Y-75535714D01*
X202869047Y-75583333D01*
X202726190Y-75583333D01*
X202535714Y-75535714D01*
X202440476Y-75488095D01*
X202345238Y-75392857D01*
X202297619Y-75250000D01*
X202297619Y-75011904D01*
X216809523Y-74702380D02*
X216333333Y-74702380D01*
X216333333Y-73702380D01*
X171809523Y-74702380D02*
X171333333Y-74702380D01*
X171333333Y-73702380D01*
X133809523Y-74702380D02*
X133476190Y-74226190D01*
X133238095Y-74702380D02*
X133238095Y-73702380D01*
X133619047Y-73702380D01*
X133714285Y-73750000D01*
X133761904Y-73797619D01*
X133809523Y-73892857D01*
X133809523Y-74035714D01*
X133761904Y-74130952D01*
X133714285Y-74178571D01*
X133619047Y-74226190D01*
X133238095Y-74226190D01*
X169547619Y-72916666D02*
X168547619Y-73250000D01*
X169547619Y-73583333D01*
X168642857Y-74488095D02*
X168595238Y-74440476D01*
X168547619Y-74297619D01*
X168547619Y-74202380D01*
X168595238Y-74059523D01*
X168690476Y-73964285D01*
X168785714Y-73916666D01*
X168976190Y-73869047D01*
X169119047Y-73869047D01*
X169309523Y-73916666D01*
X169404761Y-73964285D01*
X169500000Y-74059523D01*
X169547619Y-74202380D01*
X169547619Y-74297619D01*
X169500000Y-74440476D01*
X169452380Y-74488095D01*
X168642857Y-75488095D02*
X168595238Y-75440476D01*
X168547619Y-75297619D01*
X168547619Y-75202380D01*
X168595238Y-75059523D01*
X168690476Y-74964285D01*
X168785714Y-74916666D01*
X168976190Y-74869047D01*
X169119047Y-74869047D01*
X169309523Y-74916666D01*
X169404761Y-74964285D01*
X169500000Y-75059523D01*
X169547619Y-75202380D01*
X169547619Y-75297619D01*
X169500000Y-75440476D01*
X169452380Y-75488095D01*
X164773809Y-76500000D02*
X164297619Y-76500000D01*
X165297619Y-76166666D02*
X164773809Y-76500000D01*
X165297619Y-76833333D01*
X162797619Y-76166666D02*
X161797619Y-76833333D01*
X162797619Y-76833333D02*
X161797619Y-76166666D01*
X158250000Y-73488095D02*
X158297619Y-73392857D01*
X158297619Y-73250000D01*
X158250000Y-73107142D01*
X158154761Y-73011904D01*
X158059523Y-72964285D01*
X157869047Y-72916666D01*
X157726190Y-72916666D01*
X157535714Y-72964285D01*
X157440476Y-73011904D01*
X157345238Y-73107142D01*
X157297619Y-73250000D01*
X157297619Y-73345238D01*
X157345238Y-73488095D01*
X157392857Y-73535714D01*
X157726190Y-73535714D01*
X157726190Y-73345238D01*
X157297619Y-73964285D02*
X158297619Y-73964285D01*
X157297619Y-74535714D01*
X158297619Y-74535714D01*
X157297619Y-75011904D02*
X158297619Y-75011904D01*
X158297619Y-75250000D01*
X158250000Y-75392857D01*
X158154761Y-75488095D01*
X158059523Y-75535714D01*
X157869047Y-75583333D01*
X157726190Y-75583333D01*
X157535714Y-75535714D01*
X157440476Y-75488095D01*
X157345238Y-75392857D01*
X157297619Y-75250000D01*
X157297619Y-75011904D01*
X140297619Y-76166666D02*
X139297619Y-76833333D01*
X140297619Y-76833333D02*
X139297619Y-76166666D01*
X142273809Y-76500000D02*
X141797619Y-76500000D01*
X142797619Y-76166666D02*
X142273809Y-76500000D01*
X142797619Y-76833333D01*
X147047619Y-72916666D02*
X146047619Y-73250000D01*
X147047619Y-73583333D01*
X146142857Y-74488095D02*
X146095238Y-74440476D01*
X146047619Y-74297619D01*
X146047619Y-74202380D01*
X146095238Y-74059523D01*
X146190476Y-73964285D01*
X146285714Y-73916666D01*
X146476190Y-73869047D01*
X146619047Y-73869047D01*
X146809523Y-73916666D01*
X146904761Y-73964285D01*
X147000000Y-74059523D01*
X147047619Y-74202380D01*
X147047619Y-74297619D01*
X147000000Y-74440476D01*
X146952380Y-74488095D01*
X146142857Y-75488095D02*
X146095238Y-75440476D01*
X146047619Y-75297619D01*
X146047619Y-75202380D01*
X146095238Y-75059523D01*
X146190476Y-74964285D01*
X146285714Y-74916666D01*
X146476190Y-74869047D01*
X146619047Y-74869047D01*
X146809523Y-74916666D01*
X146904761Y-74964285D01*
X147000000Y-75059523D01*
X147047619Y-75202380D01*
X147047619Y-75297619D01*
X147000000Y-75440476D01*
X146952380Y-75488095D01*
X135750000Y-73488095D02*
X135797619Y-73392857D01*
X135797619Y-73250000D01*
X135750000Y-73107142D01*
X135654761Y-73011904D01*
X135559523Y-72964285D01*
X135369047Y-72916666D01*
X135226190Y-72916666D01*
X135035714Y-72964285D01*
X134940476Y-73011904D01*
X134845238Y-73107142D01*
X134797619Y-73250000D01*
X134797619Y-73345238D01*
X134845238Y-73488095D01*
X134892857Y-73535714D01*
X135226190Y-73535714D01*
X135226190Y-73345238D01*
X134797619Y-73964285D02*
X135797619Y-73964285D01*
X134797619Y-74535714D01*
X135797619Y-74535714D01*
X134797619Y-75011904D02*
X135797619Y-75011904D01*
X135797619Y-75250000D01*
X135750000Y-75392857D01*
X135654761Y-75488095D01*
X135559523Y-75535714D01*
X135369047Y-75583333D01*
X135226190Y-75583333D01*
X135035714Y-75535714D01*
X134940476Y-75488095D01*
X134845238Y-75392857D01*
X134797619Y-75250000D01*
X134797619Y-75011904D01*
D11*
%TO.C,J2*%
X207200000Y-94910000D02*
X207200000Y-96750000D01*
X207200000Y-96750000D02*
X208000000Y-96750000D01*
X207200000Y-91590000D02*
X207200000Y-89750000D01*
X207200000Y-89750000D02*
X208000000Y-89750000D01*
X210750000Y-96750000D02*
X212240000Y-96750000D01*
X212250000Y-96750000D02*
X212250000Y-89750000D01*
X212250000Y-89750000D02*
X210750000Y-89750000D01*
X207200000Y-94910000D02*
X206000000Y-94910000D01*
X184700000Y-94910000D02*
X184700000Y-96750000D01*
X184700000Y-96750000D02*
X185500000Y-96750000D01*
X184700000Y-91590000D02*
X184700000Y-89750000D01*
X184700000Y-89750000D02*
X185500000Y-89750000D01*
X188250000Y-96750000D02*
X189740000Y-96750000D01*
X189750000Y-96750000D02*
X189750000Y-89750000D01*
X189750000Y-89750000D02*
X188250000Y-89750000D01*
X184700000Y-94910000D02*
X183500000Y-94910000D01*
X162200000Y-94910000D02*
X162200000Y-96750000D01*
X162200000Y-96750000D02*
X163000000Y-96750000D01*
X162200000Y-91590000D02*
X162200000Y-89750000D01*
X162200000Y-89750000D02*
X163000000Y-89750000D01*
X165750000Y-96750000D02*
X167240000Y-96750000D01*
X167250000Y-96750000D02*
X167250000Y-89750000D01*
X167250000Y-89750000D02*
X165750000Y-89750000D01*
X162200000Y-94910000D02*
X161000000Y-94910000D01*
X139700000Y-94910000D02*
X139700000Y-96750000D01*
X139700000Y-96750000D02*
X140500000Y-96750000D01*
X139700000Y-91590000D02*
X139700000Y-89750000D01*
X139700000Y-89750000D02*
X140500000Y-89750000D01*
X143250000Y-96750000D02*
X144740000Y-96750000D01*
X144750000Y-96750000D02*
X144750000Y-89750000D01*
X144750000Y-89750000D02*
X143250000Y-89750000D01*
X139700000Y-94910000D02*
X138500000Y-94910000D01*
%TD*%
M02*
