%TF.GenerationSoftware,KiCad,Pcbnew,(5.1.10-1-10_14)*%
%TF.CreationDate,2021-07-07T23:54:26+09:00*%
%TF.ProjectId,StickPlate,53746963-6b50-46c6-9174-652e6b696361,rev?*%
%TF.SameCoordinates,Original*%
%TF.FileFunction,Soldermask,Top*%
%TF.FilePolarity,Negative*%
%FSLAX46Y46*%
G04 Gerber Fmt 4.6, Leading zero omitted, Abs format (unit mm)*
G04 Created by KiCad (PCBNEW (5.1.10-1-10_14)) date 2021-07-07 23:54:27*
%MOMM*%
%LPD*%
G01*
G04 APERTURE LIST*
%ADD10C,0.300000*%
%ADD11C,2.500000*%
%ADD12R,2.200000X1.800000*%
%ADD13R,1.300000X0.300000*%
%ADD14O,1.524000X2.286000*%
%ADD15R,1.524000X2.286000*%
G04 APERTURE END LIST*
D10*
%TO.C,REF\u002A\u002A*%
X140062500Y-70500000D03*
X138875000Y-70500000D03*
X140656250Y-70500000D03*
X139468750Y-70500000D03*
X143625000Y-70500000D03*
X143031250Y-70500000D03*
X142437500Y-70500000D03*
X141843750Y-70500000D03*
X141250000Y-70500000D03*
%TD*%
%TO.C,REF\u002A\u002A*%
X162562500Y-70500000D03*
X161375000Y-70500000D03*
X163156250Y-70500000D03*
X161968750Y-70500000D03*
X166125000Y-70500000D03*
X165531250Y-70500000D03*
X164937500Y-70500000D03*
X164343750Y-70500000D03*
X163750000Y-70500000D03*
%TD*%
%TO.C,REF\u002A\u002A*%
X173750000Y-105250000D03*
X173750000Y-105843750D03*
X173750000Y-106437500D03*
X173750000Y-107031250D03*
X173750000Y-107625000D03*
X173750000Y-103468750D03*
X173750000Y-104656250D03*
X173750000Y-102875000D03*
X173750000Y-104062500D03*
%TD*%
%TO.C,REF\u002A\u002A*%
X153750000Y-105250000D03*
X153750000Y-105843750D03*
X153750000Y-106437500D03*
X153750000Y-107031250D03*
X153750000Y-107625000D03*
X153750000Y-103468750D03*
X153750000Y-104656250D03*
X153750000Y-102875000D03*
X153750000Y-104062500D03*
%TD*%
%TO.C,REF\u002A\u002A*%
X151250000Y-105250000D03*
X151250000Y-105843750D03*
X151250000Y-106437500D03*
X151250000Y-107031250D03*
X151250000Y-107625000D03*
X151250000Y-103468750D03*
X151250000Y-104656250D03*
X151250000Y-102875000D03*
X151250000Y-104062500D03*
%TD*%
%TO.C,REF\u002A\u002A*%
X131250000Y-104062500D03*
X131250000Y-102875000D03*
X131250000Y-104656250D03*
X131250000Y-103468750D03*
X131250000Y-107625000D03*
X131250000Y-107031250D03*
X131250000Y-106437500D03*
X131250000Y-105843750D03*
X131250000Y-105250000D03*
%TD*%
D11*
%TO.C,REF\u002A\u002A*%
X156500000Y-117250000D03*
%TD*%
%TO.C,REF\u002A\u002A*%
X170930000Y-125770000D03*
%TD*%
%TO.C,REF\u002A\u002A*%
X134000000Y-117250000D03*
%TD*%
%TO.C,REF\u002A\u002A*%
X148430000Y-125770000D03*
%TD*%
D12*
%TO.C,J2*%
X141900000Y-90100000D03*
X141900000Y-96400000D03*
D13*
X139150000Y-94250000D03*
X139150000Y-93750000D03*
X139150000Y-93250000D03*
X139150000Y-92750000D03*
X139150000Y-92250000D03*
%TD*%
D14*
%TO.C,J1*%
X144810000Y-74250000D03*
X142270000Y-74250000D03*
X139730000Y-74250000D03*
D15*
X137190000Y-74250000D03*
%TD*%
D14*
%TO.C,J5*%
X167310000Y-74250000D03*
X164770000Y-74250000D03*
X162230000Y-74250000D03*
D15*
X159690000Y-74250000D03*
%TD*%
D12*
%TO.C,J6*%
X164400000Y-90100000D03*
X164400000Y-96400000D03*
D13*
X161650000Y-94250000D03*
X161650000Y-93750000D03*
X161650000Y-93250000D03*
X161650000Y-92750000D03*
X161650000Y-92250000D03*
%TD*%
M02*
