%TF.GenerationSoftware,KiCad,Pcbnew,(5.1.10-1-10_14)*%
%TF.CreationDate,2021-07-07T23:54:26+09:00*%
%TF.ProjectId,StickPlate,53746963-6b50-46c6-9174-652e6b696361,rev?*%
%TF.SameCoordinates,Original*%
%TF.FileFunction,Copper,L1,Top*%
%TF.FilePolarity,Positive*%
%FSLAX46Y46*%
G04 Gerber Fmt 4.6, Leading zero omitted, Abs format (unit mm)*
G04 Created by KiCad (PCBNEW (5.1.10-1-10_14)) date 2021-07-07 23:54:26*
%MOMM*%
%LPD*%
G01*
G04 APERTURE LIST*
%TA.AperFunction,SMDPad,CuDef*%
%ADD10R,2.200000X1.800000*%
%TD*%
%TA.AperFunction,SMDPad,CuDef*%
%ADD11R,1.300000X0.300000*%
%TD*%
%TA.AperFunction,SMDPad,CuDef*%
%ADD12O,1.524000X2.286000*%
%TD*%
%TA.AperFunction,SMDPad,CuDef*%
%ADD13R,1.524000X2.286000*%
%TD*%
%TA.AperFunction,Conductor*%
%ADD14C,0.250000*%
%TD*%
%TA.AperFunction,Conductor*%
%ADD15C,0.300000*%
%TD*%
%TA.AperFunction,Conductor*%
%ADD16C,0.254000*%
%TD*%
%TA.AperFunction,Conductor*%
%ADD17C,0.100000*%
%TD*%
G04 APERTURE END LIST*
D10*
%TO.P,J2,MP*%
%TO.N,N/C*%
X141900000Y-90100000D03*
X141900000Y-96400000D03*
D11*
%TO.P,J2,1*%
%TO.N,Net-(J1-Pad3)*%
X139150000Y-94250000D03*
%TO.P,J2,2*%
%TO.N,Net-(J1-Pad1)*%
X139150000Y-93750000D03*
%TO.P,J2,3*%
%TO.N,Net-(J2-Pad3)*%
X139150000Y-93250000D03*
%TO.P,J2,4*%
%TO.N,Net-(J1-Pad2)*%
X139150000Y-92750000D03*
%TO.P,J2,5*%
%TO.N,Net-(J1-Pad4)*%
X139150000Y-92250000D03*
%TD*%
D12*
%TO.P,J1,4*%
%TO.N,Net-(J1-Pad4)*%
X144810000Y-74250000D03*
%TO.P,J1,3*%
%TO.N,Net-(J1-Pad3)*%
X142270000Y-74250000D03*
%TO.P,J1,2*%
%TO.N,Net-(J1-Pad2)*%
X139730000Y-74250000D03*
D13*
%TO.P,J1,1*%
%TO.N,Net-(J1-Pad1)*%
X137190000Y-74250000D03*
%TD*%
D12*
%TO.P,J5,4*%
%TO.N,Net-(J5-Pad4)*%
X167310000Y-74250000D03*
%TO.P,J5,3*%
%TO.N,Net-(J5-Pad3)*%
X164770000Y-74250000D03*
%TO.P,J5,2*%
%TO.N,Net-(J5-Pad2)*%
X162230000Y-74250000D03*
D13*
%TO.P,J5,1*%
%TO.N,Net-(J5-Pad1)*%
X159690000Y-74250000D03*
%TD*%
D10*
%TO.P,J6,MP*%
%TO.N,N/C*%
X164400000Y-90100000D03*
X164400000Y-96400000D03*
D11*
%TO.P,J6,1*%
%TO.N,Net-(J5-Pad3)*%
X161650000Y-94250000D03*
%TO.P,J6,2*%
%TO.N,Net-(J5-Pad1)*%
X161650000Y-93750000D03*
%TO.P,J6,3*%
%TO.N,Net-(J6-Pad3)*%
X161650000Y-93250000D03*
%TO.P,J6,4*%
%TO.N,Net-(J5-Pad2)*%
X161650000Y-92750000D03*
%TO.P,J6,5*%
%TO.N,Net-(J5-Pad4)*%
X161650000Y-92250000D03*
%TD*%
D14*
%TO.N,Net-(J1-Pad1)*%
X139150000Y-93750000D02*
X146500000Y-93750000D01*
%TO.N,Net-(J1-Pad2)*%
X142688264Y-72750000D02*
X141230000Y-72750000D01*
X141230000Y-72750000D02*
X139730000Y-74250000D01*
X143500000Y-73561736D02*
X142688264Y-72750000D01*
X143500000Y-77578236D02*
X143500000Y-73561736D01*
X136500000Y-91750000D02*
X136500000Y-84578236D01*
X137500000Y-92750000D02*
X136500000Y-91750000D01*
X136500000Y-84578236D02*
X143500000Y-77578236D01*
X139150000Y-92750000D02*
X137500000Y-92750000D01*
%TO.N,Net-(J1-Pad3)*%
X138250000Y-94250000D02*
X139150000Y-94250000D01*
X136049990Y-92049990D02*
X138250000Y-94250000D01*
X136049991Y-84391835D02*
X136049990Y-92049990D01*
X142270000Y-78171826D02*
X136049991Y-84391835D01*
X142270000Y-74250000D02*
X142270000Y-78171826D01*
%TO.N,Net-(J1-Pad4)*%
X144810000Y-74250000D02*
X144750000Y-74250000D01*
D15*
X137000000Y-91578236D02*
X137671764Y-92250000D01*
X137000000Y-84750000D02*
X137000000Y-91578236D01*
X137671764Y-92250000D02*
X139150000Y-92250000D01*
X140742000Y-81008000D02*
X140500000Y-81250000D01*
X140500000Y-81250000D02*
X137000000Y-84750000D01*
X140500000Y-81250000D02*
X144810000Y-76940000D01*
X144810000Y-76940000D02*
X144810000Y-76060000D01*
X144810000Y-76060000D02*
X144810000Y-74250000D01*
%TO.N,Net-(J5-Pad4)*%
X167310000Y-76940000D02*
X167310000Y-76060000D01*
X163000000Y-81250000D02*
X167310000Y-76940000D01*
X167310000Y-76060000D02*
X167310000Y-74250000D01*
X163242000Y-81008000D02*
X163000000Y-81250000D01*
X163000000Y-81250000D02*
X159500000Y-84750000D01*
D14*
X167310000Y-74250000D02*
X167250000Y-74250000D01*
D15*
X160171764Y-92250000D02*
X161650000Y-92250000D01*
X159500000Y-84750000D02*
X159500000Y-91578236D01*
X159500000Y-91578236D02*
X160171764Y-92250000D01*
D14*
%TO.N,Net-(J5-Pad3)*%
X160750000Y-94250000D02*
X161650000Y-94250000D01*
X158549990Y-92049990D02*
X160750000Y-94250000D01*
X158549991Y-84391835D02*
X158549990Y-92049990D01*
X164770000Y-78171826D02*
X158549991Y-84391835D01*
X164770000Y-74250000D02*
X164770000Y-78171826D01*
%TO.N,Net-(J5-Pad2)*%
X165188264Y-72750000D02*
X163730000Y-72750000D01*
X166000000Y-73561736D02*
X165188264Y-72750000D01*
X163730000Y-72750000D02*
X162230000Y-74250000D01*
X159000000Y-91750000D02*
X159000000Y-84578236D01*
X166000000Y-77578236D02*
X166000000Y-73561736D01*
X160000000Y-92750000D02*
X159000000Y-91750000D01*
X159000000Y-84578236D02*
X166000000Y-77578236D01*
X161650000Y-92750000D02*
X160000000Y-92750000D01*
%TO.N,Net-(J5-Pad1)*%
X161650000Y-93750000D02*
X169000000Y-93750000D01*
%TD*%
D16*
%TO.N,Net-(J1-Pad1)*%
X144635079Y-71377320D02*
X144644242Y-71378283D01*
X144644244Y-71378283D01*
X144935596Y-71406850D01*
X144935598Y-71406850D01*
X144967581Y-71410000D01*
X149967721Y-71410000D01*
X150065424Y-71419580D01*
X150128356Y-71438580D01*
X150186405Y-71469445D01*
X150237343Y-71510989D01*
X150279248Y-71561644D01*
X150310515Y-71619471D01*
X150329956Y-71682272D01*
X150340000Y-71777835D01*
X150340001Y-101217572D01*
X150340000Y-101217582D01*
X150340000Y-101532419D01*
X150343296Y-101565884D01*
X150343296Y-101585349D01*
X150344259Y-101594514D01*
X150373000Y-101850741D01*
X150373000Y-108633573D01*
X150372680Y-108635079D01*
X150371717Y-108644244D01*
X150343150Y-108935596D01*
X150343150Y-108935608D01*
X150340001Y-108967581D01*
X150340000Y-128717721D01*
X150330420Y-128815424D01*
X150311420Y-128878357D01*
X150280554Y-128936406D01*
X150239011Y-128987343D01*
X150188356Y-129029248D01*
X150130870Y-129060331D01*
X144267042Y-125584344D01*
X146545000Y-125584344D01*
X146545000Y-125955656D01*
X146617439Y-126319834D01*
X146759534Y-126662882D01*
X146965825Y-126971618D01*
X147228382Y-127234175D01*
X147537118Y-127440466D01*
X147880166Y-127582561D01*
X148244344Y-127655000D01*
X148615656Y-127655000D01*
X148979834Y-127582561D01*
X149322882Y-127440466D01*
X149631618Y-127234175D01*
X149894175Y-126971618D01*
X150100466Y-126662882D01*
X150242561Y-126319834D01*
X150315000Y-125955656D01*
X150315000Y-125584344D01*
X150242561Y-125220166D01*
X150100466Y-124877118D01*
X149894175Y-124568382D01*
X149631618Y-124305825D01*
X149322882Y-124099534D01*
X148979834Y-123957439D01*
X148615656Y-123885000D01*
X148244344Y-123885000D01*
X147880166Y-123957439D01*
X147537118Y-124099534D01*
X147228382Y-124305825D01*
X146965825Y-124568382D01*
X146759534Y-124877118D01*
X146617439Y-125220166D01*
X146545000Y-125584344D01*
X144267042Y-125584344D01*
X132229252Y-118448529D01*
X132220096Y-118437382D01*
X132189030Y-118379446D01*
X132169810Y-118316578D01*
X132160000Y-118219999D01*
X132160000Y-117661888D01*
X132187439Y-117799834D01*
X132329534Y-118142882D01*
X132535825Y-118451618D01*
X132798382Y-118714175D01*
X133107118Y-118920466D01*
X133450166Y-119062561D01*
X133814344Y-119135000D01*
X134185656Y-119135000D01*
X134549834Y-119062561D01*
X134892882Y-118920466D01*
X135201618Y-118714175D01*
X135464175Y-118451618D01*
X135670466Y-118142882D01*
X135812561Y-117799834D01*
X135885000Y-117435656D01*
X135885000Y-117064344D01*
X135812561Y-116700166D01*
X135670466Y-116357118D01*
X135464175Y-116048382D01*
X135201618Y-115785825D01*
X134892882Y-115579534D01*
X134549834Y-115437439D01*
X134185656Y-115365000D01*
X133814344Y-115365000D01*
X133450166Y-115437439D01*
X133107118Y-115579534D01*
X132798382Y-115785825D01*
X132535825Y-116048382D01*
X132329534Y-116357118D01*
X132187439Y-116700166D01*
X132160000Y-116838112D01*
X132160000Y-108967581D01*
X132156704Y-108934116D01*
X132156704Y-108914651D01*
X132155741Y-108905486D01*
X132127000Y-108649258D01*
X132127000Y-101866426D01*
X132127320Y-101864921D01*
X132128283Y-101855756D01*
X132156850Y-101564404D01*
X132156850Y-101564402D01*
X132160000Y-101532419D01*
X132160000Y-95500000D01*
X140161928Y-95500000D01*
X140161928Y-97300000D01*
X140174188Y-97424482D01*
X140210498Y-97544180D01*
X140269463Y-97654494D01*
X140348815Y-97751185D01*
X140445506Y-97830537D01*
X140555820Y-97889502D01*
X140675518Y-97925812D01*
X140800000Y-97938072D01*
X143000000Y-97938072D01*
X143124482Y-97925812D01*
X143244180Y-97889502D01*
X143354494Y-97830537D01*
X143451185Y-97751185D01*
X143530537Y-97654494D01*
X143589502Y-97544180D01*
X143625812Y-97424482D01*
X143638072Y-97300000D01*
X143638072Y-95500000D01*
X143625812Y-95375518D01*
X143589502Y-95255820D01*
X143530537Y-95145506D01*
X143451185Y-95048815D01*
X143354494Y-94969463D01*
X143244180Y-94910498D01*
X143124482Y-94874188D01*
X143000000Y-94861928D01*
X140800000Y-94861928D01*
X140675518Y-94874188D01*
X140555820Y-94910498D01*
X140445506Y-94969463D01*
X140348815Y-95048815D01*
X140269463Y-95145506D01*
X140210498Y-95255820D01*
X140174188Y-95375518D01*
X140161928Y-95500000D01*
X132160000Y-95500000D01*
X132160000Y-92049990D01*
X135286314Y-92049990D01*
X135289990Y-92087312D01*
X135289990Y-92087322D01*
X135300987Y-92198975D01*
X135339435Y-92325724D01*
X135344444Y-92342236D01*
X135415016Y-92474266D01*
X135483658Y-92557906D01*
X135509989Y-92589990D01*
X135538987Y-92613788D01*
X137686201Y-94761003D01*
X137709999Y-94790001D01*
X137738997Y-94813799D01*
X137825723Y-94884974D01*
X137873475Y-94910498D01*
X137957753Y-94955546D01*
X138101014Y-94999003D01*
X138212667Y-95010000D01*
X138212677Y-95010000D01*
X138250000Y-95013676D01*
X138287322Y-95010000D01*
X138323393Y-95010000D01*
X138375518Y-95025812D01*
X138500000Y-95038072D01*
X139800000Y-95038072D01*
X139924482Y-95025812D01*
X140044180Y-94989502D01*
X140154494Y-94930537D01*
X140251185Y-94851185D01*
X140330537Y-94754494D01*
X140389502Y-94644180D01*
X140425812Y-94524482D01*
X140438072Y-94400000D01*
X140438072Y-94100000D01*
X140427882Y-93996535D01*
X140435000Y-93931750D01*
X140402753Y-93899503D01*
X140389502Y-93855820D01*
X140332939Y-93750000D01*
X140389502Y-93644180D01*
X140402753Y-93600497D01*
X140435000Y-93568250D01*
X140427882Y-93503465D01*
X140438072Y-93400000D01*
X140438072Y-93100000D01*
X140428223Y-93000000D01*
X140438072Y-92900000D01*
X140438072Y-92600000D01*
X140428223Y-92500000D01*
X140438072Y-92400000D01*
X140438072Y-92100000D01*
X140425812Y-91975518D01*
X140389502Y-91855820D01*
X140330537Y-91745506D01*
X140251185Y-91648815D01*
X140154494Y-91569463D01*
X140044180Y-91510498D01*
X139924482Y-91474188D01*
X139800000Y-91461928D01*
X138500000Y-91461928D01*
X138468808Y-91465000D01*
X137996921Y-91465000D01*
X137785000Y-91253079D01*
X137785000Y-89200000D01*
X140161928Y-89200000D01*
X140161928Y-91000000D01*
X140174188Y-91124482D01*
X140210498Y-91244180D01*
X140269463Y-91354494D01*
X140348815Y-91451185D01*
X140445506Y-91530537D01*
X140555820Y-91589502D01*
X140675518Y-91625812D01*
X140800000Y-91638072D01*
X143000000Y-91638072D01*
X143124482Y-91625812D01*
X143244180Y-91589502D01*
X143354494Y-91530537D01*
X143451185Y-91451185D01*
X143530537Y-91354494D01*
X143589502Y-91244180D01*
X143625812Y-91124482D01*
X143638072Y-91000000D01*
X143638072Y-89200000D01*
X143625812Y-89075518D01*
X143589502Y-88955820D01*
X143530537Y-88845506D01*
X143451185Y-88748815D01*
X143354494Y-88669463D01*
X143244180Y-88610498D01*
X143124482Y-88574188D01*
X143000000Y-88561928D01*
X140800000Y-88561928D01*
X140675518Y-88574188D01*
X140555820Y-88610498D01*
X140445506Y-88669463D01*
X140348815Y-88748815D01*
X140269463Y-88845506D01*
X140210498Y-88955820D01*
X140174188Y-89075518D01*
X140161928Y-89200000D01*
X137785000Y-89200000D01*
X137785000Y-85075157D01*
X141082345Y-81777813D01*
X141082350Y-81777806D01*
X141171925Y-81688232D01*
X145337817Y-77522341D01*
X145367764Y-77497764D01*
X145465862Y-77378233D01*
X145538754Y-77241860D01*
X145583641Y-77093887D01*
X145595000Y-76978561D01*
X145595000Y-76978554D01*
X145598797Y-76940001D01*
X145595000Y-76901448D01*
X145595000Y-75793987D01*
X145802608Y-75623608D01*
X145977183Y-75410887D01*
X146106904Y-75168195D01*
X146186786Y-74904859D01*
X146207000Y-74699624D01*
X146207000Y-73800375D01*
X146186786Y-73595140D01*
X146106904Y-73331805D01*
X145977183Y-73089113D01*
X145802607Y-72876392D01*
X145589886Y-72701817D01*
X145347194Y-72572096D01*
X145083859Y-72492214D01*
X144810000Y-72465241D01*
X144536140Y-72492214D01*
X144272805Y-72572096D01*
X144030113Y-72701817D01*
X143856974Y-72843909D01*
X143252067Y-72239002D01*
X143228265Y-72209999D01*
X143112540Y-72115026D01*
X142980511Y-72044454D01*
X142837250Y-72000997D01*
X142725597Y-71990000D01*
X142725586Y-71990000D01*
X142688264Y-71986324D01*
X142650942Y-71990000D01*
X141267322Y-71990000D01*
X141229999Y-71986324D01*
X141192676Y-71990000D01*
X141192667Y-71990000D01*
X141081014Y-72000997D01*
X140937753Y-72044454D01*
X140805724Y-72115026D01*
X140689999Y-72209999D01*
X140666201Y-72238997D01*
X140310145Y-72595054D01*
X140267194Y-72572096D01*
X140003859Y-72492214D01*
X139730000Y-72465241D01*
X139456140Y-72492214D01*
X139192805Y-72572096D01*
X138950113Y-72701817D01*
X138737392Y-72876393D01*
X138585579Y-73061379D01*
X138577812Y-72982518D01*
X138541502Y-72862820D01*
X138482537Y-72752506D01*
X138403185Y-72655815D01*
X138306494Y-72576463D01*
X138196180Y-72517498D01*
X138076482Y-72481188D01*
X137952000Y-72468928D01*
X137475750Y-72472000D01*
X137317000Y-72630750D01*
X137317000Y-74123000D01*
X137337000Y-74123000D01*
X137337000Y-74377000D01*
X137317000Y-74377000D01*
X137317000Y-75869250D01*
X137475750Y-76028000D01*
X137952000Y-76031072D01*
X138076482Y-76018812D01*
X138196180Y-75982502D01*
X138306494Y-75923537D01*
X138403185Y-75844185D01*
X138482537Y-75747494D01*
X138541502Y-75637180D01*
X138577812Y-75517482D01*
X138585579Y-75438622D01*
X138737393Y-75623608D01*
X138950114Y-75798183D01*
X139192806Y-75927904D01*
X139456141Y-76007786D01*
X139730000Y-76034759D01*
X140003860Y-76007786D01*
X140267195Y-75927904D01*
X140509887Y-75798183D01*
X140722608Y-75623608D01*
X140897183Y-75410887D01*
X141000000Y-75218529D01*
X141102817Y-75410887D01*
X141277393Y-75623608D01*
X141490114Y-75798183D01*
X141510000Y-75808812D01*
X141510001Y-77857023D01*
X135538989Y-83828036D01*
X135509991Y-83851834D01*
X135486193Y-83880832D01*
X135486192Y-83880833D01*
X135415017Y-83967559D01*
X135344445Y-84099589D01*
X135300989Y-84242850D01*
X135286315Y-84391835D01*
X135289992Y-84429167D01*
X135289990Y-92012667D01*
X135286314Y-92049990D01*
X132160000Y-92049990D01*
X132160000Y-75393000D01*
X135789928Y-75393000D01*
X135802188Y-75517482D01*
X135838498Y-75637180D01*
X135897463Y-75747494D01*
X135976815Y-75844185D01*
X136073506Y-75923537D01*
X136183820Y-75982502D01*
X136303518Y-76018812D01*
X136428000Y-76031072D01*
X136904250Y-76028000D01*
X137063000Y-75869250D01*
X137063000Y-74377000D01*
X135951750Y-74377000D01*
X135793000Y-74535750D01*
X135789928Y-75393000D01*
X132160000Y-75393000D01*
X132160000Y-73107000D01*
X135789928Y-73107000D01*
X135793000Y-73964250D01*
X135951750Y-74123000D01*
X137063000Y-74123000D01*
X137063000Y-72630750D01*
X136904250Y-72472000D01*
X136428000Y-72468928D01*
X136303518Y-72481188D01*
X136183820Y-72517498D01*
X136073506Y-72576463D01*
X135976815Y-72655815D01*
X135897463Y-72752506D01*
X135838498Y-72862820D01*
X135802188Y-72982518D01*
X135789928Y-73107000D01*
X132160000Y-73107000D01*
X132160000Y-71782279D01*
X132169580Y-71684576D01*
X132188580Y-71621644D01*
X132219445Y-71563595D01*
X132260989Y-71512657D01*
X132311644Y-71470752D01*
X132369471Y-71439485D01*
X132432272Y-71420044D01*
X132527835Y-71410000D01*
X137532419Y-71410000D01*
X137565884Y-71406704D01*
X137585349Y-71406704D01*
X137594514Y-71405741D01*
X137850741Y-71377000D01*
X144633574Y-71377000D01*
X144635079Y-71377320D01*
%TA.AperFunction,Conductor*%
D17*
G36*
X144635079Y-71377320D02*
G01*
X144644242Y-71378283D01*
X144644244Y-71378283D01*
X144935596Y-71406850D01*
X144935598Y-71406850D01*
X144967581Y-71410000D01*
X149967721Y-71410000D01*
X150065424Y-71419580D01*
X150128356Y-71438580D01*
X150186405Y-71469445D01*
X150237343Y-71510989D01*
X150279248Y-71561644D01*
X150310515Y-71619471D01*
X150329956Y-71682272D01*
X150340000Y-71777835D01*
X150340001Y-101217572D01*
X150340000Y-101217582D01*
X150340000Y-101532419D01*
X150343296Y-101565884D01*
X150343296Y-101585349D01*
X150344259Y-101594514D01*
X150373000Y-101850741D01*
X150373000Y-108633573D01*
X150372680Y-108635079D01*
X150371717Y-108644244D01*
X150343150Y-108935596D01*
X150343150Y-108935608D01*
X150340001Y-108967581D01*
X150340000Y-128717721D01*
X150330420Y-128815424D01*
X150311420Y-128878357D01*
X150280554Y-128936406D01*
X150239011Y-128987343D01*
X150188356Y-129029248D01*
X150130870Y-129060331D01*
X144267042Y-125584344D01*
X146545000Y-125584344D01*
X146545000Y-125955656D01*
X146617439Y-126319834D01*
X146759534Y-126662882D01*
X146965825Y-126971618D01*
X147228382Y-127234175D01*
X147537118Y-127440466D01*
X147880166Y-127582561D01*
X148244344Y-127655000D01*
X148615656Y-127655000D01*
X148979834Y-127582561D01*
X149322882Y-127440466D01*
X149631618Y-127234175D01*
X149894175Y-126971618D01*
X150100466Y-126662882D01*
X150242561Y-126319834D01*
X150315000Y-125955656D01*
X150315000Y-125584344D01*
X150242561Y-125220166D01*
X150100466Y-124877118D01*
X149894175Y-124568382D01*
X149631618Y-124305825D01*
X149322882Y-124099534D01*
X148979834Y-123957439D01*
X148615656Y-123885000D01*
X148244344Y-123885000D01*
X147880166Y-123957439D01*
X147537118Y-124099534D01*
X147228382Y-124305825D01*
X146965825Y-124568382D01*
X146759534Y-124877118D01*
X146617439Y-125220166D01*
X146545000Y-125584344D01*
X144267042Y-125584344D01*
X132229252Y-118448529D01*
X132220096Y-118437382D01*
X132189030Y-118379446D01*
X132169810Y-118316578D01*
X132160000Y-118219999D01*
X132160000Y-117661888D01*
X132187439Y-117799834D01*
X132329534Y-118142882D01*
X132535825Y-118451618D01*
X132798382Y-118714175D01*
X133107118Y-118920466D01*
X133450166Y-119062561D01*
X133814344Y-119135000D01*
X134185656Y-119135000D01*
X134549834Y-119062561D01*
X134892882Y-118920466D01*
X135201618Y-118714175D01*
X135464175Y-118451618D01*
X135670466Y-118142882D01*
X135812561Y-117799834D01*
X135885000Y-117435656D01*
X135885000Y-117064344D01*
X135812561Y-116700166D01*
X135670466Y-116357118D01*
X135464175Y-116048382D01*
X135201618Y-115785825D01*
X134892882Y-115579534D01*
X134549834Y-115437439D01*
X134185656Y-115365000D01*
X133814344Y-115365000D01*
X133450166Y-115437439D01*
X133107118Y-115579534D01*
X132798382Y-115785825D01*
X132535825Y-116048382D01*
X132329534Y-116357118D01*
X132187439Y-116700166D01*
X132160000Y-116838112D01*
X132160000Y-108967581D01*
X132156704Y-108934116D01*
X132156704Y-108914651D01*
X132155741Y-108905486D01*
X132127000Y-108649258D01*
X132127000Y-101866426D01*
X132127320Y-101864921D01*
X132128283Y-101855756D01*
X132156850Y-101564404D01*
X132156850Y-101564402D01*
X132160000Y-101532419D01*
X132160000Y-95500000D01*
X140161928Y-95500000D01*
X140161928Y-97300000D01*
X140174188Y-97424482D01*
X140210498Y-97544180D01*
X140269463Y-97654494D01*
X140348815Y-97751185D01*
X140445506Y-97830537D01*
X140555820Y-97889502D01*
X140675518Y-97925812D01*
X140800000Y-97938072D01*
X143000000Y-97938072D01*
X143124482Y-97925812D01*
X143244180Y-97889502D01*
X143354494Y-97830537D01*
X143451185Y-97751185D01*
X143530537Y-97654494D01*
X143589502Y-97544180D01*
X143625812Y-97424482D01*
X143638072Y-97300000D01*
X143638072Y-95500000D01*
X143625812Y-95375518D01*
X143589502Y-95255820D01*
X143530537Y-95145506D01*
X143451185Y-95048815D01*
X143354494Y-94969463D01*
X143244180Y-94910498D01*
X143124482Y-94874188D01*
X143000000Y-94861928D01*
X140800000Y-94861928D01*
X140675518Y-94874188D01*
X140555820Y-94910498D01*
X140445506Y-94969463D01*
X140348815Y-95048815D01*
X140269463Y-95145506D01*
X140210498Y-95255820D01*
X140174188Y-95375518D01*
X140161928Y-95500000D01*
X132160000Y-95500000D01*
X132160000Y-92049990D01*
X135286314Y-92049990D01*
X135289990Y-92087312D01*
X135289990Y-92087322D01*
X135300987Y-92198975D01*
X135339435Y-92325724D01*
X135344444Y-92342236D01*
X135415016Y-92474266D01*
X135483658Y-92557906D01*
X135509989Y-92589990D01*
X135538987Y-92613788D01*
X137686201Y-94761003D01*
X137709999Y-94790001D01*
X137738997Y-94813799D01*
X137825723Y-94884974D01*
X137873475Y-94910498D01*
X137957753Y-94955546D01*
X138101014Y-94999003D01*
X138212667Y-95010000D01*
X138212677Y-95010000D01*
X138250000Y-95013676D01*
X138287322Y-95010000D01*
X138323393Y-95010000D01*
X138375518Y-95025812D01*
X138500000Y-95038072D01*
X139800000Y-95038072D01*
X139924482Y-95025812D01*
X140044180Y-94989502D01*
X140154494Y-94930537D01*
X140251185Y-94851185D01*
X140330537Y-94754494D01*
X140389502Y-94644180D01*
X140425812Y-94524482D01*
X140438072Y-94400000D01*
X140438072Y-94100000D01*
X140427882Y-93996535D01*
X140435000Y-93931750D01*
X140402753Y-93899503D01*
X140389502Y-93855820D01*
X140332939Y-93750000D01*
X140389502Y-93644180D01*
X140402753Y-93600497D01*
X140435000Y-93568250D01*
X140427882Y-93503465D01*
X140438072Y-93400000D01*
X140438072Y-93100000D01*
X140428223Y-93000000D01*
X140438072Y-92900000D01*
X140438072Y-92600000D01*
X140428223Y-92500000D01*
X140438072Y-92400000D01*
X140438072Y-92100000D01*
X140425812Y-91975518D01*
X140389502Y-91855820D01*
X140330537Y-91745506D01*
X140251185Y-91648815D01*
X140154494Y-91569463D01*
X140044180Y-91510498D01*
X139924482Y-91474188D01*
X139800000Y-91461928D01*
X138500000Y-91461928D01*
X138468808Y-91465000D01*
X137996921Y-91465000D01*
X137785000Y-91253079D01*
X137785000Y-89200000D01*
X140161928Y-89200000D01*
X140161928Y-91000000D01*
X140174188Y-91124482D01*
X140210498Y-91244180D01*
X140269463Y-91354494D01*
X140348815Y-91451185D01*
X140445506Y-91530537D01*
X140555820Y-91589502D01*
X140675518Y-91625812D01*
X140800000Y-91638072D01*
X143000000Y-91638072D01*
X143124482Y-91625812D01*
X143244180Y-91589502D01*
X143354494Y-91530537D01*
X143451185Y-91451185D01*
X143530537Y-91354494D01*
X143589502Y-91244180D01*
X143625812Y-91124482D01*
X143638072Y-91000000D01*
X143638072Y-89200000D01*
X143625812Y-89075518D01*
X143589502Y-88955820D01*
X143530537Y-88845506D01*
X143451185Y-88748815D01*
X143354494Y-88669463D01*
X143244180Y-88610498D01*
X143124482Y-88574188D01*
X143000000Y-88561928D01*
X140800000Y-88561928D01*
X140675518Y-88574188D01*
X140555820Y-88610498D01*
X140445506Y-88669463D01*
X140348815Y-88748815D01*
X140269463Y-88845506D01*
X140210498Y-88955820D01*
X140174188Y-89075518D01*
X140161928Y-89200000D01*
X137785000Y-89200000D01*
X137785000Y-85075157D01*
X141082345Y-81777813D01*
X141082350Y-81777806D01*
X141171925Y-81688232D01*
X145337817Y-77522341D01*
X145367764Y-77497764D01*
X145465862Y-77378233D01*
X145538754Y-77241860D01*
X145583641Y-77093887D01*
X145595000Y-76978561D01*
X145595000Y-76978554D01*
X145598797Y-76940001D01*
X145595000Y-76901448D01*
X145595000Y-75793987D01*
X145802608Y-75623608D01*
X145977183Y-75410887D01*
X146106904Y-75168195D01*
X146186786Y-74904859D01*
X146207000Y-74699624D01*
X146207000Y-73800375D01*
X146186786Y-73595140D01*
X146106904Y-73331805D01*
X145977183Y-73089113D01*
X145802607Y-72876392D01*
X145589886Y-72701817D01*
X145347194Y-72572096D01*
X145083859Y-72492214D01*
X144810000Y-72465241D01*
X144536140Y-72492214D01*
X144272805Y-72572096D01*
X144030113Y-72701817D01*
X143856974Y-72843909D01*
X143252067Y-72239002D01*
X143228265Y-72209999D01*
X143112540Y-72115026D01*
X142980511Y-72044454D01*
X142837250Y-72000997D01*
X142725597Y-71990000D01*
X142725586Y-71990000D01*
X142688264Y-71986324D01*
X142650942Y-71990000D01*
X141267322Y-71990000D01*
X141229999Y-71986324D01*
X141192676Y-71990000D01*
X141192667Y-71990000D01*
X141081014Y-72000997D01*
X140937753Y-72044454D01*
X140805724Y-72115026D01*
X140689999Y-72209999D01*
X140666201Y-72238997D01*
X140310145Y-72595054D01*
X140267194Y-72572096D01*
X140003859Y-72492214D01*
X139730000Y-72465241D01*
X139456140Y-72492214D01*
X139192805Y-72572096D01*
X138950113Y-72701817D01*
X138737392Y-72876393D01*
X138585579Y-73061379D01*
X138577812Y-72982518D01*
X138541502Y-72862820D01*
X138482537Y-72752506D01*
X138403185Y-72655815D01*
X138306494Y-72576463D01*
X138196180Y-72517498D01*
X138076482Y-72481188D01*
X137952000Y-72468928D01*
X137475750Y-72472000D01*
X137317000Y-72630750D01*
X137317000Y-74123000D01*
X137337000Y-74123000D01*
X137337000Y-74377000D01*
X137317000Y-74377000D01*
X137317000Y-75869250D01*
X137475750Y-76028000D01*
X137952000Y-76031072D01*
X138076482Y-76018812D01*
X138196180Y-75982502D01*
X138306494Y-75923537D01*
X138403185Y-75844185D01*
X138482537Y-75747494D01*
X138541502Y-75637180D01*
X138577812Y-75517482D01*
X138585579Y-75438622D01*
X138737393Y-75623608D01*
X138950114Y-75798183D01*
X139192806Y-75927904D01*
X139456141Y-76007786D01*
X139730000Y-76034759D01*
X140003860Y-76007786D01*
X140267195Y-75927904D01*
X140509887Y-75798183D01*
X140722608Y-75623608D01*
X140897183Y-75410887D01*
X141000000Y-75218529D01*
X141102817Y-75410887D01*
X141277393Y-75623608D01*
X141490114Y-75798183D01*
X141510000Y-75808812D01*
X141510001Y-77857023D01*
X135538989Y-83828036D01*
X135509991Y-83851834D01*
X135486193Y-83880832D01*
X135486192Y-83880833D01*
X135415017Y-83967559D01*
X135344445Y-84099589D01*
X135300989Y-84242850D01*
X135286315Y-84391835D01*
X135289992Y-84429167D01*
X135289990Y-92012667D01*
X135286314Y-92049990D01*
X132160000Y-92049990D01*
X132160000Y-75393000D01*
X135789928Y-75393000D01*
X135802188Y-75517482D01*
X135838498Y-75637180D01*
X135897463Y-75747494D01*
X135976815Y-75844185D01*
X136073506Y-75923537D01*
X136183820Y-75982502D01*
X136303518Y-76018812D01*
X136428000Y-76031072D01*
X136904250Y-76028000D01*
X137063000Y-75869250D01*
X137063000Y-74377000D01*
X135951750Y-74377000D01*
X135793000Y-74535750D01*
X135789928Y-75393000D01*
X132160000Y-75393000D01*
X132160000Y-73107000D01*
X135789928Y-73107000D01*
X135793000Y-73964250D01*
X135951750Y-74123000D01*
X137063000Y-74123000D01*
X137063000Y-72630750D01*
X136904250Y-72472000D01*
X136428000Y-72468928D01*
X136303518Y-72481188D01*
X136183820Y-72517498D01*
X136073506Y-72576463D01*
X135976815Y-72655815D01*
X135897463Y-72752506D01*
X135838498Y-72862820D01*
X135802188Y-72982518D01*
X135789928Y-73107000D01*
X132160000Y-73107000D01*
X132160000Y-71782279D01*
X132169580Y-71684576D01*
X132188580Y-71621644D01*
X132219445Y-71563595D01*
X132260989Y-71512657D01*
X132311644Y-71470752D01*
X132369471Y-71439485D01*
X132432272Y-71420044D01*
X132527835Y-71410000D01*
X137532419Y-71410000D01*
X137565884Y-71406704D01*
X137585349Y-71406704D01*
X137594514Y-71405741D01*
X137850741Y-71377000D01*
X144633574Y-71377000D01*
X144635079Y-71377320D01*
G37*
%TD.AperFunction*%
%TD*%
D16*
%TO.N,Net-(J5-Pad1)*%
X167135079Y-71377320D02*
X167144242Y-71378283D01*
X167144244Y-71378283D01*
X167435596Y-71406850D01*
X167435598Y-71406850D01*
X167467581Y-71410000D01*
X172467721Y-71410000D01*
X172565424Y-71419580D01*
X172628356Y-71438580D01*
X172686405Y-71469445D01*
X172737343Y-71510989D01*
X172779248Y-71561644D01*
X172810515Y-71619471D01*
X172829956Y-71682272D01*
X172840000Y-71777835D01*
X172840001Y-101532419D01*
X172843296Y-101565874D01*
X172843296Y-101585349D01*
X172844259Y-101594514D01*
X172873000Y-101850741D01*
X172873000Y-108633573D01*
X172872680Y-108635079D01*
X172871717Y-108644244D01*
X172843150Y-108935596D01*
X172843150Y-108935608D01*
X172840001Y-108967581D01*
X172840000Y-128717721D01*
X172830420Y-128815424D01*
X172811420Y-128878357D01*
X172780554Y-128936406D01*
X172739011Y-128987343D01*
X172688356Y-129029248D01*
X172630870Y-129060331D01*
X166767042Y-125584344D01*
X169045000Y-125584344D01*
X169045000Y-125955656D01*
X169117439Y-126319834D01*
X169259534Y-126662882D01*
X169465825Y-126971618D01*
X169728382Y-127234175D01*
X170037118Y-127440466D01*
X170380166Y-127582561D01*
X170744344Y-127655000D01*
X171115656Y-127655000D01*
X171479834Y-127582561D01*
X171822882Y-127440466D01*
X172131618Y-127234175D01*
X172394175Y-126971618D01*
X172600466Y-126662882D01*
X172742561Y-126319834D01*
X172815000Y-125955656D01*
X172815000Y-125584344D01*
X172742561Y-125220166D01*
X172600466Y-124877118D01*
X172394175Y-124568382D01*
X172131618Y-124305825D01*
X171822882Y-124099534D01*
X171479834Y-123957439D01*
X171115656Y-123885000D01*
X170744344Y-123885000D01*
X170380166Y-123957439D01*
X170037118Y-124099534D01*
X169728382Y-124305825D01*
X169465825Y-124568382D01*
X169259534Y-124877118D01*
X169117439Y-125220166D01*
X169045000Y-125584344D01*
X166767042Y-125584344D01*
X154729252Y-118448529D01*
X154720096Y-118437382D01*
X154689030Y-118379446D01*
X154669810Y-118316578D01*
X154660000Y-118219999D01*
X154660000Y-117661888D01*
X154687439Y-117799834D01*
X154829534Y-118142882D01*
X155035825Y-118451618D01*
X155298382Y-118714175D01*
X155607118Y-118920466D01*
X155950166Y-119062561D01*
X156314344Y-119135000D01*
X156685656Y-119135000D01*
X157049834Y-119062561D01*
X157392882Y-118920466D01*
X157701618Y-118714175D01*
X157964175Y-118451618D01*
X158170466Y-118142882D01*
X158312561Y-117799834D01*
X158385000Y-117435656D01*
X158385000Y-117064344D01*
X158312561Y-116700166D01*
X158170466Y-116357118D01*
X157964175Y-116048382D01*
X157701618Y-115785825D01*
X157392882Y-115579534D01*
X157049834Y-115437439D01*
X156685656Y-115365000D01*
X156314344Y-115365000D01*
X155950166Y-115437439D01*
X155607118Y-115579534D01*
X155298382Y-115785825D01*
X155035825Y-116048382D01*
X154829534Y-116357118D01*
X154687439Y-116700166D01*
X154660000Y-116838112D01*
X154660000Y-108967581D01*
X154656704Y-108934116D01*
X154656704Y-108914651D01*
X154655741Y-108905486D01*
X154627000Y-108649258D01*
X154627000Y-101866426D01*
X154627320Y-101864921D01*
X154628283Y-101855756D01*
X154656850Y-101564404D01*
X154656850Y-101564402D01*
X154660000Y-101532419D01*
X154660000Y-95500000D01*
X162661928Y-95500000D01*
X162661928Y-97300000D01*
X162674188Y-97424482D01*
X162710498Y-97544180D01*
X162769463Y-97654494D01*
X162848815Y-97751185D01*
X162945506Y-97830537D01*
X163055820Y-97889502D01*
X163175518Y-97925812D01*
X163300000Y-97938072D01*
X165500000Y-97938072D01*
X165624482Y-97925812D01*
X165744180Y-97889502D01*
X165854494Y-97830537D01*
X165951185Y-97751185D01*
X166030537Y-97654494D01*
X166089502Y-97544180D01*
X166125812Y-97424482D01*
X166138072Y-97300000D01*
X166138072Y-95500000D01*
X166125812Y-95375518D01*
X166089502Y-95255820D01*
X166030537Y-95145506D01*
X165951185Y-95048815D01*
X165854494Y-94969463D01*
X165744180Y-94910498D01*
X165624482Y-94874188D01*
X165500000Y-94861928D01*
X163300000Y-94861928D01*
X163175518Y-94874188D01*
X163055820Y-94910498D01*
X162945506Y-94969463D01*
X162848815Y-95048815D01*
X162769463Y-95145506D01*
X162710498Y-95255820D01*
X162674188Y-95375518D01*
X162661928Y-95500000D01*
X154660000Y-95500000D01*
X154660000Y-92049990D01*
X157786314Y-92049990D01*
X157789990Y-92087312D01*
X157789990Y-92087322D01*
X157800987Y-92198975D01*
X157839435Y-92325724D01*
X157844444Y-92342236D01*
X157915016Y-92474266D01*
X157983658Y-92557906D01*
X158009989Y-92589990D01*
X158038987Y-92613788D01*
X160186201Y-94761003D01*
X160209999Y-94790001D01*
X160238997Y-94813799D01*
X160325723Y-94884974D01*
X160373475Y-94910498D01*
X160457753Y-94955546D01*
X160601014Y-94999003D01*
X160712667Y-95010000D01*
X160712677Y-95010000D01*
X160750000Y-95013676D01*
X160787322Y-95010000D01*
X160823393Y-95010000D01*
X160875518Y-95025812D01*
X161000000Y-95038072D01*
X162300000Y-95038072D01*
X162424482Y-95025812D01*
X162544180Y-94989502D01*
X162654494Y-94930537D01*
X162751185Y-94851185D01*
X162830537Y-94754494D01*
X162889502Y-94644180D01*
X162925812Y-94524482D01*
X162938072Y-94400000D01*
X162938072Y-94100000D01*
X162927882Y-93996535D01*
X162935000Y-93931750D01*
X162902753Y-93899503D01*
X162889502Y-93855820D01*
X162832939Y-93750000D01*
X162889502Y-93644180D01*
X162902753Y-93600497D01*
X162935000Y-93568250D01*
X162927882Y-93503465D01*
X162938072Y-93400000D01*
X162938072Y-93100000D01*
X162928223Y-93000000D01*
X162938072Y-92900000D01*
X162938072Y-92600000D01*
X162928223Y-92500000D01*
X162938072Y-92400000D01*
X162938072Y-92100000D01*
X162925812Y-91975518D01*
X162889502Y-91855820D01*
X162830537Y-91745506D01*
X162751185Y-91648815D01*
X162654494Y-91569463D01*
X162544180Y-91510498D01*
X162424482Y-91474188D01*
X162300000Y-91461928D01*
X161000000Y-91461928D01*
X160968808Y-91465000D01*
X160496921Y-91465000D01*
X160285000Y-91253079D01*
X160285000Y-89200000D01*
X162661928Y-89200000D01*
X162661928Y-91000000D01*
X162674188Y-91124482D01*
X162710498Y-91244180D01*
X162769463Y-91354494D01*
X162848815Y-91451185D01*
X162945506Y-91530537D01*
X163055820Y-91589502D01*
X163175518Y-91625812D01*
X163300000Y-91638072D01*
X165500000Y-91638072D01*
X165624482Y-91625812D01*
X165744180Y-91589502D01*
X165854494Y-91530537D01*
X165951185Y-91451185D01*
X166030537Y-91354494D01*
X166089502Y-91244180D01*
X166125812Y-91124482D01*
X166138072Y-91000000D01*
X166138072Y-89200000D01*
X166125812Y-89075518D01*
X166089502Y-88955820D01*
X166030537Y-88845506D01*
X165951185Y-88748815D01*
X165854494Y-88669463D01*
X165744180Y-88610498D01*
X165624482Y-88574188D01*
X165500000Y-88561928D01*
X163300000Y-88561928D01*
X163175518Y-88574188D01*
X163055820Y-88610498D01*
X162945506Y-88669463D01*
X162848815Y-88748815D01*
X162769463Y-88845506D01*
X162710498Y-88955820D01*
X162674188Y-89075518D01*
X162661928Y-89200000D01*
X160285000Y-89200000D01*
X160285000Y-85075157D01*
X163582345Y-81777813D01*
X163582350Y-81777806D01*
X163671925Y-81688232D01*
X167837817Y-77522341D01*
X167867764Y-77497764D01*
X167965862Y-77378233D01*
X168038754Y-77241860D01*
X168083641Y-77093887D01*
X168095000Y-76978561D01*
X168095000Y-76978554D01*
X168098797Y-76940001D01*
X168095000Y-76901448D01*
X168095000Y-75793987D01*
X168302608Y-75623608D01*
X168477183Y-75410887D01*
X168606904Y-75168195D01*
X168686786Y-74904859D01*
X168707000Y-74699624D01*
X168707000Y-73800375D01*
X168686786Y-73595140D01*
X168606904Y-73331805D01*
X168477183Y-73089113D01*
X168302607Y-72876392D01*
X168089886Y-72701817D01*
X167847194Y-72572096D01*
X167583859Y-72492214D01*
X167310000Y-72465241D01*
X167036140Y-72492214D01*
X166772805Y-72572096D01*
X166530113Y-72701817D01*
X166356974Y-72843909D01*
X165752067Y-72239002D01*
X165728265Y-72209999D01*
X165612540Y-72115026D01*
X165480511Y-72044454D01*
X165337250Y-72000997D01*
X165225597Y-71990000D01*
X165225586Y-71990000D01*
X165188264Y-71986324D01*
X165150942Y-71990000D01*
X163767322Y-71990000D01*
X163729999Y-71986324D01*
X163692676Y-71990000D01*
X163692667Y-71990000D01*
X163581014Y-72000997D01*
X163437753Y-72044454D01*
X163305724Y-72115026D01*
X163189999Y-72209999D01*
X163166201Y-72238997D01*
X162810145Y-72595054D01*
X162767194Y-72572096D01*
X162503859Y-72492214D01*
X162230000Y-72465241D01*
X161956140Y-72492214D01*
X161692805Y-72572096D01*
X161450113Y-72701817D01*
X161237392Y-72876393D01*
X161085579Y-73061379D01*
X161077812Y-72982518D01*
X161041502Y-72862820D01*
X160982537Y-72752506D01*
X160903185Y-72655815D01*
X160806494Y-72576463D01*
X160696180Y-72517498D01*
X160576482Y-72481188D01*
X160452000Y-72468928D01*
X159975750Y-72472000D01*
X159817000Y-72630750D01*
X159817000Y-74123000D01*
X159837000Y-74123000D01*
X159837000Y-74377000D01*
X159817000Y-74377000D01*
X159817000Y-75869250D01*
X159975750Y-76028000D01*
X160452000Y-76031072D01*
X160576482Y-76018812D01*
X160696180Y-75982502D01*
X160806494Y-75923537D01*
X160903185Y-75844185D01*
X160982537Y-75747494D01*
X161041502Y-75637180D01*
X161077812Y-75517482D01*
X161085579Y-75438622D01*
X161237393Y-75623608D01*
X161450114Y-75798183D01*
X161692806Y-75927904D01*
X161956141Y-76007786D01*
X162230000Y-76034759D01*
X162503860Y-76007786D01*
X162767195Y-75927904D01*
X163009887Y-75798183D01*
X163222608Y-75623608D01*
X163397183Y-75410887D01*
X163500000Y-75218529D01*
X163602817Y-75410887D01*
X163777393Y-75623608D01*
X163990114Y-75798183D01*
X164010000Y-75808812D01*
X164010001Y-77857023D01*
X158038989Y-83828036D01*
X158009991Y-83851834D01*
X157986193Y-83880832D01*
X157986192Y-83880833D01*
X157915017Y-83967559D01*
X157844445Y-84099589D01*
X157800989Y-84242850D01*
X157786315Y-84391835D01*
X157789992Y-84429167D01*
X157789990Y-92012667D01*
X157786314Y-92049990D01*
X154660000Y-92049990D01*
X154660000Y-75393000D01*
X158289928Y-75393000D01*
X158302188Y-75517482D01*
X158338498Y-75637180D01*
X158397463Y-75747494D01*
X158476815Y-75844185D01*
X158573506Y-75923537D01*
X158683820Y-75982502D01*
X158803518Y-76018812D01*
X158928000Y-76031072D01*
X159404250Y-76028000D01*
X159563000Y-75869250D01*
X159563000Y-74377000D01*
X158451750Y-74377000D01*
X158293000Y-74535750D01*
X158289928Y-75393000D01*
X154660000Y-75393000D01*
X154660000Y-73107000D01*
X158289928Y-73107000D01*
X158293000Y-73964250D01*
X158451750Y-74123000D01*
X159563000Y-74123000D01*
X159563000Y-72630750D01*
X159404250Y-72472000D01*
X158928000Y-72468928D01*
X158803518Y-72481188D01*
X158683820Y-72517498D01*
X158573506Y-72576463D01*
X158476815Y-72655815D01*
X158397463Y-72752506D01*
X158338498Y-72862820D01*
X158302188Y-72982518D01*
X158289928Y-73107000D01*
X154660000Y-73107000D01*
X154660000Y-71782279D01*
X154669580Y-71684576D01*
X154688580Y-71621644D01*
X154719445Y-71563595D01*
X154760989Y-71512657D01*
X154811644Y-71470752D01*
X154869471Y-71439485D01*
X154932272Y-71420044D01*
X155027835Y-71410000D01*
X160032419Y-71410000D01*
X160065884Y-71406704D01*
X160085349Y-71406704D01*
X160094514Y-71405741D01*
X160350741Y-71377000D01*
X167133574Y-71377000D01*
X167135079Y-71377320D01*
%TA.AperFunction,Conductor*%
D17*
G36*
X167135079Y-71377320D02*
G01*
X167144242Y-71378283D01*
X167144244Y-71378283D01*
X167435596Y-71406850D01*
X167435598Y-71406850D01*
X167467581Y-71410000D01*
X172467721Y-71410000D01*
X172565424Y-71419580D01*
X172628356Y-71438580D01*
X172686405Y-71469445D01*
X172737343Y-71510989D01*
X172779248Y-71561644D01*
X172810515Y-71619471D01*
X172829956Y-71682272D01*
X172840000Y-71777835D01*
X172840001Y-101532419D01*
X172843296Y-101565874D01*
X172843296Y-101585349D01*
X172844259Y-101594514D01*
X172873000Y-101850741D01*
X172873000Y-108633573D01*
X172872680Y-108635079D01*
X172871717Y-108644244D01*
X172843150Y-108935596D01*
X172843150Y-108935608D01*
X172840001Y-108967581D01*
X172840000Y-128717721D01*
X172830420Y-128815424D01*
X172811420Y-128878357D01*
X172780554Y-128936406D01*
X172739011Y-128987343D01*
X172688356Y-129029248D01*
X172630870Y-129060331D01*
X166767042Y-125584344D01*
X169045000Y-125584344D01*
X169045000Y-125955656D01*
X169117439Y-126319834D01*
X169259534Y-126662882D01*
X169465825Y-126971618D01*
X169728382Y-127234175D01*
X170037118Y-127440466D01*
X170380166Y-127582561D01*
X170744344Y-127655000D01*
X171115656Y-127655000D01*
X171479834Y-127582561D01*
X171822882Y-127440466D01*
X172131618Y-127234175D01*
X172394175Y-126971618D01*
X172600466Y-126662882D01*
X172742561Y-126319834D01*
X172815000Y-125955656D01*
X172815000Y-125584344D01*
X172742561Y-125220166D01*
X172600466Y-124877118D01*
X172394175Y-124568382D01*
X172131618Y-124305825D01*
X171822882Y-124099534D01*
X171479834Y-123957439D01*
X171115656Y-123885000D01*
X170744344Y-123885000D01*
X170380166Y-123957439D01*
X170037118Y-124099534D01*
X169728382Y-124305825D01*
X169465825Y-124568382D01*
X169259534Y-124877118D01*
X169117439Y-125220166D01*
X169045000Y-125584344D01*
X166767042Y-125584344D01*
X154729252Y-118448529D01*
X154720096Y-118437382D01*
X154689030Y-118379446D01*
X154669810Y-118316578D01*
X154660000Y-118219999D01*
X154660000Y-117661888D01*
X154687439Y-117799834D01*
X154829534Y-118142882D01*
X155035825Y-118451618D01*
X155298382Y-118714175D01*
X155607118Y-118920466D01*
X155950166Y-119062561D01*
X156314344Y-119135000D01*
X156685656Y-119135000D01*
X157049834Y-119062561D01*
X157392882Y-118920466D01*
X157701618Y-118714175D01*
X157964175Y-118451618D01*
X158170466Y-118142882D01*
X158312561Y-117799834D01*
X158385000Y-117435656D01*
X158385000Y-117064344D01*
X158312561Y-116700166D01*
X158170466Y-116357118D01*
X157964175Y-116048382D01*
X157701618Y-115785825D01*
X157392882Y-115579534D01*
X157049834Y-115437439D01*
X156685656Y-115365000D01*
X156314344Y-115365000D01*
X155950166Y-115437439D01*
X155607118Y-115579534D01*
X155298382Y-115785825D01*
X155035825Y-116048382D01*
X154829534Y-116357118D01*
X154687439Y-116700166D01*
X154660000Y-116838112D01*
X154660000Y-108967581D01*
X154656704Y-108934116D01*
X154656704Y-108914651D01*
X154655741Y-108905486D01*
X154627000Y-108649258D01*
X154627000Y-101866426D01*
X154627320Y-101864921D01*
X154628283Y-101855756D01*
X154656850Y-101564404D01*
X154656850Y-101564402D01*
X154660000Y-101532419D01*
X154660000Y-95500000D01*
X162661928Y-95500000D01*
X162661928Y-97300000D01*
X162674188Y-97424482D01*
X162710498Y-97544180D01*
X162769463Y-97654494D01*
X162848815Y-97751185D01*
X162945506Y-97830537D01*
X163055820Y-97889502D01*
X163175518Y-97925812D01*
X163300000Y-97938072D01*
X165500000Y-97938072D01*
X165624482Y-97925812D01*
X165744180Y-97889502D01*
X165854494Y-97830537D01*
X165951185Y-97751185D01*
X166030537Y-97654494D01*
X166089502Y-97544180D01*
X166125812Y-97424482D01*
X166138072Y-97300000D01*
X166138072Y-95500000D01*
X166125812Y-95375518D01*
X166089502Y-95255820D01*
X166030537Y-95145506D01*
X165951185Y-95048815D01*
X165854494Y-94969463D01*
X165744180Y-94910498D01*
X165624482Y-94874188D01*
X165500000Y-94861928D01*
X163300000Y-94861928D01*
X163175518Y-94874188D01*
X163055820Y-94910498D01*
X162945506Y-94969463D01*
X162848815Y-95048815D01*
X162769463Y-95145506D01*
X162710498Y-95255820D01*
X162674188Y-95375518D01*
X162661928Y-95500000D01*
X154660000Y-95500000D01*
X154660000Y-92049990D01*
X157786314Y-92049990D01*
X157789990Y-92087312D01*
X157789990Y-92087322D01*
X157800987Y-92198975D01*
X157839435Y-92325724D01*
X157844444Y-92342236D01*
X157915016Y-92474266D01*
X157983658Y-92557906D01*
X158009989Y-92589990D01*
X158038987Y-92613788D01*
X160186201Y-94761003D01*
X160209999Y-94790001D01*
X160238997Y-94813799D01*
X160325723Y-94884974D01*
X160373475Y-94910498D01*
X160457753Y-94955546D01*
X160601014Y-94999003D01*
X160712667Y-95010000D01*
X160712677Y-95010000D01*
X160750000Y-95013676D01*
X160787322Y-95010000D01*
X160823393Y-95010000D01*
X160875518Y-95025812D01*
X161000000Y-95038072D01*
X162300000Y-95038072D01*
X162424482Y-95025812D01*
X162544180Y-94989502D01*
X162654494Y-94930537D01*
X162751185Y-94851185D01*
X162830537Y-94754494D01*
X162889502Y-94644180D01*
X162925812Y-94524482D01*
X162938072Y-94400000D01*
X162938072Y-94100000D01*
X162927882Y-93996535D01*
X162935000Y-93931750D01*
X162902753Y-93899503D01*
X162889502Y-93855820D01*
X162832939Y-93750000D01*
X162889502Y-93644180D01*
X162902753Y-93600497D01*
X162935000Y-93568250D01*
X162927882Y-93503465D01*
X162938072Y-93400000D01*
X162938072Y-93100000D01*
X162928223Y-93000000D01*
X162938072Y-92900000D01*
X162938072Y-92600000D01*
X162928223Y-92500000D01*
X162938072Y-92400000D01*
X162938072Y-92100000D01*
X162925812Y-91975518D01*
X162889502Y-91855820D01*
X162830537Y-91745506D01*
X162751185Y-91648815D01*
X162654494Y-91569463D01*
X162544180Y-91510498D01*
X162424482Y-91474188D01*
X162300000Y-91461928D01*
X161000000Y-91461928D01*
X160968808Y-91465000D01*
X160496921Y-91465000D01*
X160285000Y-91253079D01*
X160285000Y-89200000D01*
X162661928Y-89200000D01*
X162661928Y-91000000D01*
X162674188Y-91124482D01*
X162710498Y-91244180D01*
X162769463Y-91354494D01*
X162848815Y-91451185D01*
X162945506Y-91530537D01*
X163055820Y-91589502D01*
X163175518Y-91625812D01*
X163300000Y-91638072D01*
X165500000Y-91638072D01*
X165624482Y-91625812D01*
X165744180Y-91589502D01*
X165854494Y-91530537D01*
X165951185Y-91451185D01*
X166030537Y-91354494D01*
X166089502Y-91244180D01*
X166125812Y-91124482D01*
X166138072Y-91000000D01*
X166138072Y-89200000D01*
X166125812Y-89075518D01*
X166089502Y-88955820D01*
X166030537Y-88845506D01*
X165951185Y-88748815D01*
X165854494Y-88669463D01*
X165744180Y-88610498D01*
X165624482Y-88574188D01*
X165500000Y-88561928D01*
X163300000Y-88561928D01*
X163175518Y-88574188D01*
X163055820Y-88610498D01*
X162945506Y-88669463D01*
X162848815Y-88748815D01*
X162769463Y-88845506D01*
X162710498Y-88955820D01*
X162674188Y-89075518D01*
X162661928Y-89200000D01*
X160285000Y-89200000D01*
X160285000Y-85075157D01*
X163582345Y-81777813D01*
X163582350Y-81777806D01*
X163671925Y-81688232D01*
X167837817Y-77522341D01*
X167867764Y-77497764D01*
X167965862Y-77378233D01*
X168038754Y-77241860D01*
X168083641Y-77093887D01*
X168095000Y-76978561D01*
X168095000Y-76978554D01*
X168098797Y-76940001D01*
X168095000Y-76901448D01*
X168095000Y-75793987D01*
X168302608Y-75623608D01*
X168477183Y-75410887D01*
X168606904Y-75168195D01*
X168686786Y-74904859D01*
X168707000Y-74699624D01*
X168707000Y-73800375D01*
X168686786Y-73595140D01*
X168606904Y-73331805D01*
X168477183Y-73089113D01*
X168302607Y-72876392D01*
X168089886Y-72701817D01*
X167847194Y-72572096D01*
X167583859Y-72492214D01*
X167310000Y-72465241D01*
X167036140Y-72492214D01*
X166772805Y-72572096D01*
X166530113Y-72701817D01*
X166356974Y-72843909D01*
X165752067Y-72239002D01*
X165728265Y-72209999D01*
X165612540Y-72115026D01*
X165480511Y-72044454D01*
X165337250Y-72000997D01*
X165225597Y-71990000D01*
X165225586Y-71990000D01*
X165188264Y-71986324D01*
X165150942Y-71990000D01*
X163767322Y-71990000D01*
X163729999Y-71986324D01*
X163692676Y-71990000D01*
X163692667Y-71990000D01*
X163581014Y-72000997D01*
X163437753Y-72044454D01*
X163305724Y-72115026D01*
X163189999Y-72209999D01*
X163166201Y-72238997D01*
X162810145Y-72595054D01*
X162767194Y-72572096D01*
X162503859Y-72492214D01*
X162230000Y-72465241D01*
X161956140Y-72492214D01*
X161692805Y-72572096D01*
X161450113Y-72701817D01*
X161237392Y-72876393D01*
X161085579Y-73061379D01*
X161077812Y-72982518D01*
X161041502Y-72862820D01*
X160982537Y-72752506D01*
X160903185Y-72655815D01*
X160806494Y-72576463D01*
X160696180Y-72517498D01*
X160576482Y-72481188D01*
X160452000Y-72468928D01*
X159975750Y-72472000D01*
X159817000Y-72630750D01*
X159817000Y-74123000D01*
X159837000Y-74123000D01*
X159837000Y-74377000D01*
X159817000Y-74377000D01*
X159817000Y-75869250D01*
X159975750Y-76028000D01*
X160452000Y-76031072D01*
X160576482Y-76018812D01*
X160696180Y-75982502D01*
X160806494Y-75923537D01*
X160903185Y-75844185D01*
X160982537Y-75747494D01*
X161041502Y-75637180D01*
X161077812Y-75517482D01*
X161085579Y-75438622D01*
X161237393Y-75623608D01*
X161450114Y-75798183D01*
X161692806Y-75927904D01*
X161956141Y-76007786D01*
X162230000Y-76034759D01*
X162503860Y-76007786D01*
X162767195Y-75927904D01*
X163009887Y-75798183D01*
X163222608Y-75623608D01*
X163397183Y-75410887D01*
X163500000Y-75218529D01*
X163602817Y-75410887D01*
X163777393Y-75623608D01*
X163990114Y-75798183D01*
X164010000Y-75808812D01*
X164010001Y-77857023D01*
X158038989Y-83828036D01*
X158009991Y-83851834D01*
X157986193Y-83880832D01*
X157986192Y-83880833D01*
X157915017Y-83967559D01*
X157844445Y-84099589D01*
X157800989Y-84242850D01*
X157786315Y-84391835D01*
X157789992Y-84429167D01*
X157789990Y-92012667D01*
X157786314Y-92049990D01*
X154660000Y-92049990D01*
X154660000Y-75393000D01*
X158289928Y-75393000D01*
X158302188Y-75517482D01*
X158338498Y-75637180D01*
X158397463Y-75747494D01*
X158476815Y-75844185D01*
X158573506Y-75923537D01*
X158683820Y-75982502D01*
X158803518Y-76018812D01*
X158928000Y-76031072D01*
X159404250Y-76028000D01*
X159563000Y-75869250D01*
X159563000Y-74377000D01*
X158451750Y-74377000D01*
X158293000Y-74535750D01*
X158289928Y-75393000D01*
X154660000Y-75393000D01*
X154660000Y-73107000D01*
X158289928Y-73107000D01*
X158293000Y-73964250D01*
X158451750Y-74123000D01*
X159563000Y-74123000D01*
X159563000Y-72630750D01*
X159404250Y-72472000D01*
X158928000Y-72468928D01*
X158803518Y-72481188D01*
X158683820Y-72517498D01*
X158573506Y-72576463D01*
X158476815Y-72655815D01*
X158397463Y-72752506D01*
X158338498Y-72862820D01*
X158302188Y-72982518D01*
X158289928Y-73107000D01*
X154660000Y-73107000D01*
X154660000Y-71782279D01*
X154669580Y-71684576D01*
X154688580Y-71621644D01*
X154719445Y-71563595D01*
X154760989Y-71512657D01*
X154811644Y-71470752D01*
X154869471Y-71439485D01*
X154932272Y-71420044D01*
X155027835Y-71410000D01*
X160032419Y-71410000D01*
X160065884Y-71406704D01*
X160085349Y-71406704D01*
X160094514Y-71405741D01*
X160350741Y-71377000D01*
X167133574Y-71377000D01*
X167135079Y-71377320D01*
G37*
%TD.AperFunction*%
%TD*%
M02*
