%TF.GenerationSoftware,KiCad,Pcbnew,(5.1.10-1-10_14)*%
%TF.CreationDate,2021-07-07T23:54:27+09:00*%
%TF.ProjectId,StickPlate,53746963-6b50-46c6-9174-652e6b696361,rev?*%
%TF.SameCoordinates,Original*%
%TF.FileFunction,Profile,NP*%
%FSLAX46Y46*%
G04 Gerber Fmt 4.6, Leading zero omitted, Abs format (unit mm)*
G04 Created by KiCad (PCBNEW (5.1.10-1-10_14)) date 2021-07-07 23:54:27*
%MOMM*%
%LPD*%
G01*
G04 APERTURE LIST*
%TA.AperFunction,Profile*%
%ADD10C,0.050000*%
%TD*%
G04 APERTURE END LIST*
D10*
X145000000Y-70750000D02*
X150000000Y-70750000D01*
X145000000Y-67750000D02*
X160000000Y-67750000D01*
X167500000Y-67750000D02*
X175000000Y-67750000D01*
X172500000Y-70750000D02*
X167500000Y-70750000D01*
X167500000Y-70750000D02*
G75*
G02*
X167500000Y-67750000I0J1500000D01*
G01*
X160000000Y-67750000D02*
G75*
G02*
X160000000Y-70750000I0J-1500000D01*
G01*
X145000000Y-70750000D02*
G75*
G02*
X145000000Y-67750000I0J1500000D01*
G01*
X137500000Y-67750000D02*
G75*
G02*
X137500000Y-70750000I0J-1500000D01*
G01*
X172500000Y-70750000D02*
G75*
G02*
X173500000Y-71750000I0J-1000000D01*
G01*
X154292893Y-118957107D02*
X172500000Y-129750000D01*
X173500000Y-128750000D02*
G75*
G02*
X172500000Y-129750000I-1000000J0D01*
G01*
X128500000Y-69250000D02*
G75*
G02*
X130000000Y-67750000I1500000J0D01*
G01*
X175000000Y-67750000D02*
G75*
G02*
X176500000Y-69250000I0J-1500000D01*
G01*
X176500000Y-131250000D02*
G75*
G02*
X175000000Y-132750000I-1500000J0D01*
G01*
X130000000Y-132750000D02*
G75*
G02*
X128500000Y-131250000I0J1500000D01*
G01*
X151000000Y-101250000D02*
X151000000Y-101500000D01*
X151000000Y-71750000D02*
X151000000Y-101250000D01*
X130000000Y-67750000D02*
X137500000Y-67750000D01*
X128500000Y-101500000D02*
X128500000Y-69250000D01*
X131500000Y-71750000D02*
X131500000Y-101500000D01*
X128500000Y-109000000D02*
X128500000Y-131250000D01*
X131500000Y-101500000D02*
G75*
G02*
X128500000Y-101500000I-1500000J0D01*
G01*
X128500000Y-109000000D02*
G75*
G02*
X131500000Y-109000000I1500000J0D01*
G01*
X175000000Y-132750000D02*
X130000000Y-132750000D01*
X176500000Y-109000000D02*
X176500000Y-131250000D01*
X176500000Y-101500000D02*
X176500000Y-69250000D01*
X173500000Y-109000000D02*
G75*
G02*
X176500000Y-109000000I1500000J0D01*
G01*
X176500000Y-101500000D02*
G75*
G02*
X173500000Y-101500000I-1500000J0D01*
G01*
X154000000Y-101500000D02*
G75*
G02*
X151000000Y-101500000I-1500000J0D01*
G01*
X151000000Y-109000000D02*
G75*
G02*
X154000000Y-109000000I1500000J0D01*
G01*
X173500000Y-71750000D02*
X173500000Y-101500000D01*
X154000000Y-101500000D02*
X154000000Y-71750000D01*
X154000000Y-71750000D02*
G75*
G02*
X155000000Y-70750000I1000000J0D01*
G01*
X154292893Y-118957107D02*
G75*
G02*
X154000000Y-118250000I707107J707107D01*
G01*
X160000000Y-70750000D02*
X155000000Y-70750000D01*
X154000000Y-109000000D02*
X154000000Y-118250000D01*
X173500000Y-128750000D02*
X173500000Y-109000000D01*
X123500000Y-137750000D02*
X123500000Y-62750000D01*
X181500000Y-137750000D02*
X123500000Y-137750000D01*
X181500000Y-62750000D02*
X181500000Y-137750000D01*
X123500000Y-62750000D02*
X181500000Y-62750000D01*
X151000000Y-128750000D02*
G75*
G02*
X150000000Y-129750000I-1000000J0D01*
G01*
X131792893Y-118957107D02*
G75*
G02*
X131500000Y-118250000I707107J707107D01*
G01*
X131500000Y-71750000D02*
G75*
G02*
X132500000Y-70750000I1000000J0D01*
G01*
X150000000Y-70750000D02*
G75*
G02*
X151000000Y-71750000I0J-1000000D01*
G01*
X151000000Y-128750000D02*
X151000000Y-109000000D01*
X131792893Y-118957107D02*
X150000000Y-129750000D01*
X131500000Y-109000000D02*
X131500000Y-118250000D01*
X137500000Y-70750000D02*
X132500000Y-70750000D01*
M02*
