M48
; DRILL file {KiCad (5.1.10-1-10_14)} date Wednesday, July 07, 2021 at 11:54:29 PM
; FORMAT={-:-/ absolute / metric / decimal}
; #@! TF.CreationDate,2021-07-07T23:54:29+09:00
; #@! TF.GenerationSoftware,Kicad,Pcbnew,(5.1.10-1-10_14)
; #@! TF.FileFunction,NonPlated,1,2,NPTH
FMAT,2
METRIC
T1C0.300
T2C2.500
%
G90
G05
T1
X131.25Y-102.875
X131.25Y-103.469
X131.25Y-104.062
X131.25Y-104.656
X131.25Y-105.25
X131.25Y-105.844
X131.25Y-106.438
X131.25Y-107.031
X131.25Y-107.625
X138.875Y-70.5
X139.469Y-70.5
X140.062Y-70.5
X140.656Y-70.5
X141.25Y-70.5
X141.844Y-70.5
X142.438Y-70.5
X143.031Y-70.5
X143.625Y-70.5
X151.25Y-102.875
X151.25Y-103.469
X151.25Y-104.062
X151.25Y-104.656
X151.25Y-105.25
X151.25Y-105.844
X151.25Y-106.438
X151.25Y-107.031
X151.25Y-107.625
X153.75Y-102.875
X153.75Y-103.469
X153.75Y-104.062
X153.75Y-104.656
X153.75Y-105.25
X153.75Y-105.844
X153.75Y-106.438
X153.75Y-107.031
X153.75Y-107.625
X161.375Y-70.5
X161.969Y-70.5
X162.562Y-70.5
X163.156Y-70.5
X163.75Y-70.5
X164.344Y-70.5
X164.938Y-70.5
X165.531Y-70.5
X166.125Y-70.5
X173.75Y-102.875
X173.75Y-103.469
X173.75Y-104.062
X173.75Y-104.656
X173.75Y-105.25
X173.75Y-105.844
X173.75Y-106.438
X173.75Y-107.031
X173.75Y-107.625
T2
X134.0Y-117.25
X148.43Y-125.77
X156.5Y-117.25
X170.93Y-125.77
T0
M30
