%TF.GenerationSoftware,KiCad,Pcbnew,(5.1.10-1-10_14)*%
%TF.CreationDate,2021-07-07T23:54:27+09:00*%
%TF.ProjectId,StickPlate,53746963-6b50-46c6-9174-652e6b696361,rev?*%
%TF.SameCoordinates,Original*%
%TF.FileFunction,Soldermask,Bot*%
%TF.FilePolarity,Negative*%
%FSLAX46Y46*%
G04 Gerber Fmt 4.6, Leading zero omitted, Abs format (unit mm)*
G04 Created by KiCad (PCBNEW (5.1.10-1-10_14)) date 2021-07-07 23:54:27*
%MOMM*%
%LPD*%
G01*
G04 APERTURE LIST*
%ADD10C,0.300000*%
%ADD11C,2.500000*%
%ADD12R,1.524000X2.286000*%
%ADD13O,1.524000X2.286000*%
%ADD14R,1.300000X0.300000*%
%ADD15R,2.200000X1.800000*%
G04 APERTURE END LIST*
D10*
%TO.C,REF\u002A\u002A*%
X140062500Y-70500000D03*
X138875000Y-70500000D03*
X140656250Y-70500000D03*
X139468750Y-70500000D03*
X143625000Y-70500000D03*
X143031250Y-70500000D03*
X142437500Y-70500000D03*
X141843750Y-70500000D03*
X141250000Y-70500000D03*
%TD*%
%TO.C,REF\u002A\u002A*%
X162562500Y-70500000D03*
X161375000Y-70500000D03*
X163156250Y-70500000D03*
X161968750Y-70500000D03*
X166125000Y-70500000D03*
X165531250Y-70500000D03*
X164937500Y-70500000D03*
X164343750Y-70500000D03*
X163750000Y-70500000D03*
%TD*%
%TO.C,REF\u002A\u002A*%
X173750000Y-105250000D03*
X173750000Y-105843750D03*
X173750000Y-106437500D03*
X173750000Y-107031250D03*
X173750000Y-107625000D03*
X173750000Y-103468750D03*
X173750000Y-104656250D03*
X173750000Y-102875000D03*
X173750000Y-104062500D03*
%TD*%
%TO.C,REF\u002A\u002A*%
X153750000Y-105250000D03*
X153750000Y-105843750D03*
X153750000Y-106437500D03*
X153750000Y-107031250D03*
X153750000Y-107625000D03*
X153750000Y-103468750D03*
X153750000Y-104656250D03*
X153750000Y-102875000D03*
X153750000Y-104062500D03*
%TD*%
%TO.C,REF\u002A\u002A*%
X151250000Y-105250000D03*
X151250000Y-105843750D03*
X151250000Y-106437500D03*
X151250000Y-107031250D03*
X151250000Y-107625000D03*
X151250000Y-103468750D03*
X151250000Y-104656250D03*
X151250000Y-102875000D03*
X151250000Y-104062500D03*
%TD*%
%TO.C,REF\u002A\u002A*%
X131250000Y-104062500D03*
X131250000Y-102875000D03*
X131250000Y-104656250D03*
X131250000Y-103468750D03*
X131250000Y-107625000D03*
X131250000Y-107031250D03*
X131250000Y-106437500D03*
X131250000Y-105843750D03*
X131250000Y-105250000D03*
%TD*%
D11*
%TO.C,REF\u002A\u002A*%
X156500000Y-117250000D03*
%TD*%
%TO.C,REF\u002A\u002A*%
X170930000Y-125770000D03*
%TD*%
%TO.C,REF\u002A\u002A*%
X134000000Y-117250000D03*
%TD*%
%TO.C,REF\u002A\u002A*%
X148430000Y-125770000D03*
%TD*%
D12*
%TO.C,J3*%
X145310000Y-74250000D03*
D13*
X142770000Y-74250000D03*
X140230000Y-74250000D03*
X137690000Y-74250000D03*
%TD*%
D14*
%TO.C,J4*%
X143350000Y-92250000D03*
X143350000Y-92750000D03*
X143350000Y-93250000D03*
X143350000Y-93750000D03*
X143350000Y-94250000D03*
D15*
X140600000Y-96400000D03*
X140600000Y-90100000D03*
%TD*%
D12*
%TO.C,J7*%
X167830000Y-74250000D03*
D13*
X165290000Y-74250000D03*
X162750000Y-74250000D03*
X160210000Y-74250000D03*
%TD*%
D14*
%TO.C,J8*%
X165850000Y-92250000D03*
X165850000Y-92750000D03*
X165850000Y-93250000D03*
X165850000Y-93750000D03*
X165850000Y-94250000D03*
D15*
X163100000Y-96400000D03*
X163100000Y-90100000D03*
%TD*%
M02*
